<svg xmlns="http://www.w3.org/2000/svg" width="2111.67" height="1407.78" enable-background="new 0 0 2000 2000" viewBox="-55.785 296.11 2111.67 1407.78" id="couple-dance-together"><ellipse cx="806.8" cy="1508.7" fill="#ee92a4" rx="152.3" ry="22.4"></ellipse><path fill="#c09797" d="M1104.7,747.5L870,698.8c-13.9-2.9-28.2,3.5-35.3,15.8c-10.1,17.3-2.5,39.5,16,47.2l75.3,31.1  c50.9,21,106.3,28.3,160.9,21.1l15.5-2c15.1-2,26.9-14.2,28.3-29.4C1132.1,765.9,1121,750.8,1104.7,747.5z"></path><path fill="#36201b" d="M832.8,1456.4l15.9-26.5l15.9,10.6l20.4,44.9c3.7,8,1.9,17.5-4.3,23.7l-0.2,0.2L832.8,1456.4z"></path><linearGradient id="a" x1="1445.173" x2="1424.121" y1="-153.759" y2="-306.263" gradientTransform="matrix(1 0 0 -1 -246 496)" gradientUnits="userSpaceOnUse"><stop offset="0" stop-color="#c09797"></stop><stop offset="1" stop-color="#b97676"></stop></linearGradient><path fill="url(#a)" fill-rule="evenodd" d="M1247.8,660.3l-10.5,31.5l-9.4,5L1090.5,749c-19.8,7.5-26.7,32.1-13.7,48.8c9.9,12.7,27.8,15.9,41.5,7.4  l129.5-80.5l-0.4-0.7l36.4-10.2c12.1-3.4,20.8-14,21.8-26.5l0.8-10.2c0.4-4.6-1.8-9-5.6-11.5c-3.9-2.6-8.8-2.8-12.9-0.6l-26.6,14.2  v-16.6c0-3.1-2.1-5.9-5.1-6.7C1252.6,654.9,1248.9,656.9,1247.8,660.3z" clip-rule="evenodd"></path><linearGradient id="b" x1="1245.638" x2="1072.819" y1="-766.2" y2="-875.37" gradientTransform="matrix(1 0 0 -1 -246 496)" gradientUnits="userSpaceOnUse"><stop offset="0" stop-color="#c09797"></stop><stop offset="1" stop-color="#b97676"></stop></linearGradient><path fill="url(#b)" d="M841.8,1440.2l83.2-237.8l47.9,62.7  l-103.1,186L841.8,1440.2z"></path><linearGradient id="c" x1="1054.722" x2="1208.985" y1="-508.624" y2="-924.491" gradientTransform="matrix(1 0 0 -1 -246 496)" gradientUnits="userSpaceOnUse"><stop offset="0" stop-color="#373c78"></stop><stop offset="1" stop-color="#656998"></stop></linearGradient><path fill="url(#c)" d="M885.7,1282.7l-79.4-265.5l111.1-52.9  l70.4,304.1l-95.2,178.2l-53.6-26.8L885.7,1282.7z"></path><linearGradient id="d" x1="1096.89" x2="1300.259" y1="-315.1" y2="-202.905" gradientTransform="matrix(1 0 0 -1 -246 496)" gradientUnits="userSpaceOnUse"><stop offset="0" stop-color="#975f4a"></stop><stop offset="1" stop-color="#8d3615"></stop></linearGradient><path fill="url(#d)" d="M1060.3,709.8l-191.8-14.3  c-13.3-1-26,5.7-32.7,17.3c-10.6,18.3-2.7,41.7,16.8,49.7l110.3,45.6c26.5,11,55.7,13.5,83.7,7.3L1060.3,709.8z"></path><path fill="#86391c" d="M1047.6,808c-1.6,0.1-3.3,0.2-4.9,0.3c-65.2,4.2-132.6-50.9-171.7-93.5l-2.6-0.5c-13.9-2.9-28.2,3.5-35.3,15.8  c-0.7,1.2-1.3,2.4-1.9,3.7c1.2,12.3,9,23.6,21.4,28.8l110.3,45.6c26.5,11,55.7,13.5,83.7,7.3L1047.6,808z"></path><linearGradient id="e" x1="1092.011" x2="1092.011" y1="-488.006" y2="-786.748" gradientTransform="matrix(1 0 0 -1 -246 496)" gradientUnits="userSpaceOnUse"><stop offset="0" stop-color="#373c78"></stop><stop offset="1" stop-color="#2c305f"></stop></linearGradient><path fill="url(#e)" d="M876.1,984l9.6,298.7l-79.4-265.5  L876.1,984z"></path><path fill="#36201b" d="M757.6,1521.9v-39.1l17,0l41.2,18.6c8.1,3.7,13,12.2,12.1,21L757.6,1521.9z"></path><linearGradient id="f" x1="1089.878" x2="961.128" y1="-760.28" y2="-939.513" gradientTransform="matrix(1 0 0 -1 -246 496)" gradientUnits="userSpaceOnUse"><stop offset="0" stop-color="#c09797"></stop><stop offset="1" stop-color="#b97676"></stop></linearGradient><path fill="url(#f)" d="M758.7,1498.7l-10.6-269.9l79.4,5.3  l-42.3,264.6H758.7z"></path><linearGradient id="g" x1="1046.54" x2="1046.54" y1="-500.998" y2="-989.285" gradientTransform="matrix(1 0 0 -1 -246 496)" gradientUnits="userSpaceOnUse"><stop offset="0" stop-color="#373c78"></stop><stop offset="1" stop-color="#656998"></stop></linearGradient><path fill="url(#g)" d="M726,1470.4l16.9-468.1l132.3-5.3  l-71.8,488.3L726,1470.4z"></path><linearGradient id="h" x1="1081.424" x2="1081.424" y1="-177.257" y2="-535.847" gradientTransform="matrix(1 0 0 -1 -246 496)" gradientUnits="userSpaceOnUse"><stop offset="0" stop-color="#975f4a"></stop><stop offset="1" stop-color="#8d3615"></stop></linearGradient><path fill="url(#h)" d="M850.3,687.3l-18.3-3.7  c-32.8-6.6-66.7,2.8-91.5,25.1l-13.4,12.1v301.6c67.7,16.9,172.9,7.1,217,0L892,730C888.2,708.5,871.6,691.6,850.3,687.3z"></path><linearGradient id="i" x1="1096.82" x2="1049.724" y1="-101.749" y2="-211.447" gradientTransform="matrix(1 0 0 -1 -246 496)" gradientUnits="userSpaceOnUse"><stop offset="0" stop-color="#c09797"></stop><stop offset="1" stop-color="#b97676"></stop></linearGradient><path fill="url(#i)" d="M795.7,710.3V593.9l63.5,10.6v105.8  l-8.3,5.5c-14.2,9.5-32.7,9.5-47,0L795.7,710.3z"></path><path fill="#a95f5f" d="M859.2,678.9c-31.1-2.9-51.2-21.3-63.5-42.3v-42.8l63.5,10.6V678.9z"></path><linearGradient id="j" x1="1067.746" x2="1067.746" y1="22.487" y2="-131.972" gradientTransform="matrix(1 0 0 -1 -246 496)" gradientUnits="userSpaceOnUse"><stop offset="0" stop-color="#6e0f07"></stop><stop offset="1" stop-color="#3c1815"></stop></linearGradient><path fill="url(#j)" d="M769.5,502.8  c34.4-42.5,87.4-26.9,94.3-24.6c0.5,0.2,1,0.3,1.5,0.5c36.3,11,37.7,58,15.1,58c-1.9,34.1-7.4,91.3-71.1,91.3  C729.6,628,741,514.2,769.5,502.8z"></path><linearGradient id="k" x1="1075.223" x2="1110.264" y1="-21.63" y2="-149.533" gradientTransform="matrix(1 0 0 -1 -246 496)" gradientUnits="userSpaceOnUse"><stop offset="0" stop-color="#c09797"></stop><stop offset="1" stop-color="#b97676"></stop></linearGradient><path fill="url(#k)" d="M860.5,656.4c41,0,39.8-85.4,34.1-130.9  c-23.1,6.6-47.7,7-71,1c-10.7-2.8-20,7.9-17.2,18.6c12.3,46.4-14.3,40.4-14.3,60.1C792.2,633.7,809.3,656.4,860.5,656.4z"></path><linearGradient id="l" x1="1029.664" x2="1037.887" y1="-77.4" y2="-113.041" gradientTransform="matrix(1 0 0 -1 -246 496)" gradientUnits="userSpaceOnUse"><stop offset="0" stop-color="#c09797"></stop><stop offset="1" stop-color="#b97676"></stop></linearGradient><path fill="url(#l)" d="M769.5,582.4c0-11.4,22.8-11.4,34.1,5.7  v22.8C792.2,616.6,769.5,593.8,769.5,582.4z"></path><ellipse cx="1128" cy="1521.5" fill="#ee92a4" rx="152.3" ry="22.4"></ellipse><linearGradient id="m" x1="1030.914" x2="1030.914" y1="-222.386" y2="-535.846" gradientTransform="matrix(1 0 0 -1 -246 496)" gradientUnits="userSpaceOnUse"><stop offset="0" stop-color="#86391c"></stop><stop offset="1" stop-color="#7b2c0e"></stop></linearGradient><path fill="url(#m)" d="M842.9,1031.5  c-28.5-20.6-62.1-51.9-68.3-83.1c-3.9-19.7-3.5-46.8-3-75.3c0.8-47.8,1.7-99.3-18.2-125.8l-23.7-29l-2.8,2.5v301.6  C760.4,1030.9,803,1032.7,842.9,1031.5z"></path><linearGradient id="n" x1="899.004" x2="847.791" y1="36.583" y2="-257.004" gradientTransform="matrix(1 0 0 -1 -246 496)" gradientUnits="userSpaceOnUse"><stop offset="0" stop-color="#c09797"></stop><stop offset="1" stop-color="#b97676"></stop></linearGradient><path fill="url(#n)" fill-rule="evenodd" d="  M468.4,548.1L448,516.4c-6.8-10.6-6.3-24.2,1.3-34.2l6.2-8.2c2.7-3.7,7.2-5.5,11.8-4.9c4.6,0.6,8.5,3.8,10.1,8.1l10.3,28.4  l11.2-12.6c2.1-2.3,5.4-3,8.2-1.6c3.3,1.6,4.7,5.5,3.3,8.9L497,531.4l2.3,6.3h0L574.6,664c0.2,0.4,0.4,0.8,0.7,1.2l209.9,45.6  c15.8,3.4,25.4,19.6,20.9,35.2c-3.4,11.5-13.6,19.5-25.6,20l-70.3,3.1c-59.8,2.6-118.8-14.7-167.7-49.2l-8.5-6  c-5.6-3.9-9.5-9.6-11.3-15.9c-1.6-2.3-3-4.8-4-7.6l-51.1-142.1L468.4,548.1z" clip-rule="evenodd"></path><linearGradient id="o" x1="1003.264" x2="849.892" y1="-344.238" y2="-141.676" gradientTransform="matrix(1 0 0 -1 -246 496)" gradientUnits="userSpaceOnUse"><stop offset="0" stop-color="#975f4a"></stop><stop offset="1" stop-color="#8d3615"></stop></linearGradient><path fill="url(#o)" d="M589.8,648.4l191,58.5  c19.8,6.1,32.8,24.9,31.5,45.5c-1.6,26.1-25.2,45.3-51,41.5l-65.2-9.4c-51.8-7.5-102.3-22.5-149.8-44.6L589.8,648.4z"></path><path fill="#457aae" d="M1145.2,1465l14.5-24.2l14.5,9.7l18.6,41c3.3,7.3,1.8,16-3.9,21.7l-0.2,0.2L1145.2,1465z"></path><linearGradient id="p" x1="1405.119" x2="1405.119" y1="-13.223" y2="-231.752" gradientTransform="matrix(1 0 0 -1 -246 496)" gradientUnits="userSpaceOnUse"><stop offset="0" stop-color="#3f3c3c"></stop><stop offset="1" stop-color="#191919"></stop></linearGradient><path fill="url(#p)" d="M1140.2,510c31.1,0.1,61.1,13.4,65.7,61  c5.1,52.3,38.9,70.2,53.1,101.8c14.1,31.6-25.4,58-53.1,36c-27.7-22.1-84.9,26.8-125.2,17.9c-40.3-8.8-21.6-51.3-8.7-81.4  c8.6-19.9,9-47.8,7.9-67c-0.8-14,3.7-28.1,13.7-38l31.3-31.1"></path><linearGradient id="q" x1="1446.198" x2="1446.198" y1="-518.82" y2="-964.112" gradientTransform="matrix(1 0 0 -1 -246 496)" gradientUnits="userSpaceOnUse"><stop offset="0" stop-color="#333d4f"></stop><stop offset="1" stop-color="#4e5561"></stop></linearGradient><path fill="url(#q)" d="M1270.5,1295.3l-92.2,164.8l-25.6-10  l59.6-170.4l-92.1-216.5l101.6-48.4l57.6,248.7C1282.1,1275.3,1278.4,1287.1,1270.5,1295.3z"></path><linearGradient id="r" x1="1680.882" x2="1644.167" y1="-286.603" y2="-357.942" gradientTransform="matrix(1 0 0 -1 -246 496)" gradientUnits="userSpaceOnUse"><stop offset="0" stop-color="#e98253"></stop><stop offset="1" stop-color="#f0b89f"></stop></linearGradient><path fill="url(#r)" fill-rule="evenodd" d="  M1399.5,854.6l38.6-21.1c10.1-5.5,15.6-16.7,14-28.1l-1.4-9.3c-0.6-4.1-3.4-7.6-7.3-9.1c-4-1.5-8.5-0.7-11.7,2.1l-20.8,18.1  l-3.4-14.8c-0.6-2.8-3.1-4.8-5.9-4.9c-3.4-0.1-6.2,2.4-6.6,5.7l-2.9,30.3l-8.1,7L1399.5,854.6z" clip-rule="evenodd"></path><linearGradient id="s" x1="1416.975" x2="1416.975" y1="-536.852" y2="-785.033" gradientTransform="matrix(1 0 0 -1 -246 496)" gradientUnits="userSpaceOnUse"><stop offset="0" stop-color="#1b2433"></stop><stop offset="1" stop-color="#35455f"></stop></linearGradient><path fill="url(#s)" d="M1183.9,1032.9l37.9,248.2l-10.5-3.5  l-91.1-214.3L1183.9,1032.9z"></path><linearGradient id="t" x1="1527.49" x2="1438.471" y1="-261.859" y2="-434.83" gradientTransform="matrix(1 0 0 -1 -246 496)" gradientUnits="userSpaceOnUse"><stop offset="0" stop-color="#45aa9e"></stop><stop offset="1" stop-color="#1c6f65"></stop></linearGradient><path fill="url(#t)" fill-rule="evenodd" d="  M1297.5,958.7c1.2-0.9,2.3-1.8,3.3-2.9l104.6-104.1l-22-23.8l-92.7,62l-96.6-170.1c-8.6-15.2-26.5-22.4-43.3-17.5  c-21.1,6.2-32.4,29.1-24.5,49.6l29.3,75.7c17.7,45.9,45.8,87,81.9,120.4l11.4,10.5c13.2,12.2,33.5,12.7,47.3,1.2  C1296.8,959.3,1297.1,959,1297.5,958.7z" clip-rule="evenodd"></path><linearGradient id="u" x1="1436.922" x2="1394.517" y1="-300.754" y2="-383.156" gradientTransform="matrix(1 0 0 -1 -246 496)" gradientUnits="userSpaceOnUse"><stop offset="0" stop-color="#0c655b"></stop><stop offset="1" stop-color="#0c655b" stop-opacity="0"></stop></linearGradient><path fill="url(#u)" fill-rule="evenodd" d="  M1198.8,905l-3-30.7c-3-30.5-12.8-60-28.6-86.3c-3.9-6.5-11.1-10.3-18.6-10l-11.8,0.5l19,49.1C1166.5,855.4,1181,881.4,1198.8,905z" clip-rule="evenodd"></path><path fill="#457aae" d="M1075.6,1524.9v-35.7l15.5,0l37.7,17c7.5,3.4,11.9,11.1,11.1,19.2L1075.6,1524.9z"></path><linearGradient id="v" x1="1356.47" x2="1356.47" y1="-547.864" y2="-1007.682" gradientTransform="matrix(1 0 0 -1 -246 496)" gradientUnits="userSpaceOnUse"><stop offset="0" stop-color="#333d4f"></stop><stop offset="1" stop-color="#4e5561"></stop></linearGradient><path fill="url(#v)" d="M1062.1,1048.7l4.3,243.1  c0.1,4.2,0.9,8.2,2.4,11.9l7.8,200h24.2l33-206.3c0.6-3.7,0.5-7.3,0-10.7l25.1-242.7L1062.1,1048.7z"></path><linearGradient id="w" x1="1397.11" x2="1397.11" y1="-184.852" y2="-576.903" gradientTransform="matrix(1 0 0 -1 -246 496)" gradientUnits="userSpaceOnUse"><stop offset="0" stop-color="#59c2b6"></stop><stop offset="1" stop-color="#25867a"></stop></linearGradient><path fill="url(#w)" d="M1203.6,884.9c48-12,0-124.9-30-179.8  l-17.7-5.3c-40-11.8-83.2-3.1-115.5,23.3l-1.7,1.4c30,112.4,27.5,235.4,0,325.3c65.9,42,177.3,17.5,224.8,0  C1243.5,1014.8,1203.6,932.8,1203.6,884.9z"></path><linearGradient id="x" x1="1381.519" x2="1381.519" y1="-130.727" y2="-248.756" gradientTransform="matrix(1 0 0 -1 -246 496)" gradientUnits="userSpaceOnUse"><stop offset="0" stop-color="#e98253"></stop><stop offset="1" stop-color="#f0b89f"></stop></linearGradient><path fill="url(#x)" d="M1106.5,733.2V626.7l58.1,9.7v96.8l-7.6,5  c-13,8.7-30,8.7-43,0L1106.5,733.2z"></path><linearGradient id="y" x1="1422.417" x2="1422.417" y1="-373.901" y2="-414.714" gradientTransform="matrix(1 0 0 -1 -246 496)" gradientUnits="userSpaceOnUse"><stop offset="0" stop-color="#0c655b"></stop><stop offset="1" stop-color="#0c655b" stop-opacity="0"></stop></linearGradient><path fill="url(#y)" fill-rule="evenodd" d="  M1209.2,882.8c-1.7,0.9-3.6,1.6-5.7,2.1c0,7.8,1.1,16.6,2.9,25.8c-23.3-5.3-49-16.6-61.4-38C1153,883,1182.5,884.4,1209.2,882.8z   M1143.6,869.9c0.5,1,1,1.9,1.5,2.8C1144.5,871.9,1144,870.9,1143.6,869.9z" clip-rule="evenodd"></path><path fill="#f1956b" d="M1107.1,692.6c28.5-2.6,46.9-19.5,58.1-38.7v-39.1l-58.1,9.7V692.6z"></path><linearGradient id="z" x1="1366.202" x2="1366.202" y1="-51.113" y2="-176.032" gradientTransform="matrix(1 0 0 -1 -246 496)" gradientUnits="userSpaceOnUse"><stop offset="0" stop-color="#e98253"></stop><stop offset="1" stop-color="#f0b89f"></stop></linearGradient><path fill="url(#z)" d="M1105.9,672c-37.5,0-36.4-78.1-31.2-119.7  c21.1,6,43.6,6.4,64.9,0.9c9.8-2.5,18.3,7.2,15.7,17c-11.2,42.4,13.1,36.9,13.1,55C1168.4,651.2,1152.8,672,1105.9,672z"></path><linearGradient id="A" x1="1365.02" x2="1365.02" y1="-13.223" y2="-110.026" gradientTransform="matrix(1 0 0 -1 -246 496)" gradientUnits="userSpaceOnUse"><stop offset="0" stop-color="#3f3c3c"></stop><stop offset="1" stop-color="#191919"></stop></linearGradient><path fill="url(#A)" d="M1058.4,564.3c-0.6,4.4-0.8,8.8-0.6,13.1  c7.1,4.1,22.3,10.6,43.7,7.7c0,0-6.7-17.9-0.4-44.5c0,0-0.6,27,9.4,42c0,0,14.1,2.4,31.1,0.6c0,0-4.2-15.3-0.3-33.7  c0,0,2.4,40.8,32.6,56.5c2.8-6,4.8-12.6,5.8-19.7c5-36-18.1-70.1-51.6-76.2C1094.6,504.1,1063.4,528.3,1058.4,564.3z"></path><linearGradient id="B" x1="1414.905" x2="1414.905" y1="-100.345" y2="-134.447" gradientTransform="matrix(1 0 0 -1 -246 496)" gradientUnits="userSpaceOnUse"><stop offset="0" stop-color="#e98253"></stop><stop offset="1" stop-color="#f0b89f"></stop></linearGradient><path fill="url(#B)" d="M1184.5,603.6c0-10.4-20.8-10.4-31.2,5.2  v20.8C1163.7,634.8,1184.5,614,1184.5,603.6z"></path><linearGradient id="C" x1="1228.048" x2="1228.048" y1="-551.825" y2="-623.01" gradientTransform="matrix(1 0 0 -1 -246 496)" gradientUnits="userSpaceOnUse"><stop offset="0" stop-color="#e98253"></stop><stop offset="1" stop-color="#f0b89f"></stop></linearGradient><path fill="url(#C)" d="M951.6,1047.8l3.4,43.9  c0.9,11.4,8.8,21.1,19.8,24.3l9,2.6c4,1.2,8.3,0,11.3-2.9c3-3,4.1-7.4,2.9-11.5l-8.1-26.4l15.1,3c2.8,0.6,5.6-0.8,6.9-3.4  c1.5-3,0.4-6.7-2.5-8.3l-26.9-15.4l-1.8-5.9H951.6z"></path><path fill="#f0b89f" d="M954.5,925.8l142.6-166.3c8.5-9.9,9.7-24.1,3-35.3c-9.4-15.7-30.5-19.5-44.9-8.1l-54.2,43.4  c-41.7,33.4-72.6,78.3-88.8,129.2l-3.7,11.5c-3.3,10.3-0.1,21.5,8.1,28.5C927.9,938.4,944.9,937.1,954.5,925.8z"></path><path fill="#f0b89f" d="M951.6,1057.5l-41.2-131.8c-4.2-13.3,1.9-27.7,14.4-33.9c17.7-8.8,38.8,2.6,41,22.3l14.9,133.7L951.6,1057.5z"></path><linearGradient id="D" x1="1254.404" x2="1254.404" y1="-210.488" y2="-567.221" gradientTransform="matrix(1 0 0 -1 -246 496)" gradientUnits="userSpaceOnUse"><stop offset="0" stop-color="#45aa9e"></stop><stop offset="1" stop-color="#1d796e"></stop></linearGradient><path fill="url(#D)" d="M908.7,916.4c0.1,2.1,0.5,4.2,1.1,6.3  l41.7,140.5l29-10.2l-14.5-137.4l134.1-149.3c9.6-10.7,11.9-26.2,5.8-39.3c-9.9-21-37-27.2-55-12.5l-47,38.2  c-43.1,35-74.9,81.9-91.5,134.8l-3.7,11.9C906.9,905,907,911,908.7,916.4z"></path><path fill="#eb0055" d="M1492.6,1306.8c-0.5,1.4-0.9,2.7-1.4,3.9c-0.3,6.3-4.7,19.1-19.7,20.6c-18.7,1.9-15.9-20.6-23.4-20.6  s-17.8,26.3-32.8,20.6c-15-5.6,2.8-27.2-7.5-26.3c-10.3,0.9-34.7,11.3-36.6-9.4c0-19.5,26.3-25.6,39.4-26.3  c-9.4-4.7-18.7-32.8,7.5-35.6c34.7-3.7,24.4,37.5,37.5,35.6c13.1-1.9,8.4-30,25.3-25.3C1504.7,1252.6,1499.2,1287.3,1492.6,1306.8z"></path><path fill="#ae003c" d="M1609.3,1386.7h-211.9c17.8-59.1,60-54.4,77.8-59.1c0-10.3,6.6-41.3,47.8-49.7c33-6.8,55,12.2,61.9,22.5  L1609.3,1386.7z"></path><path fill="#a50032" d="M1752.7,1279.8c-22.5,1.9-50.6,13.1-65.6,45l13.1,16.9c9.4-1.2,29.1-7.1,32.8-20.6  C1737.7,1304.2,1734.9,1301.3,1752.7,1279.8z"></path><path fill="#b00039" d="M1665.5,1340.7l-58.1-34.7c-4.7-35.6,25.3-38.4,45.9-52.5c16.5-11.2,18.1-37.2,16.9-48.8  c2.2,4.1,11.1,18.6,29.1,44.1c18,25.5,9.4,57.5,2.8,70.3L1665.5,1340.7z"></path><path fill="#eb0055" d="M1668.1,1298.8c6.5-13,11.1-28.7,8.2-43.9c-0.2-1,0.4-2,1.4-2.3l0,0c1-0.2,2,0.4,2.2,1.4  c0.9,4.8,1.1,9.5,0.8,14.3c-0.1,2.2,2.7,3.8,4.5,2.6c3.7-2.4,7-3.6,9.3-4c1-0.2,1.9,0.7,1.9,1.7l0,0c0,1-0.8,1.9-1.8,2.1  c-3.2,0.8-9,3.4-15.4,10.3c-0.1,0.1-0.2,0.1-0.2,0l0,0c-0.1-0.1-0.2,0-0.3,0.1c-1.7,6.9-4.4,13.5-7.3,19.4  c-6.2,12.5-14,22.5-18.3,27.2c-0.7,0.8-1.9,0.8-2.6,0l0,0c-0.7-0.7-0.7-1.9,0-2.7c2.4-2.6,5.8-6.8,9.5-12.3c0,0,0-0.1,0-0.1l0,0  c0,0-0.1,0-0.1-0.1c0.2-4.4-0.1-11.5-1.3-18.2c-0.6-3.4-1.4-6.6-2.5-9.4c-0.8-2-1.7-3.7-2.8-5.1c-0.6-0.8-0.7-2,0-2.8l0,0  c0.7-0.8,1.9-0.8,2.6-0.1c1.5,1.8,2.8,4.1,3.7,6.5c1.2,3.1,2.1,6.6,2.7,10.2c0.3,1.7,0.6,3.5,0.7,5.2c0.3,2.3,3.4,3.1,4.5,1  C1667.7,1299.5,1667.9,1299.1,1668.1,1298.8z"></path><path fill="#a50032" fill-rule="evenodd" d="M1430.6,1278.9c1.8,0,3-1.8,2-3.3c-1.9-2.9-4.6-6.1-8.5-9.1c-0.8-0.6-1-1.8-0.5-2.6l0,0  c0.6-0.9,1.8-1.1,2.6-0.4c6.5,4.9,10.2,10.5,12,14.7c0.4,0.8,1.1,1.4,2,1.5c6.4,0.9,12.6,2.4,18.3,4.3c13.3,4.4,24.2,10.8,29.4,14.4  c0.9,0.6,1,1.8,0.4,2.6l0,0c-0.6,0.8-1.8,1-2.7,0.4c-2.2-1.5-5.6-3.6-9.7-5.8c-0.9-0.5-2.1-0.3-2.9,0.5c-1.8,1.7-4.2,3.7-7,5.4  c-3.5,2-7.8,3.7-12.5,3.8c-1,0-1.8-0.9-1.7-1.9l0,0c0.1-1,1-1.8,2-1.8c3.7-0.1,7.2-1.5,10.3-3.3c1.6-0.9,3-1.9,4.2-2.9  c1.3-1,0.9-2.9-0.6-3.6c-3.2-1.4-6.8-2.8-10.5-4.1c-13.8-4.6-29.9-7-44.6-2.1c-1,0.3-2.1-0.2-2.4-1.1l0,0c-0.4-1,0.1-2.1,1.1-2.4  C1417.6,1279.8,1424.1,1278.9,1430.6,1278.9z" clip-rule="evenodd"></path><path fill="#eb0055" d="M1795.9 1385.7H1493c16.9-59.1 71.1-90 107.8-90 29.1 0 55.3 20.9 64.7 34.7 5.3-5.3 20.3-14.8 37.5-10.3 21.6 5.6 23.4 37.5 49.7 37.5C1784.2 1359.8 1794.6 1377.3 1795.9 1385.7zM445.9 1479.6c.5 1.4.9 2.7 1.4 3.9.3 6.3 4.7 19.1 19.7 20.6 18.8 1.9 15.9-20.6 23.4-20.6 7.5 0 17.8 26.3 32.8 20.6 15-5.6-2.8-27.2 7.5-26.3 10.3.9 34.7 11.3 36.6-9.4 0-19.5-26.3-25.6-39.4-26.3 9.4-4.7 18.8-32.8-7.5-35.6-34.7-3.7-24.4 37.5-37.5 35.6s-8.4-30-25.3-25.3C433.8 1425.3 439.2 1460 445.9 1479.6z"></path><path fill="#ae003c" d="M329.1,1559.4H541c-17.8-59.1-60-54.4-77.8-59.1c0-10.3-6.6-41.3-47.8-49.7c-33-6.8-55,12.2-61.9,22.5  L329.1,1559.4z"></path><path fill="#a50032" d="M185.7,1452.5c22.5,1.9,50.6,13.1,65.6,45l-13.1,16.9c-9.4-1.2-29.1-7.1-32.8-20.6  C200.7,1476.9,203.5,1474.1,185.7,1452.5z"></path><path fill="#b00039" d="M272.9,1513.5l58.1-34.7c4.7-35.6-25.3-38.4-45.9-52.5c-16.5-11.2-18.1-37.2-16.9-48.8  c-2.2,4.1-11.1,18.6-29.1,44.1c-18,25.5-9.4,57.5-2.8,70.3L272.9,1513.5z"></path><path fill="#eb0055" d="M270.3,1471.5c-6.5-13-11.1-28.7-8.2-43.9c0.2-1-0.4-2-1.4-2.3l0,0c-1-0.2-2,0.4-2.2,1.4  c-0.9,4.8-1.1,9.5-0.8,14.3c0.1,2.2-2.7,3.8-4.5,2.6c-3.7-2.4-7-3.6-9.3-4c-1-0.2-1.9,0.7-1.9,1.7l0,0c0,1,0.8,1.9,1.8,2.1  c3.2,0.8,9,3.4,15.4,10.3c0.1,0.1,0.2,0.1,0.2,0l0,0c0.1-0.1,0.2,0,0.3,0.1c1.7,6.9,4.4,13.5,7.3,19.4c6.2,12.5,14,22.5,18.3,27.2  c0.7,0.8,1.9,0.8,2.6,0l0,0c0.7-0.7,0.7-1.9,0-2.7c-2.4-2.6-5.8-6.8-9.5-12.3c0,0,0-0.1,0-0.1l0,0c0,0,0.1,0,0-0.1  c-0.1-4.4,0.1-11.5,1.3-18.2c0.6-3.4,1.4-6.6,2.5-9.4c0.8-2,1.7-3.7,2.8-5.1c0.6-0.8,0.7-2,0-2.8l0,0c-0.7-0.8-1.9-0.8-2.6-0.1  c-1.5,1.8-2.7,4.1-3.7,6.5c-1.2,3.1-2.1,6.6-2.7,10.2c-0.3,1.7-0.6,3.5-0.7,5.2c-0.3,2.3-3.4,3.1-4.5,1  C270.7,1472.2,270.5,1471.9,270.3,1471.5z"></path><path fill="#ae003c" fill-rule="evenodd" d="M507.8,1451.7c-1.8,0-3-1.8-2-3.3c1.9-2.9,4.6-6.1,8.5-9.1c0.8-0.6,1-1.8,0.5-2.6l0,0  c-0.6-0.9-1.8-1.1-2.6-0.4c-6.5,4.9-10.2,10.5-12,14.7c-0.4,0.8-1.1,1.4-2,1.5c-6.4,0.9-12.6,2.4-18.3,4.3  c-13.3,4.4-24.2,10.8-29.4,14.4c-0.9,0.6-1,1.8-0.4,2.6l0,0c0.6,0.8,1.8,1,2.7,0.4c2.2-1.5,5.6-3.6,9.7-5.8c0.9-0.5,2.1-0.3,2.9,0.5  c1.8,1.7,4.2,3.7,7,5.4c3.5,2,7.8,3.7,12.5,3.8c1,0,1.8-0.9,1.7-1.9l0,0c-0.1-1-1-1.8-2-1.8c-3.7-0.1-7.2-1.5-10.3-3.3  c-1.6-0.9-3-1.9-4.2-2.9c-1.3-1-0.9-2.9,0.6-3.6c3.2-1.4,6.8-2.8,10.5-4.1c13.8-4.6,29.9-7,44.6-2.1c1,0.3,2.1-0.2,2.4-1.1l0,0  c0.4-1-0.1-2.1-1.1-2.4C520.8,1452.5,514.3,1451.7,507.8,1451.7z" clip-rule="evenodd"></path><path fill="#eb0055" d="M142.5,1558.5h302.8c-16.9-59.1-71.1-90-107.8-90c-29.1,0-55.3,20.9-64.7,34.7c-5.3-5.3-20.3-14.8-37.5-10.3  c-21.6,5.6-23.4,37.5-49.7,37.5C154.2,1532.6,143.8,1550.1,142.5,1558.5z"></path><path fill="#f3d2dd" d="M1930.6 504.1h-411.4c-7.2 0-12.8-6.4-10.9-13.4 16.3-61.4 70.3-32.7 99.9-57.6 71.6-60.2 132.4-30.6 161.8 3 2.6 3 6.4 4.6 10.3 4.4 44.2-2.4 60.5 8.2 84.8 28.9 2.3 2 5.3 3 8.3 2.9 37.7-1.2 56.6 9.5 64.9 19.9C1942.7 497.8 1937.6 504.1 1930.6 504.1zM366.2 603.3H85.7c-7.2 0-12.8-6.4-10.6-13.3 12.5-40 48.8-20.7 69-38.3 49.2-42.9 91.1-23.1 112.1.7 2.7 3 6.5 4.8 10.5 4.6 28.8-1.3 40.2 6.1 56.3 20.1 2.3 2 5.4 3.1 8.5 3 22.3-.4 35 5.4 41.6 11.9C378.2 596.9 373.2 603.3 366.2 603.3zM1582.6 788.8h280.5c7.2 0 12.8-6.4 10.6-13.3-12.5-40-48.8-20.7-69-38.3-49.2-42.9-91.1-23.1-112.1.7-2.7 3-6.5 4.8-10.5 4.6-28.8-1.3-40.2 6.1-56.3 20.1-2.3 2-5.4 3.1-8.5 3-22.3-.4-35 5.4-41.6 11.9C1570.7 782.5 1575.6 788.8 1582.6 788.8z"></path><rect width="1919.7" height="1279.8" x="40.2" y="360.1" fill="none"></rect></svg>