<svg xmlns="http://www.w3.org/2000/svg" xmlns:xlink="http://www.w3.org/1999/xlink" viewBox="0 0 1210.044 591.185" id="happy-family-sitting-on-sofa"><defs><linearGradient id="c" x1="784.041" x2="769.536" y1="76.161" y2="39.956" gradientUnits="userSpaceOnUse"><stop offset=".192" stop-color="#e68257"></stop><stop offset=".843" stop-color="#ffdeba"></stop></linearGradient><linearGradient id="a" x1="607.386" x2="607.913" y1="110.952" y2="105.419" gradientTransform="rotate(-7.412 574.448 194.614)" gradientUnits="userSpaceOnUse"><stop offset="0" stop-color="#ba827d"></stop><stop offset=".331" stop-color="#875a5a"></stop><stop offset=".621" stop-color="#613d40"></stop><stop offset=".853" stop-color="#4a2b31"></stop><stop offset="1" stop-color="#42242b"></stop></linearGradient><linearGradient id="d" x1="67.824" x2="68.351" y1="24.59" y2="19.057" gradientTransform="scale(-1 1) rotate(-10.685 163.58 3795.685)" xlink:href="#a"></linearGradient><linearGradient id="e" x1="-4847.893" x2="-4846.322" y1="46.523" y2="2.517" gradientTransform="matrix(1.1289 -.0773 .0683 .9977 6210.187 -200.981)" gradientUnits="userSpaceOnUse"><stop offset=".129" stop-color="#ffdeba"></stop><stop offset=".585" stop-color="#e8c294"></stop></linearGradient><linearGradient id="b" x1="3531.966" x2="3504.091" y1="-30.774" y2="-85.641" gradientTransform="scale(-1 1) rotate(1.272 -4896.365 -199844.508)" gradientUnits="userSpaceOnUse"><stop offset=".226" stop-color="#ffdeba"></stop><stop offset=".885" stop-color="#ffd1a6"></stop></linearGradient><linearGradient id="f" x1="3527.755" x2="3537.984" y1="-50.075" y2="-44.422" xlink:href="#b"></linearGradient><linearGradient id="g" x1="3418.166" x2="3420.156" y1="-69.688" y2="-75.259" gradientTransform="scale(-1 1) rotate(7.331 62.206 -33630.113)" xlink:href="#a"></linearGradient><linearGradient id="h" x1="3386.501" x2="3389.386" y1="-63.511" y2="-71.371" gradientTransform="scale(-1 1) rotate(7.331 62.206 -33630.113)" xlink:href="#a"></linearGradient><linearGradient id="i" x1="3480.371" x2="3489.995" y1="-42.661" y2="-42.661" xlink:href="#b"></linearGradient><linearGradient id="j" x1="-4538.489" x2="-4565.755" y1="124.942" y2="71.274" gradientTransform="translate(4993.547)" xlink:href="#b"></linearGradient><linearGradient id="k" x1="-4542.115" x2="-4533.336" y1="109.341" y2="114.193" gradientTransform="translate(4993.547)" xlink:href="#b"></linearGradient><linearGradient id="l" x1="-4588.439" x2="-4579.355" y1="117.068" y2="117.068" gradientTransform="translate(4993.547)" xlink:href="#b"></linearGradient></defs><g><path fill="#d3ded3" fill-rule="evenodd" d="M0 582.912h1210.044v-9.307H0v9.307Zm49.923-9.307v-8.274H1156.45v8.274Zm-24.547 17.58v-8.273h1153.881v8.273Z" opacity=".42"></path><path fill="#9d9e9e" d="m475.526 389.34-1.122-.176c11.763-75.132 11.763-105.862 0-182.676l1.122-.172c11.784 76.959 11.784 107.748 0 183.024Z"></path><path fill="#9d9e9e" fill-rule="evenodd" d="M987.61 270.116c8.278-2.94 30.768-6.962 44.408-7.752 6.513 95.266.45 188.276-.08 280.376H994.48c-12.025-102.76-18.24-167.53-6.87-272.624Z"></path><path fill="#e6e7e7" fill-rule="evenodd" d="M1031.938 262.297c15.59-2.707 53.875-3.151 66.35 4.612 13.272 93.756 14.013 182.45 0 276.23h-66.35c-4.405-91.901 3.213-184.675 0-280.842Z"></path><path fill="#9d9e9e" fill-rule="evenodd" d="m1034.993 568.554-2.618-25.806h39.476l-.172 25.806h-36.686zM964.752 567.775l-2.159-25.027h32.563l-.141 25.806-30.263-.779z"></path><path fill="#e6e7e7" fill-rule="evenodd" d="M728.47 206.4c84.645-15.223 163.627-14.818 257.584 0 10.632 71.797 10.63 118.842 0 189.043H728.47c-12.027-70.178-11.37-117.27 0-189.043Z"></path><path fill="#9d9e9e" fill-rule="evenodd" d="M177.649 226.378c8.28-7.924 21.802-15.984 37.434-19.965-10.024 94.63-10.595 188.295.022 280.825h-37.456c-12.027-102.762-11.37-155.766 0-260.86ZM111.406 281.88c7.285-6.729 22.8-15.633 37.437-20.614 11.33 89.292 10.578 183.65.02 281.474H106.62c-8.813-112.808-5.547-154.76 4.785-260.86Z"></path><path fill="#e6e7e7" fill-rule="evenodd" d="M471.776 206.4c84.645-15.223 165.06-14.818 259.017 0 10.632 71.797 10.63 118.842 0 189.043H471.776c-12.027-70.178-11.371-117.27 0-189.043Z"></path><path fill="#e6e7e7" fill-rule="evenodd" d="M215.08 206.4c83.974-14.997 165.273-14.772 259.885 0 10.633 71.797 10.63 118.842 0 189.043H215.079c-12.027-70.178-11.37-117.27 0-189.043Z"></path><path fill="#e6e7e7" fill-rule="evenodd" d="M148.863 261.176c12.698-5.197 46.499-7.813 59.171.55a1405.024 1405.024 0 0 1 0 281.014h-59.171c2.306-90.447 4.666-184.76 0-281.564Z"></path><path fill="#e6e7e7" fill-rule="evenodd" d="M201.923 391.867c100.391-2.587 724.527-2.28 828.997.032 21.376 26.577 21.907 65.674 6.182 96.24H201.923Z"></path><path fill="#e6e7e7" fill-rule="evenodd" d="M1035.813 487.946H203.475v54.794h832.338c7.343-18.262 7.545-36.53 0-54.794Z"></path><path fill="#9d9e9e" d="M1039.124 542.74h-1.135v-54.226H227.46v-1.135h810.757c16.526-31.173 14.018-70.19-6.116-95.11-55.722-1.221-244.807-1.859-427.417-1.859-163.297 0-321.411.51-374.522 1.565l-.023-1.133c112.606-2.238 697.422-2.022 802.249.3l.262.005.164.203c20.604 25.3 23.19 65.062 6.31 96.739Zm-816.169-.341-1.129-.116a1428.39 1428.39 0 0 0 1.36-269.557c-4.003-5.147-12.31-15.604-35.376-19.215l.175-1.121c23.71 3.712 32.145 14.558 36.199 19.771l.102.131.015.167a1429.588 1429.588 0 0 1-1.346 269.94Zm252.57-153.059-1.12-.176c11.762-75.132 11.762-105.862 0-182.676l1.12-.172c11.785 76.959 11.785 107.747 0 183.024Z"></path><path fill="#9d9e9e" fill-rule="evenodd" d="m190.777 568.554-2.477-25.806h37.362l-2.721 26.532-32.164-.726zM126.699 568.554l-2.322-25.806h35.006l-.15 25.806h-32.534z"></path><path fill="#9d9e9e" d="m729.04 391.211-1.121-.176c12.028-76.83 13.62-108.514 1.906-185.017l1.121-.172c11.738 76.655 10.143 108.396-1.906 185.365Z"></path><path fill="#6b94bd" d="m701.876 136.362-59.385 62.047 8.307 98.801 36.292-39.876 22.402-35.843 3.585-47.045-11.201-38.084zM824.193 121.576 845.4 136.81l28.675 40.622 24.493 24.792-23.551 55.292-26.79 6.88-6.591-56.972-17.443-85.848z"></path><path fill="#f2c9a8" d="m757.355 77.942-3.768 30.135-3.139 8.16s19.734 12.33 26.998 14.752a3949.222 3949.222 0 0 1 25.425-13.184l-1.728-6.433-5.65-33.43Z"></path><path fill="#ffdeba" d="M823.268 59.972c-.635 4.048-7.331 13.525-12.218 10.527-2.817-1.73-.1-8.478.538-12.526s3.77-6.881 6.997-6.328c3.226.551 5.323 4.279 4.683 8.327ZM731.054 59.374c.635 4.048 7.331 13.524 12.218 10.526 2.818-1.73.1-8.478-.538-12.525-.637-4.048-3.77-6.882-6.997-6.329-3.226.552-5.323 4.28-4.683 8.328Z"></path><path fill="#ffdeba" d="M738.765 52.876c-.996 2.31 2.32 24.966 4.728 35.446 2.184 4.591 11.66 10.128 19.903 13.894 2.214 1.013 4.65 4.223 6.562 5.012 4.444 1.831 16.404-.911 16.404-.911a17.792 17.792 0 0 0 4.813-4.328c5.634-2.21 9.709-3.334 14.654-5.923 1.968-2.734 4.812-11.162 7.655-22.55 1.75-13.213 3.937-29.614 3.937-29.614s.93-19.929-17.717-29.386c-7.967-2.699-28.039-4.353-42.214 0-22.984 7.06-18.725 38.36-18.725 38.36Z"></path><path fill="#c99670" d="M750.491 44.357s14.072-3.72 14.655-3.416 5.25 5.694 5.25 5.694l1.312 8.884-7.656-.228-8.53 1.14-7-.684ZM806.27 44.512s-12.4-4.481-12.982-4.179c-.583.304-7.8 3.34-7.8 3.34l-.876 10.707 8.217 2.379 7.458-1.088 8.02 2.127Z" opacity=".33"></path><path fill="#4a4a57" d="m700.532 136.81 25.986-19.714 23.773-8.078 27.78 10.829 22.823-12.16 18.818 8.96 25.09 17.922s-.093 46.005 1.793 54.214c2.294 9.99 8.36 81.847 8.36 81.847l-1.191 33.75-1.793 41.668-160.538.794 6.595-53.256 5.192-101.219Z"></path><path fill="#7a7877" d="m698.291 345.151.243 46.149h89.943l59.682-2.275 3.813-42.977-153.681-.897z"></path><path fill="#fff" d="M761.515 78.73s14.64 3.517 29.114-.49c-2.124 3.48-8.088 9.17-14.838 9.17-6.448 0-14.276-8.68-14.276-8.68Z"></path><path fill="url(#c)" d="m782.076 42.272.13 16.664 3.678 6.858-.621 2.25-8.788 2.455-7.392-2.689-.224-2.016 3.36-8.065V40.928l9.857 1.344z" opacity=".27"></path><path fill="#22282a" d="M750.713 54.668s7.468-3.584 11.052-4.78c1.214.153 8.363 4.48 8.363 4.48l-10.454-.596ZM804.478 54.369s-8.967-5.447-11.356-5.142c-1.213.154-6.343 4.328-6.343 4.328l8.093-.456Z"></path><path fill="#81858b" d="m746.554 20.211 22.966-4.328 27.122 2.506 9.928 1.032S789.072-2.022 768.859.155c-3.186.447-11.874 4.929-15.962 8.667-5.769 6.79-6.343 11.39-6.343 11.39Z"></path><path fill="#8b8e93" d="m803.889 41.002-14.946-5.392-2.334 6.682 19.758 2.506-2.478-3.796zM752.05 41.301l14.945-5.391 1.042 7.108-18.465 2.079 2.478-3.796z"></path><path fill="#e8a687" d="m759.818 81.456-.896-.02.075-3.537 5.75-9.442.765.466-5.624 9.237-.07 3.296zM793.585 81.695l-.07-3.296-5.623-9.238.765-.465 5.749 9.442.075 3.537-.896.02z"></path><path fill="#c28a78" d="M746.005 54.919h7.368v.897h-7.368z" transform="rotate(-8.304 749.68 55.368)"></path><path fill="#c28a78" d="M748.658 50.718h.895v4.44h-.895z" transform="rotate(-80.139 749.106 52.938)"></path><path fill="#d4ada0" d="m762.407 31.516-.09-.891 13.442-1.344 12.175.894-.067.895-12.097-.897-13.363 1.343z"></path><path fill="#d4ada0" d="M770.616 25.807h7.877v.896h-7.877z" transform="rotate(-1.681 774.556 26.256)"></path><path fill="#c99670" d="m776.924 91.781-7.841-.672 4.032 4.48h8.065l2.688-4.928-6.944 1.12z" opacity=".33"></path><path fill="#40404d" d="M772.365 121.879h9.559v56.75h-9.559z"></path><path fill="#c99670" d="m761.515 78.73 13.474 1.391 17.278-1.595-30.752.204z"></path><path fill="#cc8c80" d="m776.285 71.257-7.783-3.099-.503-1.568.854-.273.373 1.165 7.09 2.823 8.82-2.843.549-1.59.847.292-.694 2.014-9.553 3.079z"></path><path fill="#a1a4a8" d="m773.787.827 2.465 9.185 8.512 7.393-12.545-1.344-.896-5.601 2.464-9.633zM761.168 9.266l6.123 6.795-4.033.672s-2.09-8.363-2.09-7.467Z"></path><path fill="#c99670" d="m751.385 58.401 4.256.672 7.393-.896-8.065 4.033-3.584-3.809z" opacity=".33"></path><path fill="#6b94bd" d="m745.336 109.479 8.251-5.64 25.801 16.841-16.578 11.649-17.474-22.85z"></path><path fill="#6b94bd" d="m807.615 111.271-7.126-5.64-24.686 14.153 15.234 13.441 16.578-21.954z"></path><path fill="#f2bea0" d="M738.6 56.166c-1.859-.057-3.13 1.509-3.416 3.447-.307 2.081 1.087 5.866 3.11 6.164.607.09 1.081.435 1.626.24a49.95 49.95 0 0 1-1.32-9.85ZM815.916 55.569c1.858-.058 3.13 1.508 3.416 3.447.307 2.08-1.087 5.865-3.11 6.164-.607.089-1.082.435-1.626.24a50 50 0 0 0 1.32-9.851Z"></path><g opacity=".52"><path fill="#8a8888" d="m701.225 361.694-.492-1.722a29.45 29.45 0 0 0 11.262-6.941 24.111 24.111 0 0 0 5.17-7.741l1.681.62a25.635 25.635 0 0 1-5.584 8.388 30.685 30.685 0 0 1-12.037 7.396Z"></path></g><g opacity=".52"><path fill="#8a8888" d="M847.722 363.943a20.94 20.94 0 0 1-7.995-4.68c-5.84-5.191-9.624-13.69-9.783-14.05l1.64-.722c.038.085 3.79 8.505 9.333 13.431a19.6 19.6 0 0 0 7.241 4.283Z"></path></g><path fill="#81858b" d="M732.095 37.858c.764-5.196 4.54-9.32 7.632-12.15.533-.488 7.839-6.76 7.839-6.76s-1.97 10.198-3.085 16.221c-.277 2.305-1.873 5.418-1.956 6.543-.062.841-3.22 4.126-3.779 5.539a109.113 109.113 0 0 0 .389 11.847l-3.214-2.04a65.86 65.86 0 0 1-3.826-19.2ZM821.504 36.895c-1.124-5.124-5.382-11.899-8.661-14.487-.566-.447-5.377-2.389-5.377-2.389s.149 9.26 1.941 15.532a176.605 176.605 0 0 0 4.182 5.078c1.046 1.195 1.344 3.734 1.643 5.078.548 4.006.298 14.338.298 14.338l3.423-5.209a157.88 157.88 0 0 0 2.551-17.94Z"></path><path fill="#40404d" d="M697.245 339.327h152.933v4.78H697.245z"></path><path fill="#8a8888" d="M769.469 553.971s4.577-93.007-.467-116.263l-9.74-44.91c-3.468-15.985-20.866-34.068-37.224-34.068-20.302 0-33.028 24.004-31.39 44.24l2.877 35.552 33.788 115.449ZM801.084 553.971s-15.25-84.753-14.236-108.528-4.245-50-4.245-50c.697-16.342 16.582-33.238 32.7-36.02 20.007-3.454 36.631 18.035 38.46 38.255 0 0 3.212 28.602 1.192 51.042s-8.109 103.693-8.109 103.693Z"></path><path fill="#474240" d="M730.94 553.971s-6.684 6.02-8.21 7.548 0 12.39 0 12.39h45.188s2.63-11.2 0-13.001a62.586 62.586 0 0 1-8.244-6.937ZM804.354 553.971v19.939h14.248l2.095-3.842s17.947 3.842 23.146 3.842h11.639a6.284 6.284 0 0 0 1.313-12.429c-5.514-1.18-13.909-3.914-15.836-8.87-11.48 0-36.605 1.36-36.605 1.36Z"></path><path fill="#ffdeba" d="M610.474 552.059v19.117l-34.35-2.391 6.134-8.961 1.993-7.616 26.223-.149zM637.357 550.864v19.117l33.603-.597-6.137-9.558-1.227-8.814-26.239-.148z"></path><path fill="#474240" d="M542.672 398.303c0 3.77 37.783 156.145 37.783 156.145l31.363 2.688 5.14-156.99ZM668.572 553.851s23.858-146.628 23.858-149.302l-68.066 1.819 11.948 150.469ZM573.734 571.773l6.741-8.63 13.272 3.253 10.753-.297 6.273-.896-.299 10.454h-37.039l.299-3.884zM674.545 570.578l-6.741-8.032-13.272 3.254-10.753-.298-6.272-.896.298 10.454h37.039l-.299-4.482z"></path><path fill="#bf693d" d="M543.316 391.123h147.72l1.394-51.796s19.153-11.217 22.14-37.503c-3.584-38.532-14.86-82.889-41.817-118.584-7.873-9.218-18.37-16.353-33.753-26.285-8.73-1.587-44.506-.3-44.506-.3l-20.311 10.456s-18.52 15.233-26.286 28.376c-20.908 49.584-26.36 83.935-27.704 107.382 0 11.65 3.36 48.389 11.425 71.687l6.766-.076Z"></path><path fill="#9e5736" d="m603.753 173.831 11.65 52.72 4.182-.596 9.707-52.572 15.084-13.441a26.252 26.252 0 0 0-5.675-3.286c-1.103.736-48.165 1.718-48.165 1.718l-4.704 2.912s18.863 12.076 17.921 12.545Z"></path><path fill="#f2c9a8" d="m603.305 135.075-7.318 17.4-6.123 6.571 26.883 9.857 24.941-10.455-8.961-8.961-8.587-15.084-20.835.672z"></path><path fill="#ffdeba" d="M566.76 111.717c.584 3.825 6.728 12.779 11.212 9.945 2.585-1.633.092-8.009-.493-11.833s-1.979-8.278-4.94-7.755c-2.96.521-6.365 5.82-5.778 9.643ZM660.066 109.247c-.583 3.825-6.728 12.778-11.212 9.945-2.585-1.633-.092-8.009.493-11.833.586-3.825 1.489-7.847 4.45-7.324 2.96.52 6.856 5.388 6.269 9.212Z"></path><path fill="#ffdeba" d="M572.198 98.778c-1.11 2.555 5.497 30.648 12.719 41.886 4.127 3.143 18.13 12.232 18.13 12.232l3.714 3.058a54.758 54.758 0 0 0 18.567-.873c1.059-.584 1.31-2.403 1.966-3.932 4.348-3.548 14.296-9.377 16.283-11.762 1.41-2.257 2.94-7.024 4.468-12.485 3.903-13.937 6.478-35.205 6.478-35.205s-6.02-24.126-36.863-28.924c-36.568-5.688-45.462 36.005-45.462 36.005Z"></path><path fill="#c99670" d="M586.926 98.237s15.408-4.377 15.903-4.027c2.166 1.53 4.952 6.408 4.952 6.408l-.097 8.065-7.039-1.803-8.592.873-8.446-.583ZM623.945 95.229s12.571-.868 13.106-.582c.535.287 4.805 5.388 4.805 5.388l1.312 4.077h-4.66l-5.535 2.622-13.543.582 1.35-10.4Z" opacity=".33"></path><path fill="#fff" d="M588.845 103.618s11.908-2.844 16.462 3.405c-4.168.109-8.624.236-10.984.137-3.395-.141-5.478-3.542-5.478-3.542Z"></path><path fill="url(#a)" d="M599.947 104.264a4.175 4.175 0 0 1-4.08 3.25 3.814 3.814 0 0 1-3.462-3.875c.176-2.012 2.053-1.991 3.964-1.81 1.907.182 3.714.923 3.578 2.435Z"></path><path fill="#22282a" d="M586.957 104.695s1.165-3.64 8.354-4.185c3.064-.232 5.617 1.518 6.997 2.64.977.796 3.437 3.516 3.437 3.516s-5.134-3.19-9.093-3.951c-2.216-.427-9.695 1.98-9.695 1.98Z"></path><path fill="#3b414b" d="M591.5 106.067a12.98 12.98 0 0 1-3.304-2.11l.292-.34a12.83 12.83 0 0 0 3.15 2.025Z"></path><path fill="#fff" d="M600.163 105.411a1.051 1.051 0 0 1-.886 1.185 1.035 1.035 0 0 1-1.154-.913 1.055 1.055 0 0 1 .887-1.186 1.034 1.034 0 0 1 1.153.914Z"></path><path fill="#22282a" d="M597.934 103.372a2.114 2.114 0 0 1-1.782 2.386 2.077 2.077 0 0 1-2.314-1.836 2.115 2.115 0 0 1 1.78-2.386 2.077 2.077 0 0 1 2.316 1.836Z"></path><path fill="#c97354" d="M603.915 131.881c.328.438 5.025 5.133 5.025 5.133a8.62 8.62 0 0 0 6.007 2.84c2.949.11 6.006-3.276 6.006-3.276s3.64-4.219 3.859-5.311c-.875.219-9.21 4.488-10.193 4.816-.984.328-10.704-4.202-10.704-4.202Z" opacity=".7"></path><path fill="#fff" d="M638.586 104.342s-11.726-3.52-16.628 2.46c4.153.347 8.595.729 10.956.764 3.399.053 5.672-3.224 5.672-3.224Z"></path><path fill="url(#d)" d="M626.21 104.384a4.177 4.177 0 0 0 3.887 3.479 3.814 3.814 0 0 0 3.678-3.671c-.061-2.021-1.936-2.107-3.854-2.034-1.915.072-3.761.71-3.711 2.226Z"></path><path fill="#22282a" d="M639.876 104.768a11.734 11.734 0 0 0-7.567-3.898c-3.048-.387-5.695 1.196-7.135 2.237-1.022.738-3.633 3.313-3.633 3.313s5.308-2.89 9.303-3.425c2.236-.299 9.032 1.773 9.032 1.773Z"></path><path fill="#3b414b" d="m635.797 106.637-.113-.435a12.809 12.809 0 0 0 3.259-1.84l.273.355a13 13 0 0 1-3.419 1.92Z"></path><path fill="#fff" d="M625.929 105.516a1.05 1.05 0 0 0 .817 1.234 1.035 1.035 0 0 0 1.204-.844 1.056 1.056 0 0 0-.818-1.236 1.035 1.035 0 0 0-1.203.846Z"></path><path fill="#22282a" d="M628.27 103.609a2.115 2.115 0 0 0 1.643 2.483 2.077 2.077 0 0 0 2.415-1.702 2.115 2.115 0 0 0-1.642-2.482 2.079 2.079 0 0 0-2.416 1.7Z"></path><path fill="#8b8e93" d="m590.014 93.627 8.446-3.495 5.592 3.797-17.324 3.884 3.286-4.186zM637.045 93.468l-10.274-3.7-4.498 5.357 17.324 2.09-2.552-3.747z"></path><path fill="#e3ad99" d="m599.34 133.252-.229-3.906 3.408-3.635.654.612-3.145 3.356.207 3.52-.895.053z"></path><path fill="#f7c9ad" d="M588.86 133.673h-.896v-2.558l-1.73-6.055.861-.247 1.765 6.239v2.621z"></path><path fill="#e3ad99" d="m629.491 132.832-.889-.11.42-3.361-2.56-5.12.802-.401 2.681 5.363-.454 3.629z"></path><path fill="#c28a78" d="M580.117 105.364h6.572v.895h-6.572z" transform="rotate(-6.844 583.403 105.812)"></path><path fill="#c28a78" d="M640.652 103.009h3.428v.896h-3.428z" transform="rotate(-12.3 642.366 103.457)"></path><path fill="#c28a78" d="M643.083 102.812h.895v5.512h-.895z" transform="rotate(-77.802 643.531 105.568)"></path><path fill="#c28a78" d="M583.888 101.921h.896v3.218h-.896z" transform="rotate(-84.818 584.336 103.53)"></path><path fill="#fff" d="M600.617 128.803s13.154 3.783 26.435 0c-3.235 3.028-5.904 7.84-12.097 7.84-5.917.001-14.338-7.84-14.338-7.84Z"></path><path fill="#c99670" d="m615.061 145.032-5.189-.389-.401 3.013 9.231 2.152 2.694-5.868-6.335 1.092z" opacity=".33"></path><path fill="#f2bea0" d="M573.014 107.316c-1.848.213-2.877 1.948-2.877 3.908 0 2.103 1.93 5.644 3.974 5.644.615 0 1.135.273 1.645 0a49.98 49.98 0 0 1-2.742-9.552ZM653.07 104.622c1.847.213 3.469 2.812 3.469 4.771a7.323 7.323 0 0 1-2.814 5.495c-.463.406-2.416 1.42-2.927 1.145 1.025-2.352 1.897-8.93 2.271-11.41Z"></path><path fill="#c7938a" d="m587.454 110.518 6.912.423 10.159-2.398-10.017 4.373-7.054-2.398zM635.812 110.996l-6.768-.089-8.445-2.626 8.543 5.064 6.67-2.349z" opacity=".59"></path><path fill="#e39378" d="m606.907 119.549 7.495 1.377s6.354-1.43 7.941-1.96l-6.99 5.242Z" opacity=".36"></path><path fill="#c97354" d="m600.617 128.355 7.02.672 5.028-.837 1.953.725 2.129-1.008 4.63 1.419 5.787-.859-11.879 3.656-14.668-3.768z" opacity=".7"></path><path fill="#95949d" d="M627.948 45.669c0 5.845-7.202 10.583-16.084 10.583-8.884 0-16.086-4.738-16.086-10.583 0-5.844 7.202-10.582 16.086-10.582 8.882 0 16.084 4.738 16.084 10.582Z"></path><path fill="#a2a5a9" d="M572.39 74.215c5.755-18.343 13.546-21.199 15.15-22.197 11.151-6.936 37.466-10.943 57.666 6.514 3.63 3.137 5.144 6.872 7.426 12.961 4.55 11.944.22 38.153.22 38.153l-4.588-24.465c-15.437-19.514-57.376-12.523-67.862.292-4.44 8.227-5.314 13.47-7.062 23.518 0 0-4.975-26.333-.95-34.776Z"></path><path fill="#b5bcc1" d="M582.814 82.82c-.311-.81-7.5-19.951 3.445-30.592l.937.964c-10.306 10.019-3.2 28.956-3.127 29.147ZM643.54 79.853l-1.165-.67c.077-.136 7.657-13.585.299-22.076l1.015-.88c7.987 9.216.187 23.042-.149 23.626ZM579.889 85.323c-.331-.392-8.067-9.74-4.198-20.752l1.269.446c-3.618 10.294 3.88 19.35 3.956 19.44Z"></path><path fill="#c3c5c7" d="M653.951 94.703c-.012-.041-1.292-4.127-5.124-4.934l.185-.877c4.36.92 5.74 5.364 5.797 5.553Z"></path><path fill="#ffdeba" d="M559.845 178.461c.347-.324 6.931-9.905 6.931-9.905l7.406-4.134s10.088-4.034 10.516-4.23c2.09 3.884 5.614 5.799 6.51 10.503-1.344 2.016-4.779 3.286-4.779 3.286l-4.854-4.406.448 6.497-5.6.224-10.306 6.646Z"></path><path fill="#f7c9ad" d="m610.324 92.398-.596-.67 1.884-1.674.432-4.974.893.077-.464 5.33-2.149 1.911z"></path><path fill="#e3ad99" d="m615.282 122.342-4.953-1.703-2.95-.735.217-.87 2.986.746 4.642 1.594 5.952-2.904.401.802-1.792.896-4.503 2.174z"></path><path fill="#c6c8ca" d="m571.494 86.761 1.792 4.331 2.24-.597 1.046 4.182-3.231 14.314-2.444-12.373.597-9.857z"></path><path fill="#a6573d" d="m559.844 226.554-11.35 60.933v41.22l-1.634 15.4 7.01-56.024 5.974-61.529z"></path><path fill="#e7d5cc" d="M618.763 178.312a2.016 2.016 0 1 1-2.016-2.016 2.017 2.017 0 0 1 2.016 2.016ZM618.763 191.977a1.568 1.568 0 1 1-1.568-1.568 1.568 1.568 0 0 1 1.568 1.568Z"></path><path fill="#a6573d" d="m674.545 246.863 12.993 38.084-7.019 29.422-1.195-1.195 3.286-27.779-8.065-38.532z"></path><path fill="#ebc4a8" d="m570.001 168.604 5.973 8.065-4.778-1.494a55.081 55.081 0 0 1-1.195-6.57Z"></path><path fill="#b5bcc1" d="m646.235 83.087-.282-1.314.14.657-.144-.657c.234-.052 5.713-1.393 5.298-10.514l1.343-.061c.469 10.306-6.287 11.874-6.355 11.889Z"></path><path fill="#a6573d" d="m547.98 364.866 57.981-8.527 75.081 11.887-87.568 13.322-45.494-16.682z"></path><path fill="#bf693d" d="m535.7 400.494 13.391 68.6 141.583-3.584 4.424-69.455a26.815 26.815 0 0 0-26.762-30.642l-107.052.984a26.815 26.815 0 0 0-25.584 34.097Z"></path><path fill="#9e5736" d="M617.195 442.808s-58.078-8.611-75.91-13.704l7.209 39.99 142.48-3.006 2.42-43.288c-15.531 7.168-76.2 20.008-76.2 20.008Z"></path><path fill="#ffdeba" d="m532.22 377.597 13.218.448 2.464.896 4.705-2.24-1.867-5.077.597-8.961-5.376-6.572 2.02-26.919s-22.06 5.25-25.091 10.155c1.195 17.325 3.921 22.07 3.921 22.07Z"></path><path fill="#9e5736" d="m614.274 435.699-.456-.103-74.235-16.376-1.169-3.934 75.728 16.71 80.599-24.19-.382 3.856-80.085 24.037z"></path><path fill="#f5b091" d="M544.43 372.101h1.792v6.959h-1.792z" transform="rotate(-33.178 545.326 375.58)"></path><path fill="#f5b091" d="M537.373 374.737h1.792v2.807h-1.792z" transform="rotate(-28.611 538.27 376.14)"></path><path fill="#ffdeba" d="m664.058 366.109.709-1.417 8.455-5.572 3.779-11.334 17.57-9.633-4.892-18.204-6.129-9.938-21.85 23.981-6.992 13.036-.189 12.657 6.28 7.982 3.259-1.558z"></path><path fill="#ffc9a6" d="m662.288 357.961 2.337 7.014 8.927-5.808 8.937-15.499-20.201 14.293z"></path><path fill="#f5b091" d="M662.561 357.541h1.792v7.854h-1.792z" transform="rotate(-21.701 663.456 361.468)"></path><path fill="#f5b091" d="M668.334 357.856h1.792v3.612h-1.792z" transform="rotate(-11.252 669.225 359.657)"></path><path fill="#aac4df" d="M709.27 335.379s-53.01 28.707-53.01 42.433 33.852 90.08 33.852 90.08l28.018-4.613-16.933-73.774 40.12-24.093 10.408-.304-14.332 43.093 2.605 12.371 23.802 59.996 29.519 1.26-9.787-87.916 19.129-27.498a12.628 12.628 0 0 0 1.939-10.046l-5.23-22.707Z"></path><path fill="#7b93b9" d="m732.461 352.094 7.629 13.354 11.635-.34-19.264-13.014zM748.71 412.707l14.92-2.914-7.353 8.74-8.05-1.618.483-4.208zM667.458 392.496l17.17.322-6.419 7.448-8.987-2.914-1.764-4.856z"></path><path fill="#f5cf40" d="m684.216 486.418-2.361-5.326 3.244-8.52-1.001-10.177 34.217-5.963 3.783 7.351 2.408 4.244.255 4.137-36.966 16.385-3.579-2.131z"></path><path fill="#7a7172" d="m685.666 471.486 8.644-5.048 11.329-1.061-.273 4.082-8.687.381-10.214 3.448-.799-1.802zM685.374 461.011l7.453-2.171 9.042-4.39 7.07 5.425-24.311 4.529.746-3.393z"></path><path fill="#f5cf40" d="m755.49 502.991-1.268-5.687 4.856-7.715 1.02-10.176 34.722.883 2.263 7.951 1.526 4.635-.563 4.107-39.467 8.795-3.089-2.793z"></path><path fill="#7a7172" d="m759.848 488.636 9.467-3.25 11.317 1.188-1.07 3.949-8.592-1.336-10.693 1.372-.429-1.923zM761.621 478.308l7.734-.664 9.729-2.526 5.866 6.71-24.728-.341 1.399-3.179z"></path><path fill="#759970" d="m784.85 201.99-18.154-1.248s3.973 1.13-5.7-1.57c-9.672-2.703-24.573-7.684-24.573-7.684l-37.18 24.14s-8.551 6.814-10.579 8.699c6.504 10.605 10.9 25.286 10.9 25.286l9.008 66.555-7.84 24.06 105.846 12.208-8.44-51.054-1.526-59.318Z"></path><path fill="url(#e)" d="M727.975 183.53s-1.965 10.849-2.692 13.272c-.387 1.297-7.602 6.589-7.602 6.589s4.625 14.839 18.16 14.445c14.77-.427 26.589-18.246 26.589-18.246s-6.932-2.988-10-4.238c-.833-2.819-5.123-14.008-5.123-14.008Z"></path><path fill="#ffdeba" fill-rule="evenodd" d="M721.29 191.532c10.373-.746 32.133-8.941 39.112-20.786s4.408-20.3 4.912-30.07c.716-13.874-4.905-18.465-10.299-26.302-6.597-9.59-18.496-7.846-29.273-6.812-9.484.91-18.12-1.141-23.513 9.576-2.644 5.252-2.832 9.737-2.584 16.656.123 3.45.836 8.501 1.306 11.888-.046 2.355-1.5 12.662-1.592 14.717.262 15.795 17.537 28.517 21.931 31.133Z"></path><path fill="#fefefe" fill-rule="evenodd" d="M715.246 170.65s7.676 3.17 20.595-4.202c-1.299 5.928-4.975 9.982-10.687 11.165-3.004.622-6.617.485-9.24-1.048Z"></path><path fill="#ba918a" d="M722.93 171.572a19.186 19.186 0 0 1-10.464-1.281l.89-1.2c4.594 2.137 11.198 1.644 18.117-1.352 1.562-.677 4.486-2.258 6.41-3.395l.94 1.097a74.51 74.51 0 0 1-6.623 3.502 34.258 34.258 0 0 1-9.27 2.629Z"></path><path fill="#cfa691" d="M730.404 141.582c3.772-1.946 11.403-.446 11.403-.446l5.896 5.57-4.846 2.805-13.502 2.01-.677-5.151ZM712.483 143.918c-.636-.459-10.537 1.914-11.3 3.423a26.848 26.848 0 0 0-.809 4.141l1.523 1.742 13.585-.936.358-5.238Z" opacity=".36"></path><path fill="#d8a572" d="m727.242 180.865-8.538.022 3.561 3.47 4.572-1.265.405-2.227z" opacity=".55"></path><path fill="#22282a" d="m743.086 148.569-6.505-1.628-6.898 4.538 13.403-2.91zM701.897 153.224l4.581-3.426 6.432 2.812-11.013.614zM741.807 141.136s-2.563-2.637-8.293-2.623a27.508 27.508 0 0 0-3.11 3.069s10.3-.816 11.403-.446ZM699.59 148.92a23.187 23.187 0 0 1 8.217-7.164 35.41 35.41 0 0 1 4.676 2.162s-11.997 4.253-12.893 5.001Z"></path><path fill="#dea191" d="m717.624 160.473 8.849 1.373-10.671 1.033 1.822-2.406z"></path><path fill="#22282a" d="M697.058 143.104s-6.239-13.485-3.69-15.625c-1.036-3.254-1.012-9.177 3.2-16.26 6.028-7.1 16.974-12.26 25.203-14.649 5.126-1.49 18.06-3.112 18.06-3.112l-1.337 4.96s9.349.953 11.735 2.193c6.572 1.15 17.489 7.957 19.041 11.426-.682 3.47-2.813 4.3-2.813 4.3s4.56 14.089 5.56 15.374a8.81 8.81 0 0 1-4.747.03c.863 2.43 1.454 10.955 1.12 13.394-1.752 1.629-.798 3.166-1.058 4.925-.649 4.384-5.152 2.317-5.152 2.317a53.358 53.358 0 0 0-2.03-7.501c-.55-1.446-11.814-14.824-13.608-17.983-4.337-1.146-13.704 2.19-21.724 5.098-3.917 1.42-21.092-.315-25.061 3.143 1.944 8.46 1.963 11.433.304 18.931a63.147 63.147 0 0 1-3.003-10.96Z"></path><path fill="#22282a" d="m711.848 134.304 11.666 5.14-7.478-9.908-4.188 4.768zM722.626 129.992l11.667 5.14-5.264-8.321-6.403 3.181zM690.16 123.088l1.321 8.292 3.842-7.249-5.163-1.043zM706.499 97.356l-4.46 9.018 7.427-3.187-2.967-5.831z"></path><path fill="#5d5f62" d="M730.571 101.498a29.356 29.356 0 0 1 6.86-5.124c.746-.452 1.45-.877 2.048-1.274l-.234-.353c-.59.39-1.292.815-2.034 1.264a29.62 29.62 0 0 0-6.959 5.208ZM766.42 118.608l.3-.298c-4.883-4.932-12.814-6.56-12.894-6.576l-.082.416c.077.015 7.885 1.62 12.676 6.458Z"></path><path fill="#ffdeba" fill-rule="evenodd" d="M758.407 149.483c-.684 2.925-.248 7.017 2.625 7.554 2.876.54 6.29-2.76 6.974-5.684.683-2.924-.105-6.06-2.98-6.6s-5.935 1.804-6.62 4.73Z"></path><path fill="#f2bea0" fill-rule="evenodd" d="M760.319 148.545a3.165 3.165 0 0 1 3.238-.837c1.603.634 1.723 2.754 1.016 4.59-.707 1.838-3.031 3.65-4.634 3.016-.268-.106.38-6.769.38-6.769Z"></path><path fill="#9bad57" d="m688.664 224.327-4.036 79.464-4.405 43.995 17.022 5.32 14.086-44.43-8.708-64.97a23.513 23.513 0 0 0-13.959-19.38Z"></path><path fill="#ffdeba" d="M680.223 347.786s-8.01 10.048-6.788 13.101 16.465 4.28 20.293 3.056 5.827-10.393 2.888-11.507-16.393-4.65-16.393-4.65ZM765.379 356.339s-7.97 13.74-6.748 19.242 9.993 3.026 12.74-1.101 15.592-6.813 16.216-10.537-1.63-4.28-1.63-4.28Z"></path><path fill="#9bad57" d="m782.434 205.932-4.493 83.203-12.562 67.204 22.208 7.604 22.208-68.603s0-66.252-4.015-78.554c-4.66-14.275-22.608-20.158-23.346-10.854Z"></path><path fill="#22282a" d="M879.931 82.656s2.869 28.578-.633 54.585c-2.181 16.194-7.047 35.393-2.213 30.817.91-.86 42.338-18.023 42.338-18.023l-4.32-54.101s-30.994-18.137-31.425-17.778-3.747 4.5-3.747 4.5ZM932.246 78.173s-8.238 76.795-7.15 77.417 47.878 6.685 47.878 6.685a24.284 24.284 0 0 0 0-15.234c-1.381-3.832-4.196-17.101-4.196-17.101l-4.197-25.65s-1.554-36.533-2.02-36.222-30.315 10.105-30.315 10.105Z"></path><path fill="#ffdeba" fill-rule="evenodd" d="m963.177 568.699-.375-15.511-10.965-125.475-18.806-30.419-26.862 1.628 7.015 30.259 29.377 108.751 2.24 16.562 3.732 14.312 14.644-.107zM911.361 561.154l8.33-10.26-2.98-9.234-8.806-115.728-13.645-30.958 1.441-12.107-30.189-6.556-2.012 18.955 7.434 30.375 33.333 116.973a70.34 70.34 0 0 1-11.015 24.28l8.62-.005Z"></path><path fill="#953240" fill-rule="evenodd" d="M988.998 330.66c2.1 8.098 26.461 41.518 5.091 56.994-15.595 11.294-42.348.399-51.772 6.508.044 4.378 12.26 33.076 29.28 56.282-56.57 24.674-119.861 5.988-119.861 5.988s-4.59-72.218-5.224-84.254c-.98-18.621 16.852-23.92 40.946-37.224 3.573-1.972 2.262-4.124 3.302-6.684 5.674 1.472 95.734 2.498 98.238 2.39Z"></path><path fill="#ef8874" fill-rule="evenodd" d="m866.688 304.336 2.047-4.66c2.481-20.784-6.41-50.553-3.283-77.805 3.053-26.615-1.147-46.352 2.346-55.889a29.436 29.436 0 0 1 9.634-7.461l-1.583 43.54 11.89 107-6.82 4.755c-2.33-5.325-7.997-9.847-14.23-9.48Z"></path><path fill="#ef8874" fill-rule="evenodd" d="M884.9 322.673c-.142-10.131.715-19.701-1.011-34.628-2.027-31.813-10.796-25.844-12.093-40.19-2.861-6.538-6.062-13.08-7.523-24.674 1.518-9.851 8.048-32.611 11.431-37.377 1.606-8.288-3.51-10.029-.97-25.613 1.385-.744 1.802-1.155 3.176-1.943 10.374-5.945 39.482-16.044 39.482-16.044a148.966 148.966 0 0 1 35.802 7.473c2.023 16.355 10.553 47.138 17.179 74.392-1.928 8.968-3.325 28.31-3.325 28.31l3.779 30.312 18.17 47.97-53.237.135c-2.897-.904-54.326 7.401-54.326 7.401s3.956-7.537 3.466-15.524Z"></path><path fill="#f2c9a8" fill-rule="evenodd" d="M906.594 148.185s-1.828 20.467 13.093 19.307c14.174-1.105 18.168-18.013 18.37-22.762-2.489-1.16-4.695-1.812-5.972-2.335l-4.67-39.4-18.217 4.14 3.07 37.513Z"></path><path fill="#edf1e5" fill-rule="evenodd" d="m904.532 149.147 3.409-1.842c.178 6.059 1.843 13.396 7.36 15.047 11.026 3.296 18.985-8.41 22.358-17.939l3.222 1.258c-.227 5.39-5.067 25.107-21.154 26.36-16.933 1.319-15.195-22.884-15.195-22.884Z"></path><path fill="#ffdeba" fill-rule="evenodd" d="m908.103 338.927 18.295 1.075 61.55-38.748-4-8.622a110.93 110.93 0 0 1 19.435 5.746 50.6 50.6 0 0 1-.2 8.57c-.533 4.794-3.861 9.62-3.861 9.62s-47.268 23.09-63.949 31.42c-5.799 3.163-12.457 5.19-19.472 9.148-.573-.59-9.328-.302-12.489-.204-.68-1.012-1.099-1.397-2.199-2.796.729-1.721 2.254-3.017 3.002-3.976-.236-.315-3.194.79-6.726 2.476-.523-1.253-.23-3.366-.455-3.812 1.896-2.884 11.069-9.897 11.069-9.897Z"></path><path fill="#ef8874" fill-rule="evenodd" d="M1000.569 316.08a17.235 17.235 0 0 1-2.69 1.28c.7-4.883-3.815-12.352-13.47-13.734l2.035-2.278-24.248-78.425-3.95-24.576c-2.878-9.154-5.036-31.212-8.638-49.69 5.963 1.483 35.67 10.165 37.66 14.092 4.096 5.682 6.81 20.74 11.568 36.845 6.301 21.332 9.351 87.217 6.71 110.305a7.817 7.817 0 0 1-4.977 6.18Z"></path><path fill="#574741" fill-rule="evenodd" d="m962.802 553.188 8.37 12.54-.205 7.416-26.619-.004-1.036-7.794 1.489-10.852 4.331 8.184 7.563 2.229 6.075-4.533.032-7.186zM916.43 573.113l2.537-.04 3.374-16.866-3.067-7.494-13.793 11.548-10.294 2.237-3.386 3.544-7.148 3.808.571 3.253 23.009.004 4.201-7.733 2.511-.436 1.485 8.175z"></path><path fill="#ffdeba" fill-rule="evenodd" d="M866.702 304.265c-2.344 6.008-3.237 29.942-4.638 31.42-5.46 2.512-6.085 2.996-11.16 7.94-3.192 2.436-.11 16.54-2.487 18.07 5.466.4 6.56-7.373 15.856-13.909 3.673-2.155 4.723-2.635 5.715-6.001 1.23-.77 14.974-30.785 14.987-30.797-1.394-5.48-8.797-9.31-18.273-6.723Z"></path><path fill="#db7663" d="M871.656 250.146c-.629-1.726-1.292-3.399-1.993-5.168-2.46-6.201-5.005-12.615-6.15-21.701l-.013-.106.017-.106c1.557-10.105 3.921-17.311 6.85-25.682l1.446.506c-2.99 8.542-5.227 15.364-6.767 25.303 1.127 8.838 3.624 15.133 6.04 21.222.718 1.811 1.396 3.522 2.043 5.303l.043.191c1.859 20.37 11.356 40.662 12.218 58.083l-1.53.075c-.858-17.376-10.353-37.612-12.204-57.92Zm93.05-34.783 1.522-.155 2.682 26.367-1.523.155Z"></path><path fill="#ffdeba" fill-rule="evenodd" d="M997.242 188.452s-8.379 2.886-10.23 6.304c-.984 1.82-.434 5.08.532 8.464.088.308 4.778-.492 4.778-.492s-4.552 2.534-4.376 3.715c.525 3.523 2.494 3.994 2.951 7.276.59 4.23 10.076 6.336 14.35 1.489s-4.646-26.411-8.005-26.756Z"></path><path fill="#db7663" fill-rule="evenodd" d="m879.453 249.443 20.762-2.58 44.273 5.862s-40.609 3.435-44.578 3.435-20.457-6.717-20.457-6.717Z"></path><path fill="url(#b)" fill-rule="evenodd" d="M922.568 128.857c6.313-2.927 15.022-9.22 19.294-14.609 9.466-11.946 12.504-24.837 10.204-31.574-17.475-9.834-17.582-12.003-32.917-22.868-5.193-5.867-14.774-9.973-17.203-14.076-6.684 8.561-12.08 18.429-17.993 21.299-.427 4.484-1.23 8.237-3.244 15.07-1.799 6.026-1.417 7.9-1.758 13.663-.943 10.513 14.42 31.002 27.282 38.384 5.562-.682 11.13-2.876 16.335-5.289Z"></path><path fill="url(#f)" fill-rule="evenodd" d="M902.35 77.29c.335 4.124-.485 5.871-1.01 11.245-.252 2.58-2.804 8.719-2.15 9.241 4.646 3.72 12.777 3.172 12.777 3.172-.733-7.844-3.167-18.495-9.617-23.659Z"></path><path fill="#ffc7ad" fill-rule="evenodd" d="M881.87 99.65c.03.033.061.066.093.098 2.605 2.706 6.934 3.65 9.671 2.11 2.705-1.52 2.84-4.897.329-7.586l-.09-.097c-2.607-2.705-6.939-3.648-9.674-2.111-2.703 1.523-2.84 4.898-.329 7.586ZM933.554 102.14a4.844 4.844 0 0 1-.165.069c-4.594 1.912-9.827 1.02-11.688-1.994-1.84-2.977.301-6.907 4.785-8.842l.161-.07c4.597-1.911 9.83-1.015 11.693 1.995 1.837 2.977-.303 6.907-4.786 8.842Z"></path><path fill="#e66670" fill-rule="evenodd" d="M921.61 106.511c-1.496 7.094-6.39 14.353-13.741 14.729a8.743 8.743 0 0 1-6.66-2.33c-2.323-2.167-4.69-5.895-6.552-12.037a48.015 48.015 0 0 0 7.363-.612 32.644 32.644 0 0 1 3.45 1.426 34.125 34.125 0 0 1 3.37-1.278c3.059.218 8.654.952 12.77.102Z"></path><path fill="#fefefe" fill-rule="evenodd" d="M921.469 106.605s-14.525 7.6-26.818.227c1.167 1.761 4.522 9.706 11.593 10.412 6.725.916 13.543-7.232 15.225-10.639Z"></path><path fill="#eba687" d="m923.244 108.163.48-.064-.303-2.272-.075-.06-1.729-1.417-.306.375 1.654 1.357.279 2.081zM893.569 108.581l.414-2.08 2.294-1.212-.225-.429-2.5 1.321-.459 2.305.476.095z"></path><path fill="#cfa691" d="m878.779 72.008 5.21-3.113s4.32-2.751 7.962-.722c9.493 5.287 10.007 8.908 10.179 9.39.01.027.016.067.025.098-.194-.622-.356-1.03-.356-1.03a12.701 12.701 0 0 1 .025 5.317 61.42 61.42 0 0 1-.58 2.995l-5.791-1.003s-12.6.387-15.553-1.352c-3.102-1.828-1.121-10.58-1.121-10.58Z" opacity=".55"></path><path fill="#cfa691" d="M901.245 84.943a61.42 61.42 0 0 0 .58-2.995 12.701 12.701 0 0 0-.026-5.318s.162.41.356 1.03a13.146 13.146 0 0 1 .665 3.7c-.042 7.304-2.599 13.212-3.188 15.694-.358.76 1.053 1.484 1.86 1.918a16.192 16.192 0 0 0 5.833 1.64 13.072 13.072 0 0 1-5.63-.91 18.054 18.054 0 0 1-2.873-1.261c-1.979-.867.648-5.32 2.423-13.498Z" opacity=".55"></path><path fill="#ab7a5e" d="M880.928 76.626a11.77 11.77 0 0 1 5.478-2.676l-.158-.957a12.614 12.614 0 0 0-5.99 2.932Z"></path><path fill="#22282a" d="M895.938 67.334c-2.649-1.62-9.002-1.7-9.002-1.7l-7.138 1.624-1.84 3.491c.602-.37 9.188-1.356 11.95-.86 2.813.505 10.17 4.416 10.17 4.416s-2.273-5.83-4.14-6.971Z"></path><path fill="#cfa691" d="M935.959 72.845s-10.318-4.877-14.135-3.196c-9.026 3.974-9.91 7.673-10.136 8.131-.747 1.514-.348 6.903-.348 6.903l4.75.066s12.257 1.711 15.586.9c9.743-2.378 10.999-7.904 10.999-7.904Z" opacity=".55"></path><path fill="#ab7a5e" d="m933.288 76.208.724-.643a10.871 10.871 0 0 0-7.705-3.274l-.005.97a10.08 10.08 0 0 1 6.986 2.947Z"></path><path fill="#22282a" d="M919.853 66.952c1.718-1 8.213-1.517 8.213-1.517l6.349 1.92 3.824 2.948c-.614-.35-7.87-1.24-14.314-.127-2.503.433-10.088 4.428-10.088 4.428s1.824-5.214 6.016-7.652Z"></path><path fill="#e8bf99" d="m938.561 83.777.122-.962-4.378-.55-.122.962 4.378.55z"></path><path fill="#fff" d="M883.551 77.765s12.036-4.584 14.116 4.79c-3.342 2.579-5.616 2.418-8.64 1.526-3.296-.97-5.476-6.316-5.476-6.316Z"></path><path fill="url(#g)" d="M893.114 80.108c-.231 1.719-2.569 3.34-4.459 2.97-1.892-.374-3.189-2.663-3.214-4.402a2.93 2.93 0 0 1 3.614-2.752c1.887.371 4.29 2.468 4.059 4.184Z"></path><path fill="#22282a" d="M882.315 78.292a10.86 10.86 0 0 1 7.96-3.285 7.125 7.125 0 0 1 5.73 2.481c1.554 1.541 2.218 5.207 2.218 5.207s-2.863-3.842-6.755-5.052c-2.178-.679-9.153.649-9.153.649Z"></path><path fill="#3b414b" d="m887.018 83.32.215-.41a8.98 8.98 0 0 1-3.463-4.836l-.398.11a9.327 9.327 0 0 0 3.646 5.136Z"></path><path fill="#fff" d="M885.45 80.74a1.112 1.112 0 0 0 1.087 1.142 1.148 1.148 0 0 0 .958-1.278 1.116 1.116 0 0 0-1.089-1.142 1.147 1.147 0 0 0-.956 1.278Z"></path><path fill="#22282a" d="M887.145 78.896a2.142 2.142 0 0 0 2.095 2.198 2.21 2.21 0 0 0 1.844-2.461 2.141 2.141 0 0 0-2.096-2.198 2.21 2.21 0 0 0-1.843 2.46Z"></path><path fill="#fff" d="M931.643 78.31s-14.773-3.193-17.938 5.42c1.728 2.103 8.215 1.86 11.718.918 3.814-1.027 6.22-6.338 6.22-6.338Z"></path><path fill="url(#h)" d="M916.429 81.516c.314 1.688 3.078 3.237 5.272 2.83a4.752 4.752 0 0 0 3.634-4.402c-.012-1.754-2.09-3.042-4.281-2.635-2.19.404-4.937 2.52-4.625 4.207Z"></path><path fill="#22282a" d="M935.534 78.91s-5.831-3.32-11.794-3.175a13.096 13.096 0 0 0-8.18 3.143c-1.05.998-2.642 4.869-2.642 4.869s4.992-4.115 9.495-5.39c2.524-.715 13.121.552 13.121.552Z"></path><path fill="#3b414b" d="M927.744 83.855c3.476-2.287 4.093-5.02 4.118-5.136l-.467-.1a8.83 8.83 0 0 1-3.914 4.837Z"></path><path fill="#fff" d="M925.379 81.977a1.195 1.195 0 1 1-1.15-1.24 1.198 1.198 0 0 1 1.15 1.24Z"></path><path fill="#22282a" d="M922.944 80.09a2.3 2.3 0 1 1-2.212-2.385 2.3 2.3 0 0 1 2.212 2.385Z"></path><path fill="#22282a" d="m966.194 92.978-14.971 16.06s1.472-11 1.368-14.825a64.467 64.467 0 0 0-1.65-10.466s-20.835-11.26-48.32-36.6c-12.134 20.83-15.978 18.263-17.86 20.892-2.086 7.87-5.437 21.677-5.791 27.41-.31 4.997 3.3 12.387 3.3 12.387l-9.516-13.341s-.07-34.594 2.178-43.715c1.641-6.657 1.607-17.857 18.94-25.348 1.233-.533 4.425 1.388 5.58 2.333.785-.988 2.738-6.09 7.611-6.197 21.473-.475 45.994 5.224 56.496 33.365 5.837 15.64 2.635 38.045 2.635 38.045Z"></path><path fill="#22282a" d="m934.484 70.676.276-1.92c-.37-.053-30.881-.64-31.99-30.67l-1.938.071c1.167 31.656 33.264 32.463 33.652 32.519Z"></path><path fill="#d6e3e6" d="m933.254 31.663.2 9.05L929 44.047l1.466 7.729-8.894-.045s.157 7.03-.517 9.47c4.915 6.44 19.96 14.11 19.96 14.11l-2.562-13.364 9.022-1.494-8.606-8.864 6.394-3.375Z" opacity=".14"></path><path fill="#5d5f62" d="m966.87 72.237-.035-.516c-.322-.076-41.206-10.347-61.92-44.078l-.415.254c20.826 33.91 62.045 44.264 62.37 44.34ZM873.283 67.968a64.377 64.377 0 0 0 14.804-12.282c6.874-7.72 10.987-16.188 11.58-23.845l-.482-.037c-1.054 13.568-13.024 27.7-25.874 35.548a4.35 4.35 0 0 0-.028.616ZM875.301 49.11c12.27-3.805 17.457-10.516 23.081-22.109l-.42-.262c-5.516 11.374-10.652 18.05-22.552 21.83a4.017 4.017 0 0 1-.109.542Z"></path><path fill="#5d5f62" d="m904.806 49.33.444-.225c-4.91-7.047-5.762-14.625-5.632-21.58-.166.24-.328.12-.524-.036-.131 7.025.74 14.706 5.712 21.84Z"></path><path fill="url(#i)" fill-rule="evenodd" d="M947.978 101.082a3.672 3.672 0 0 0 1.52-.02c3-.4 6.743-3.779 7.42-6.99.94-4.454-2.03-7.275-5.012-6.742a4.532 4.532 0 0 0-3.332 2.49c-.953 1.809-1.307 10.998-.596 11.262Z"></path><path fill="#c9e3eb" fill-rule="evenodd" d="M408.08 243.533c-15.664-10.642-47.744-30.351-68.988-48.76-22.37-19.384-28.948-33.496-28.948-33.496s33.084-19.16 43.911-18.292c6.977 2.499 57.41 66.12 70.89 80.664-5.081 4.303-11.234 8.04-16.864 19.884Z"></path><path fill="#a3cdd8" fill-rule="evenodd" d="M425.677 222.104c-1.742-2.152-6.527-8.901-8.98-10.857-12.066 4.02-19.056 14.79-24.22 25.125 3.318 3.31 11.832 8.8 14.683 9.538a55.454 55.454 0 0 1 18.517-23.806Z"></path><path fill="#ffdeba" fill-rule="evenodd" d="M408.181 243.759c15.127 4.237 69.747 24.367 90.752 22.949a1.37 1.37 0 0 0 1.274-1.24l.892-10.287a1.349 1.349 0 0 0-1.22-1.469c-15.234-1.398-70.363-30.531-75.553-30.736-11.27 4.373-16.042 16.689-16.145 20.783Z"></path><path fill="#ffdeba" fill-rule="evenodd" d="M499.879 253.712s12.094-13.311 16.59-7.802 7.146 9.898 5.497 11.777a7.598 7.598 0 0 0-1.773 4.172s-1.274.824-4.82 1.266-10.658 7.12-16.44 3.583.946-12.996.946-12.996Z"></path><path fill="#c9e3eb" d="M231.737 148.542c8.507-10.33 49.117-26.429 49.117-26.429l32.781.827s29.827 16.068 40.068 19.83c6.027 5.524-3.038 67.133-3.038 67.133l1.518 55.592 3.038 34.63.684 10.86 2.355 19.214-45.513.343-.476-8.431-6.208 9.038-69.313-1.254 1.519-29.163 2.734-32.198-1.975-62.123s-9.46-52.777-7.29-57.87Z"></path><path fill="#f2c9a8" d="m283.005 90.824-4.79 30.834-8.809 5.011 41.912 10.935 13.147-9.416-6.608-6.53-6.168-31.517-28.684.683z"></path><path fill="#f2f7fa" d="m268.19 126.214 8.43-5.695 34.591 14.656 8.469-13.973 6.379 7.291-5.128 18.226-9.417-7.899-5.911 9.474-37.413-22.08z"></path><path fill="#86adbc" d="M314.397 157.655a2.212 2.212 0 0 1-2.195 2.126 2.046 2.046 0 0 1-2.057-2.126 2.211 2.211 0 0 1 2.194-2.126 2.046 2.046 0 0 1 2.058 2.126ZM313.72 174.818a2.212 2.212 0 0 1-2.196 2.126 2.045 2.045 0 0 1-2.056-2.126 2.21 2.21 0 0 1 2.194-2.126 2.047 2.047 0 0 1 2.058 2.126Z"></path><path fill="#a8c8d5" d="M256.98 239.37h106.329v1.823H256.98z" transform="rotate(-89.274 310.143 240.282)"></path><path fill="#84bdc9" d="m297.62 200.59-14.278 3.543-16.1-3.099-.912-6.697h31.669l-.379 6.253zM346.805 200.763l-11.324 2.762-11.324-3.222-.589-6.272h24.592l-1.355 6.732z" opacity=".55"></path><path fill="#ffdeba" fill-rule="evenodd" d="M335.688 92.074c-2.54 6.37-11.194 17.333-15.819 21.204-4.579 1.01-4.566.412-11 .565-10.128-3.413-31.362-14.458-34.997-17.846a248.746 248.746 0 0 1-8.335-34.465c-2.793-16.849-.045-26.99 4.972-37.397 6.135-12.732 19.915-12.426 32.32-12.814 10.915-.341 20.444-4.173 28.105 8.1 3.756 6.015 4.61 11.467 5.315 19.963.352 4.236-.853 10.74-.905 14.952.389 2.872 4.627 15.026 5.026 17.524-.268 6.487-3.946 15.605-4.682 20.214Z"></path><path fill="#fefefe" fill-rule="evenodd" d="M323.765 86.827s-8.278 5.051-24.022-1.98c2.323 7.047 7.082 11.44 13.746 12.009 3.506.3 7.595-.421 10.358-2.697Z"></path><path fill="#ba918a" d="M315.156 89.13a20.81 20.81 0 0 0 11.719-3.169l-1.185-1.331c-4.918 3.317-12.5 3.727-20.795 1.125a80.832 80.832 0 0 1-7.773-3.166l-.914 1.485a81.81 81.81 0 0 0 8.031 3.265 36.75 36.75 0 0 0 10.917 1.792Z"></path><path fill="#c99670" d="M303.843 54.951c-4.567-1.8-18.464-.131-18.464-.131l-1.25 9.933 9.498 3.282 9.56.082 3.925-5.466Z" opacity=".6"></path><path fill="#fff" d="M286.641 62.27s4.994 3.995 7.974 4.306c3.05.317 9.907-1.584 9.907-1.584s-6.6-3.35-8.849-3.85a14.928 14.928 0 0 0-9.032 1.127Z"></path><path fill="#543d3b" d="M300.27 63.718a4.096 4.096 0 0 1-4.29 1.819c-2.083-.409-3.87-1.437-4.189-2.492-.652-2.146.198-2.633 2.289-2.452l2.67.378c2.094.18 4.288.24 4.194 1.338 0 0-.507 1.045-.674 1.409Z"></path><path fill="#14121b" d="M284.48 63.28a11.733 11.733 0 0 1 4.747-3.087 12.559 12.559 0 0 1 5.773-.581 14.915 14.915 0 0 1 5.443 1.879 14.231 14.231 0 0 1 4.266 3.657 28.031 28.031 0 0 0-9.945-3.73 15.76 15.76 0 0 0-5.163.142 23.71 23.71 0 0 0-5.121 1.72Z"></path><path fill="#22282a" d="M285.38 54.82s7.49-6.924 15.717-4.593c1.138.718 2.963 5.13 2.963 5.13s-16.82-1.023-18.68-.537Z"></path><path fill="#c99670" d="M315.19 82.936c5.37-1.097 8.239-3.624 7.872-6.93-.111-1.007-.803-3.408-4.78-4.435-.378-1.914 1.296-5.683 1.3-5.741l-3.146-3.524c-.021.26.821 10.538.821 10.538s3.84.376 4.411 3.332c.663 3.423-4.589 4.87-6.745 5.31Z" opacity=".55"></path><path fill="#c99670" d="M320.368 53.084c.659-.657 13.665-.11 14.75 1.617.51.814 2.24 6.764 2.24 6.764L328.9 65.83h-9.318l-3.146-3.524Z" opacity=".55"></path><path fill="#fff" d="M322.188 62.056s1.733 3.971 6.71 2.563a6.693 6.693 0 0 0 4.876-5.286s-4.394-1.374-6.382-.566c-4 1.628-5.204 3.29-5.204 3.29Z"></path><path fill="#543d3b" d="M332.089 59.858a4.075 4.075 0 0 1-1.526 3.214l-.698.42a4.659 4.659 0 0 1-3.85-.691 21.65 21.65 0 0 1-1.646-1.894c-.454-.966 1.361-1.121 2.774-1.906l1.261-.045c1.415-.786 3.24-.843 3.695.12Z"></path><path fill="#14121b" d="M320.634 63.39a7.874 7.874 0 0 1 2.524-3.482 7.524 7.524 0 0 1 3.441-1.652 11.589 11.589 0 0 1 8.852 1.129 26.298 26.298 0 0 0-8.431.634 12.978 12.978 0 0 0-6.386 3.371Z"></path><path fill="#22282a" d="M335.232 55.42s-4.102-6.982-11.448-5.612c-2.442.454-3.974 4.466-3.974 4.466s13.962.3 15.422 1.147Z"></path><path fill="#dbbf94" d="m296.081 87.13-.68-4.755 4.576-1.694.474 1.282-3.541 1.311.523 3.662-1.352.194z"></path><path fill="#ba918a" d="M281.02 63.813h2.29v1.366h-2.29z" transform="rotate(-13.052 282.164 64.497)"></path><path fill="#ba918a" d="M285.379 70.949h5.468v.911h-5.468z"></path><path fill="#d8a572" d="m311.579 101.152 9.713-1.282-3.555 4.787-5.379-.845-.779-2.66z" opacity=".55"></path><path fill="#22282a" d="M265.454 69.632s-5.593-16.652-6.195-42.806c18.037-34.27 64.934-31.865 75.756-9.319a60.552 60.552 0 0 1 5.862 6.313c1.954 4.21 2.297 13.57.624 20.359-3.105 12.598-2.245 11.234-4.049 17.547l-2.426-6.71.608-5.269-3-17.711s-11.372 10.723-23.02 12.377c.3-1.654 2.335-6.4 2.787-7.903-2.406 1.504-7.206 7.61-15.328 8.66-6.798.88-8.254.274-12.593-.717-11.382 10.329-19.026 25.179-19.026 25.179Z"></path><path fill="#42484a" d="m291.029 43.296-.273-.87c13.38-4.212 19.443-18.264 19.496-18.403l.425.16c.003-.005-.401-.219-.401-.219l.507-.237.355.425a2.085 2.085 0 0 1-.085.22c-.793 1.856-7.08 14.85-20.024 18.924Z"></path><path fill="#43494b" d="m342.324 39.335-4.45 3.637-4.102-4.329 1.891 11.303s5.248-4.832 5.838-5.767a33.873 33.873 0 0 0 .823-4.844Z"></path><path fill="#d6e3e6" d="M291.587 20.26s17.315-17.771 25.061-17.315-25.061 17.315-25.061 17.315Z" opacity=".14"></path><path fill="#42484a" d="m285.942 42.173-.563-.717c.043-.033 4.267-3.36 7.25-6.343l.644.644c-3.022 3.023-7.288 6.382-7.331 6.416Z"></path><path fill="#d6e3e6" d="m259.727 40.01 2.734 4.557 2.734 1.139s8.64 9.683 8.411 11.05l-3.23 4.648-6.776-8.636-2.05-.455Z" opacity=".14"></path><path fill="#ffdeba" fill-rule="evenodd" d="M271.66 67.57c1.194 3.47 1.283 8.54-1.908 9.637-3.193 1.1-7.547-2.41-8.742-5.88-1.194-3.469-.745-7.423 2.448-8.523 3.193-1.1 7.007 1.295 8.202 4.766Z"></path><path fill="#f2bea0" fill-rule="evenodd" d="M269.352 66.717a3.425 3.425 0 0 0-3.803-.527c-1.732 1.021-1.566 3.631-.5 5.768 1.067 2.137 3.968 3.996 5.7 2.974.29-.17-1.397-8.215-1.397-8.215Z"></path><path fill="#c9e3eb" fill-rule="evenodd" d="m250.915 201.201-61.727 33.5-6.718 4.055-28.853-15.419 78.321-75.043 18.977 52.907z"></path><path fill="#ffdeba" fill-rule="evenodd" d="M245.783 288.617c-9.87-3.048-75.648-28.703-90.52-33.636-1.096-2.105-4.867-12.262-4.22-14.505 1.973-6.837 14.477-5.472 22.537-5.775l74.018 40.499c4.662-2.718 8.594-3.363 13.257-6.08l16.224 5.96 3.103 8.507-1.425 4.312-7.555.522-7.746 5.032Z"></path><path fill="#a3cdd8" fill-rule="evenodd" d="m151.043 240.476.978-17.602c6.673-3.787 38.025 3.482 42.357 10.133l-5.77 9.916c-6.766-4.466-29.413-5.235-37.565-2.447Z"></path><path fill="#f2c9a8" d="M440.046 127.294s-2.182 25.576-3.117 30.878c-3.743 3.12-18.403 8.42-18.403 8.42s19.026 14.817 27.915 21.834c6.862-8.109 24.951-21.21 24.951-21.21s-14.815-5.613-17.31-8.108c-.935-6.862-2.495-31.503-2.495-31.503Z"></path><path fill="#f5cf40" d="M395.89 168.378c11.848-2.322 26.38-3.968 26.38-3.968s26.042 28.772 44.445.702c5.431 1.87 18.86 5.556 25.42 12.085 7.486 12.789 14.097 157.99 14.658 167.801.62 10.848-6.549 33.685-24.327 36.492-9.402 1.484-55.256.574-76.415-2.495-8.856-1.284-26.823-6.028-26.823-23.704 0-15.637 8.793-170.386 16.663-186.913Z"></path><path fill="#22282a" d="m496.91 137.708-48.74 6.139-41.63-2.806-1.802-4.991-1.467 4.259-11.071-.984 3.934-25.732 98.055 5.278 2.721 18.837z"></path><path fill="url(#j)" fill-rule="evenodd" d="M438.453 147.621c-6.018-2.501-14.368-7.978-18.512-12.732-9.183-10.538-10.291-28.147-10.291-28.147l17.455-26.441 29.065-7.729 19.958 12.699s3.531 25.747 3.974 30.914c1.11 9.421-14.141 28.975-26.124 35.86-5.263-.502-10.563-2.36-15.525-4.424Z"></path><path fill="url(#k)" fill-rule="evenodd" d="M457.702 100.916c-2.25 9.327 3.983 15.436 3.378 15.918-4.306 3.432-11.99 3.103-11.99 3.103.527-7.057 2.633-14.256 8.612-19.02Z"></path><path fill="url(#l)" fill-rule="evenodd" d="M413.893 123.19a3.638 3.638 0 0 1-1.433.012c-2.841-.3-6.444-3.259-7.15-6.128-.98-3.98 1.764-6.573 4.588-6.154a4.27 4.27 0 0 1 3.197 2.17c.937 1.605 1.464 9.848.798 10.1Z"></path><path fill="#22282a" d="M432.329 103.769a31.992 31.992 0 0 1 9.096-1.638c2.787 1.17 5.288 4.825 5.288 4.825l-5.78-1.55Z"></path><path fill="#f04a4f" d="m450.903 104.693-.317-1.848c2.243-.347 6.728-1.045 8.215.017l-.288 1.499c-.608-.355-4.17-.202-7.61.332ZM427.001 104.968l-16.758 4.452.103-1.87 16.759-4.452-.104 1.87z"></path><path fill="#22282a" d="M475.709 103.607a12.113 12.113 0 0 0-8.285-1.926c-2.585.409-3.897 4.387-3.897 4.387l4.508-1.578Z"></path><path fill="#fff" d="M433.967 122.639s19.584 6.16 36.056-.624c-2.634 4.432-8.85 13.41-17.21 13.412-7.984 0-18.846-12.788-18.846-12.788Z"></path><path fill="#d8a572" d="m450.684 138.233 7.211.313-2.294 1.558-2.295.313-2.622-2.184z" opacity=".55"></path><path fill="#f2a378" d="M453.363 125.747a78.85 78.85 0 0 1-19.541-2.661l.29-.894c.218.062 21.775 6.256 35.685-.593l.451.831c-5.096 2.509-11.171 3.317-16.885 3.317Z"></path><path fill="#ffc7a6" d="M436.146 114.084c1.076 2.955-.916 6.292-4.448 7.452-3.53 1.16-7.263-.295-8.337-3.252-1.074-2.953.917-6.29 4.447-7.45 3.532-1.16 7.264.294 8.338 3.25ZM478.333 117.137a4.748 4.748 0 0 1-5.93 2.828 4.458 4.458 0 0 1-3.414-5.415 4.748 4.748 0 0 1 5.93-2.827 4.458 4.458 0 0 1 3.414 5.414Z" opacity=".71"></path><path fill="#f04a4f" d="M441.114 115.18c-14.205 0-16.49-15.807-16.511-15.972l-.134-.995 28.12-1.515.032.96c.022.69.429 16.907-10.433 17.493-.365.02-.724.03-1.074.03Zm-14.38-15.214c.717 3.367 3.865 13.913 15.342 13.318 7.628-.412 8.49-11.275 8.574-14.607Z"></path><path fill="#22282a" d="m431.273 94.943 11.8-7.486s.492 3.588 0 3.743l-11.8 3.743ZM477.912 92.568l-12.894-5.619s-1.347 3.838-.836 3.918c.512.08 13.73 1.701 13.73 1.701Z"></path><path fill="#22282a" d="M394.904 121.079s23.939 19.747 28.48 17.154c-8.759-10.44 2.105-51.54 2.105-51.54l10.08-.198 1.885-3.78-.164 3.627 7.375-.025 2.09-6.057 1.229 5.848 26.258-.585s1.858 14.036 3.933 20.351c2.142 6.52 1.755 14.036.325 18.185s15.755-4.732 15.755-4.732-4.771-29.984-15.342-45.968c-8.23-12.443-21.565-24.017-33.693-18.402-17.746-4.523-36.984 6.878-43.924 35.01-1.38 5.597-4.588 15.127-6.392 31.112Z"></path><path fill="#48484a" d="M412.015 67.433a21.366 21.366 0 0 0 3.885 2.807l11.976-4.366 6.96 4.678 11.896-3.041 5.342 2.807 6.797-4.21 9.468 2.572 4.125-3.67s6.38 6.481 7.638 10.245c-2.213 1.287-7.39.443-7.39.443l-9.341-.35-9.599 1.987s-8.132-.818-10.56-1.754c-4.613 1.404-9.347 2.456-9.347 2.456l-9.226-3.43-14.243 7.486-6.15-1.56s2.266-9.981 7.77-13.1Z"></path><path fill="#7ab84f" d="M419.198 77.462a3.925 3.925 0 0 1-1.935-.535c-2.846-1.62-9.848-6.348-10.145-6.548a.908.908 0 0 1-.232-1.305 1.015 1.015 0 0 1 1.371-.221c.072.048 7.235 4.886 10.015 6.468a1.381 1.381 0 0 0 1.71-.026.594.594 0 0 0 .2-.707c-1.82-3.144-6.24-10.029-6.286-10.098a.91.91 0 0 1 .327-1.287 1.013 1.013 0 0 1 1.352.31c.044.07 4.49 6.992 6.33 10.172a2.362 2.362 0 0 1-.557 2.956 3.137 3.137 0 0 1-2.15.82Z"></path><path fill="#f04a4f" d="M458.874 98.779c-.162 1.907-.282 6.842 2.279 10.165a8.214 8.214 0 0 0 5.887 3.364c3.097.365 4.057-.438 6.186-2.164 3.916-3.177 5.155-9.026 5.505-11.365Zm8.056 15.385a11.17 11.17 0 0 1-7.297-4.096c-3.704-4.815-2.598-12.064-2.55-12.37l.126-.79h23.616l-.076 1.004c-.028.372-.75 9.16-6.315 13.676a10.997 10.997 0 0 1-7.504 2.576Z"></path><path fill="#f5cf40" fill-rule="evenodd" d="M492.134 177.197s15.165 23.877 17.39 45.779 4.144 56.114 4.144 56.114l-16.437-1.19Z"></path><path fill="#30698c" fill-rule="evenodd" d="m513.053 353.835-29.674 2.298-1.718-5.132-38.993-5.988-2.433-12.653-67.567 1.3c-.868 12.462-11.202 29.423-8.115 40.817a22.706 22.706 0 0 0 11.494 14.712c10.33 5.635 27.916 5.466 42.945 3.833l54.982 3.593 40.593-6.374c6.716-2.033 13.681-9.018 13.395-17.732-.22-6.743-1.788-13.763-6.817-16.868a14.989 14.989 0 0 0-8.092-1.806Z"></path><path fill="#426e8f" fill-rule="evenodd" d="m547.706 545.844-4.278-101.418c.87-22.656-5.416-57.906-11.44-76.533-3.365-10.4-9.665-15.71-17.52-14.02-6.322 1.362-9.307 8.98-9.633 16.446-.738 16.917-.78 54.98 2.096 70.098l18.754 92.608ZM486.847 351.307c10.588 2.458 11.171 13.782 11.069 21.675l-.911 70.165-1.932 94.19-21.514.685c-5.526-44.455-9.943-55.386-15.664-100.266.502-8.082 1.672-20.474 3.58-33.662 1.391-9.618 3.176-19.66 5.38-28.763 3.133-12.939 5.785-27.321 19.992-24.024Z"></path><path fill="#f5cf40" fill-rule="evenodd" d="M447.954 344.504c-28.896 5.344-42.115 25.495-44.927 50.38-12.395.62-36.038-.147-42.876-12.118-4.479-7.838-4.573-17.988-1.119-31.924 1.287-5.195 20.54-43.192 22.484-48.807l56.096 19.545c1.827 5.736 7.421 18.465 10.342 22.924Z"></path><path fill="#e0e6d1" d="m497.156 531.501-25.875-1.15-10.073 21.844 32.498 7.664 3.45-28.358z"></path><path fill="#cdd6c4" d="m471.801 537.336 18.833 2.125-1.724 9.198-20.229-1.178 3.12-10.145z"></path><path fill="#a8a891" d="m494.856 561.393-32.633-.826-1.015-8.372h34.798l-1.15 9.198z"></path><path fill="#eb7870" d="m473.053 533.025 14.981 1.697-.322 6.926-16.431-1.536 1.772-7.087zM473.625 542.592l11.3 1.28-.243 5.224-12.393-1.158 1.336-5.346z"></path><path fill="#e0e6d1" d="m520.202 529.538 7.358 3.978 26.76-4.223 2.556 14.316s5.496 10.099 8.41 14.01c2.048 2.75-2.065 10.156-2.065 10.156l-48.74-7.315Z"></path><path fill="#a8a891" d="m564.927 568.024-30.716-4.488-19.339-2.826.096-4.634 13.332.206 36.64 7.678-.013 4.064z"></path><path fill="#eb7870" d="m555.042 532.303-18.963 6.525.639 3.579 19.269-.67-.945-9.434zM556.307 543.526l-10.015 4.927 1.29 3.094 11.709-.613-2.984-7.408z"></path><path fill="#f5cf40" fill-rule="evenodd" d="m408.181 198.324-8.697 91.442-16.182 8.061-9.017-15.805.59-6.713s-10.817-56.33 15.436-102.802c14.63-18.816 17.87 25.817 17.87 25.817Z"></path><path fill="#ffdeba" fill-rule="evenodd" d="m399.484 289.766 36.896 52.549a40.307 40.307 0 0 1 10.597-.08c4.974.708 13.281 2.706 13.281 2.706v1.442l-14.91 3.434-6.848 4.846s-7.037 3.77-8.214 0a26.092 26.092 0 0 0-4.487-7.616l-42.497-49.22Z"></path><path fill="#877d87" fill-rule="evenodd" d="M394.554 345.629c11.116-.961 20.174-1.738 28.983 2.203 11.565 5.174 9.755 14.573 7.383 22.62-3.71 12.584-7.858 28.365-9.866 33.967L368.69 557.962l-23.589 1.666 20.385-139.444 7.181-30.235-64.116 2.923c-21.01 2.48-24.281.146-45.423.907l6.473-37.348Z"></path><path fill="#4d4a4d" fill-rule="evenodd" d="M395.795 574.375s.158-7.687-3.295-10.904c-3.105-1.797-12.436-1.3-12.436-1.3l-10.939-4.536-23.066 1.993c-1.482 4.869-2.46 9.737-2.027 14.607ZM304.749 574.375h35.812l.381-6.794-9.233-9.647-23.929-.029-3.154 9.335.123 7.135z"></path><path fill="#877d87" fill-rule="evenodd" d="M236.75 329.895s-4.617 44.619 4.394 51.653 16.735 13.666 26.817 11.96 110.173-27.023 110.173-27.023l-19.874-36.286-45.989-8.088Z"></path><path fill="#969096" fill-rule="evenodd" d="M236.75 329.895s120.763 11.146 125.69 17.598c4.447 5.82.998 32.77.642 43.583l-6.4 40.306-24.3 126.404-25.922.23-1.818-122.469 3.908-42.675-45.898 4.016a29.887 29.887 0 0 1-31.972-35.314c3.083-16.35 6.07-31.68 6.07-31.68Z"></path><path fill="#ffdeba" fill-rule="evenodd" d="m513.668 279.09 2.984 74.491-12.91.975-2.638-44.545-2.254-31.994 14.818 1.073z"></path><path fill="#fff" d="m432.455 172.637 11.664 169.33 12.94 2.884v2.372L481.66 351l-21.583-178.31s-13.693 5.99-27.623-.054Z"></path><path fill="#f5b53b" fill-rule="evenodd" d="M396.374 279.161c1.289-3.454 8.93-50.583 8.93-50.583s3.124 13.944 1.655 18.219-7.475 42.97-7.475 42.97Z"></path><path fill="#f5b53b" d="M495.553 240.122h2v33.335h-2z" transform="rotate(-7.923 496.552 256.79)"></path></g></svg>