<svg width="15" height="15" viewBox="0 0 15 15" fill="none" xmlns="http://www.w3.org/2000/svg">
    <path
        d="M12.2508 5.73379L8.40859 5.73487L8.40859 1.89379C8.40967 1.15603 7.81018 0.556536 7.07242 0.557616C6.33142 0.555456 5.73517 1.15387 5.73517 1.89271L5.73409 5.73487L1.88976 5.73379C1.15092 5.73379 0.554668 6.33437 0.552508 7.07105C0.553588 7.8088 1.15308 8.4083 1.88976 8.4083L5.73517 8.4083L5.73409 12.244C5.73409 12.9828 6.33358 13.5823 7.07026 13.5802C7.44076 13.5812 7.77345 13.4322 8.01541 13.1902C8.25845 12.9472 8.40751 12.6145 8.40751 12.2451L8.40751 8.4083L12.2518 8.40722C12.6213 8.40722 12.9539 8.25815 13.1959 8.0162C13.4379 7.77424 13.5869 7.43938 13.588 7.07105C13.588 6.33221 12.9896 5.73379 12.2508 5.73379Z" fill="#FFFFFF"/>
</svg>
