<svg xmlns="http://www.w3.org/2000/svg" xmlns:xlink="http://www.w3.org/1999/xlink" viewBox="0 0 4680 3120" id="team-working-hard-to-achieve-success"><defs><clipPath id="j"><ellipse cx="2250.453" cy="2495.668" fill="#d4e8f4" rx="1587.746" ry="216.676"></ellipse></clipPath><clipPath id="k"><path fill="#f7ede2" d="M747.183,1353.7855c-43.1239-604.5272,467.7952-900.2841,1464.7652-903.9257s1471.0199,305.159,1587.5517,815.451-322.605,916.3356-1252.2873,913.5063S790.8824,1966.3816,747.183,1353.7855Z"></path></clipPath><clipPath id="l"><rect width="689.237" height="464.251" x="996.621" y="911.057" fill="#fff" opacity=".44" rx="72.885"></rect></clipPath><clipPath id="m"><path fill="#81a532" d="M3700.0655,2196.7518s-23.4785-129.6906-70.4355-309.6923-64.0798-280.9963,21.6252-289.1951,120.3637,223.2318,115.8916,330.562-29.0686,268.3254-29.0686,268.3254Z"></path></clipPath><clipPath id="n"><path fill="#81a532" d="M3724.6434,2168.3354c-.5823-7.6398,93.3316-377.4258,191.4381-438.6375s135.8397,49.4725,63.7272,135.8397-221.3684,313.6053-221.3684,313.6053Z"></path></clipPath><clipPath id="o"><path fill="#b5d781" d="M3694.3766,2179.1429s42.7644-374.6967,73.7895-508.9196,166.8649-110.7444,153.4486-27.7312-80.4072,231.4307-113.1546,326.1831-76.3502,210.4677-76.3502,210.4677Z"></path></clipPath><clipPath id="p"><path fill="#b5d781" d="M3676.2504,2177.0062s-116.6732-207.0374-179.5768-275.9769-17.0779-181.7949,79.8156-146.2948,137.0775,416.6776,137.0775,416.6776Z"></path></clipPath><clipPath id="q"><path fill="#65a6cc" d="M3612.7843,2196.7518l31.0251,183.6352s30.1866,17.6089,80.4976,18.4474,85.5287-18.4474,85.5287-18.4474l31.0252-183.6352Z"></path></clipPath><clipPath id="r"><path fill="#65a6cc" d="M3835.5877,2209.7672H3615.2158a24.53586,24.53586,0,0,1-24.5358-24.5358h0a24.5358,24.5358,0,0,1,24.5358-24.5358h220.3719a24.5358,24.5358,0,0,1,24.5358,24.5358h0A24.53586,24.53586,0,0,1,3835.5877,2209.7672Z"></path></clipPath><clipPath id="s"><circle cx="3484.003" cy="1107.37" r="258.54" fill="#bc9980"></circle></clipPath><clipPath id="t"><circle cx="3500.588" cy="1110.595" r="258.54" fill="#f7eae8"></circle></clipPath><clipPath id="u"><polygon fill="#7dcfe2" points="2612.939 1338.608 2625.318 1330.111 2983.17 1314.331 2983.17 1756.481 3670.829 1808.377 3670.829 2449.302 3206.523 2536.701 3129.037 2463.583 2532.823 1888.493 2504.918 1566.46 2612.939 1338.608"></polygon></clipPath><clipPath id="v"><polygon fill="#d7f6ff" points="1493.141 2376.47 1493.141 1547.081 2064.875 1566.46 2064.875 1303.811 2625.318 1330.111 2625.318 1820.611 3206.523 1853.897 3206.523 2536.701 1493.141 2376.47"></polygon></clipPath><clipPath id="z"><path fill="#f7b94b" d="M2533.2418,1114.556s21.2346,21.761,15.9698,52.9985-25.2708,49.4888-25.2708,49.4888h96.1695s-23.3404-28.4297-25.0953-51.2437,5.7912-43.522,15.0923-49.8397Z"></path></clipPath><clipPath id="A"><path fill="#d8952a" d="M2614.2616,1117.0129h-82.5054a11.056,11.056,0,0,1-11.0559-11.056h0a11.05593,11.05593,0,0,1,11.0559-11.056h82.5054a11.056,11.056,0,0,1,11.056,11.056h0A11.056,11.056,0,0,1,2614.2616,1117.0129Z"></path></clipPath><clipPath id="B"><path fill="#f7b94b" d="M2452.2705,826.0473c1.7549,5.0892,8.0726,6.3177,11.2315,63.177s-4.9138,140.0426,13.6883,174.439,56.6346,43.6104,91.9241,43.7057c36.7236.0993,85.6738-5.7994,100.7661-43.3547s10.1785-117.5796,11.5824-158.6447,4.8261-62.5629,15.6188-79.3223Z"></path></clipPath><clipPath id="C"><path fill="#d8952a" d="M2701.2935,831.1365H2450.691a8.95,8.95,0,0,1-8.95-8.9501h0a8.95,8.95,0,0,1,8.95-8.9501h250.6025a8.9501,8.9501,0,0,1,8.9501,8.9501h0A8.9501,8.9501,0,0,1,2701.2935,831.1365Z"></path></clipPath><clipPath id="D"><path fill="#d8952a" d="M2629.8683,1237.7513H2516.1495a11.23146,11.23146,0,0,1-11.2314-11.2315h0a11.23144,11.23144,0,0,1,11.2314-11.2314h113.7188a11.23146,11.23146,0,0,1,11.2315,11.2314h0A11.23148,11.23148,0,0,1,2629.8683,1237.7513Z"></path></clipPath><clipPath id="E"><rect width="165.664" height="65.985" x="2490.177" y="1237.751" fill="#d8952a" rx="11.232"></rect></clipPath><clipPath id="F"><path fill="#f65e51" d="M3269.4356,1241.5578s-5.9464-23.5868-20.0309-34.5409-106.5305-56.3657-164.8809,37.8781-92.1715,123.093-137.0103,152.4553-122.3372,80.5651-103.8257,196.2717,179.4906,131.3463,257.506,63.0678,123.956-262.0802,135.7693-301.3306S3269.4356,1241.5578,3269.4356,1241.5578Z"></path></clipPath><clipPath id="G"><path fill="#ffb6b0" d="M3077.7236,1417.3957l-2.1234-.3497s-8.0565,2.0441-18.0878,35.4051-57.3839,236.6875-75.5453,288.2365-26.3989,48.7646-54.8025,63.6366-24.5653,63.5492-.7955,61.8906,30.7106-32.2818,49.9698-34.9507,33.7693-10.9343,33.9165-31.6453,36.9317-108.6577,46.2905-142.3125c9.2359-33.2124,31.4637-118.6553,31.4637-118.6553s11.8716-11.3745,13.0967-27.9648S3090.103,1431.3436,3077.7236,1417.3957Z"></path></clipPath><clipPath id="H"><path fill="#5abfcb" d="M3360.5416,1548.3762l102.0044-27.3377c4.7554-1.2745,9.0698-7.5563,9.9493-14.4861l26.1528-206.081c.6233-4.9114-1.7453-8.3673-5.1156-7.464l-105.7973,28.3543c-4.7554,1.2744-9.0698,7.5562-9.9493,14.486l-25.4513,200.5539C3351.3346,1544.281,3355.1345,1549.8253,3360.5416,1548.3762Z"></path></clipPath><clipPath id="I"><path fill="#073e4f" d="M3483.2359,2132.7801l2.1181,3.6293a258.59283,258.59283,0,0,0,19.2885,30.5634c12.4762,17.2228,53.3004,73.2994,33.2973,96.7908-16.2548,19.0895-56.5089,6.5351-81.5992-18.7262-11.3788-11.4564-57.856-64.6284-58.153-81.6549s22.6136-39.8258,29.4603-38.4284Z"></path></clipPath><clipPath id="J"><path fill="#0a4861" d="M3432.598,2155.3309l2.1181,3.6293a258.59283,258.59283,0,0,0,19.2885,30.5634c12.4762,17.2227,53.3004,73.2994,33.2973,96.7908-16.2548,19.0895-56.5089,6.5351-81.5992-18.7262-11.3788-11.4564-57.856-64.6284-58.153-81.6549s22.6136-39.8258,29.4603-38.4284Z"></path></clipPath><clipPath id="K"><path fill="#f7b94b" d="M3102.3553,1626.5281l-8.9601,7.1264s-3.3544,14.0036-17.0504,45.3732-65.9846,93.038-28.0137,160.8414,121.9687,163.877,149.2944,168.0375,85.6126-11.0417,132.7384-56.2664,26.7211-124.7675,70.482-158.2504,107.2017-40.9201,107.2017-40.9201l-257.8233-58.1524s-26.9465-12.052-21.9215-47.9771l-6.5206-5.1629Z"></path></clipPath><clipPath id="L"><path fill="#4cbde5" d="M3165.2401,1399.4642l-3.8702,2.4204s-76.3051,4.6736-85.7697,15.1614c-4.8425,5.3661,30.775,63.4321,12.4094,121.605,0,0,2.2301,62.6635,5.3856,95.0035,0,0,28.8663,20.1317,59.3131,22.2689s75.5945-9.5832,75.5945-9.5832,9.3392-22.7356,27.9806-52.9703,28.6525-47.1659,22.3052-85.5795c-6.1172-37.0209-7.9349-59.8302-3.4719-79.4559.1679-.7384.2444-1.2521,1.2572-5.727,4.4353-19.5976-67.0587-18.5592-67.0587-18.5592Z"></path></clipPath><clipPath id="M"><path fill="#ffb6b0" d="M3270.263,1279.066s8.1297,100.646-24.784,103.7223c-13.2492,1.2384-36.7366-8.2692-36.7366-8.2692l.5728,29.5292s-6.3999,7.0602-24.446,7.9591-23.4993-10.1228-23.4993-10.1228,12.048-52.8775,8.4403-63.935-9.1602-14.343-5.6242-30.1299,22.7117-7.3266,22.7117-7.3266,11.8133-16.0971,13.1816-25.3052S3257.9883,1289.3838,3270.263,1279.066Z"></path></clipPath><clipPath id="N"><path fill="#e8453d" d="M3246.241,1215.4264c-10.9372.3167-52.5135,10.299-59.7874,65.5979,0,0,69.3017,18.4475,105.3501,1.531C3291.8037,1282.5553,3293.2197,1214.066,3246.241,1215.4264Z"></path></clipPath><clipPath id="O"><path fill="#43555f" d="M2128.8581,2417.5844s10.037,46.4813,14.7615,46.9729,101.1446-9.535,117.4688,7.9913,28.9319,45.8546,15.2289,51.6607-185.1885,61.9197-197.1266,58.631-21.5789-74.5623-9.5863-84.9127l-13.7386-52.8701Z"></path></clipPath><clipPath id="P"><path fill="#bf6c21" d="M2121.4374,1603.5362c6.2554,1.8208,21.1253,9.4075,21.1253,9.4075s66.4596,2.1243,137.4712,2.4277,176.3151,2.9925,159.0174,113.0209-98.8755,312.1383-98.8755,312.1383-99.5928,4.552-99.5928,0,31.8642-146.5752,32.7746-196.6475-62.818-68.2804-142.9336-30.9538-34.5954,235.7949-20.9393,318.6418,50.0723,257.6446,50.0723,257.6446l-116.5319,53.7139s-84.6677-308.6273-107.4278-394.2054-84.7907-215.8232-89.2812-321.4016Z"></path></clipPath><clipPath id="Q"><path fill="#7a3c4e" d="M2017.949,997.971s23.8386-9.6588,31.2368-43.9782-23.4276-62.0627-43.9782-69.8719-46.2387,1.4385-53.2259,18.0845c0,0-63.0902-11.5084-102.9583,31.2368s-16.8515,112.6171,17.6735,141.7989,63.7067,27.1267,63.7067,27.1267,29.5928-10.6863,29.5928-11.9193S2017.949,997.971,2017.949,997.971Z"></path></clipPath><clipPath id="R"><path fill="#ffb6b0" d="M2033.1561,960.4975s11.3894,70.1956,15.1084,98.0879-5.5785,56.7143-56.2495,50.2061v50.206s-26.0327,28.3572-59.5035,0l-3.2541-56.7142s19.9895-13.4813,17.2003-28.8221-18.5949-12.0866-17.2003-34.4004,14.8759-17.2003,14.8759-17.2003,13.4813-33.0058,39.9789-37.1897S2024.556,973.5139,2033.1561,960.4975Z"></path></clipPath><clipPath id="S"><path fill="#55aee5" d="M1978.3863,1135.588l6.7775,4.3497s59.0752,1.7196,93.0636,5.6647,50.3758,31.5607,66.7631,62.211,83.1503,155.0724,101.3584,156.8932,174.1908,17.6011,174.1908,17.6011-4.2485,46.1272,0,59.4798c0,0-219.1041,11.5318-228.2082,4.8555s-88.6127-118.9596-88.6127-118.9596,6.0693,231.8499,38.8439,285.2603c0,0-35.2023,58.2659-114.1041,91.0405s-185.7226,23.0636-185.7226,23.0636-18.2081-71.6186-19.422-189.3643-2.97-256.1273,6.4052-324.1042,68.855-77.2832,103.6527-73.6416Z"></path></clipPath><clipPath id="T"><path fill="#43555f" d="M2331.5601,2049.3764s-10.0581,46.4767-5.9584,48.8758,96.0518,33.0937,103.6792,55.7977,7.4086,53.7105-7.469,53.3382-194.2288-20.1003-203.7426-28.0263,11.1455-76.8178,26.3425-81.2905l9.3258-53.824Z"></path></clipPath><clipPath id="U"><path fill="#0a4861" d="M1297.0688,1204.919s43.8742-2.7945,62.3181,40.2413-17.0467,192.2636-43.8742,260.1707-98.088,187.7924-170.1869,181.0856-129.1073-30.181-135.8141-119.047,72.0989-92.6857,98.9263-136.4665,41.9858-118.3793,60.2687-170.9318c19.2823-55.4249,86.4442-87.9346,129.2936-56.6358"></path></clipPath><clipPath id="V"><path fill="#f65e51" d="M1016.1023,2402.2634s-7.1603,11.5666-25.6118,20.6546-49.0204,29.192-45.4403,53.9776,63.0656,80.9663,80.4155,99.6932,61.1379,24.2348,69.6751,0-51.7744-94.1853-50.6728-107.4043,11.842-29.7427,11.842-29.7427Z"></path></clipPath><clipPath id="W"><path fill="#f65e51" d="M1275.4682,2463.5828s1.9417,13.4643-6.3627,32.2815-18.8202,53.8607-.1559,70.5576,100.3422,21.5468,125.6685,24.7554,62.4246-20.6959,53.4013-44.7539-100.1791-38.9309-107.8257-49.77-10.0283-30.4022-10.0283-30.4022Z"></path></clipPath><clipPath id="X"><path fill="#044170" d="M1190.0767,1697.1056l-6.0693,3.6416s-17.7024,55.737-40.4625,116.7341-6.3728,207.5724-6.3728,246.7198-47.3411,111.0694-68.2804,165.6937-64.6387,169.3354-64.6387,169.3354,6.9797,43.0925,52.5,51.8931l205.7383-342.919s6.6895,100.7512,10.3311,148.0923-3.2906,220.5274-3.2906,220.5274,47.9005,14.964,66.1086-3.851c0,0,45.5202-296.7921,44.6098-402.3991s-19.4219-369.8267-19.4219-369.8267l-7.8902-11.633Z"></path></clipPath><clipPath id="Y"><path fill="#064c8c" d="M1385.7127,1832.4744s-100.0134-8.9237-109.2486,66.9434-4.2751,155.3763-13.9728,208.7865-162.5061,378.7282-162.5061,378.7282l-79.6199-4.5362s-106.2424-38.2639-106.2424-64.8119,67.9769-303.311,84.9711-344.5827,130.5474-410.576,142.9616-415.2881,130.9972,0,130.9972,0,103.4095,36.862,107.1974,36.862,74.0463,52.011,74.0463,52.011Z"></path></clipPath><clipPath id="Z"><path fill="#ffb6b0" d="M1092.2588,1592.0044s-26.9145,104.3241-16.7114,121.7746,200.905,132.103,219.1248,138.2977,82.1846,4.0228,100.4043-2.1719,26.2683-29.5164-1.7901-38.6263-93.8093-1.0804-93.8093-1.0804-156.3554-119.6446-159.6349-127.2969,11.7952-70.3621,11.7952-70.3621Z"></path></clipPath><clipPath id="aa"><path fill="#f7b94b" d="M1248.0898,1415.5375l-4.6559,3.4445s-75.0046,5.8113-106.5653,43.4414-57.052,135.3469-57.052,135.3469,36.5679,32.1676,84.1366,26.7052c0,0,21.875,43.0925,20.0542,76.2717,0,0,76.0694,37.4278,176.8209,0,0,0,1.6185-49.7688,8.9017-67.5723s13.7572-39.6532,13.7572-39.6532,28.3237.5002,61.0983-27.0621c0,0-42.4855-90.9871-54.6243-105.5536s-60.6889-43.5722-98.7283-40.867Z"></path></clipPath><clipPath id="ab"><path fill="#ffb6b0" d="M1335.6334,1284.5631s-3.3535,71.54-8.9425,92.7784-36.7015,14.0658-36.7015,14.0658l-2.7946,29.6221s-1.1027,34.5256-16.1932,32.2899-27.9603-34.0598-27.9603-34.0598l1.4904-36.7015s1.4904-21.2384-7.4521-30.3672-12.6686-14.9042-9.6877-24.7782,15.2767-9.5014,17.5124-3.9123c0,0,11.9233-17.1398,14.9041-25.3371S1323.3374,1294.6234,1335.6334,1284.5631Z"></path></clipPath><clipPath id="ac"><rect width="275.295" height="74.025" x="1297.379" y="1599.483" fill="#4884c1" rx="11.793"></rect></clipPath><clipPath id="ad"><path fill="#fff" d="M1569.8656,1611.8206H1321.0865a9.43454,9.43454,0,0,0-9.4345,9.4345v30.239a9.43454,9.43454,0,0,0,9.4345,9.4345h246.0978a9.43455,9.43455,0,0,0,9.3977-8.6012l2.6813-30.239A9.43456,9.43456,0,0,0,1569.8656,1611.8206Z"></path></clipPath><clipPath id="ae"><rect width="275.295" height="74.025" x="1280.687" y="1672.562" fill="#ba8d88" rx="11.793"></rect></clipPath><clipPath id="af"><path fill="#fff" d="M1553.1737,1684.8992H1304.3946a9.43454,9.43454,0,0,0-9.4345,9.4345v30.239a9.43454,9.43454,0,0,0,9.4345,9.4345h246.0978a9.43455,9.43455,0,0,0,9.3977-8.6012l2.6813-30.239A9.43456,9.43456,0,0,0,1553.1737,1684.8992Z"></path></clipPath><clipPath id="ag"><rect width="275.295" height="74.025" x="1297.379" y="1746.587" fill="#b74f4f" rx="11.793"></rect></clipPath><clipPath id="ah"><path fill="#fff" d="M1569.8656,1758.9241H1321.0865a9.43454,9.43454,0,0,0-9.4345,9.4345v30.239a9.43454,9.43454,0,0,0,9.4345,9.4345h246.0978a9.43455,9.43455,0,0,0,9.3977-8.6012l2.6813-30.239A9.43456,9.43456,0,0,0,1569.8656,1758.9241Z"></path></clipPath><linearGradient id="c" x1="2046.891" x2="2050.488" y1="980.743" y2="732.505" gradientUnits="userSpaceOnUse"><stop offset="0"></stop><stop offset=".268" stop-color="#060606"></stop><stop offset=".614" stop-color="#161616"></stop><stop offset="1" stop-color="#303030"></stop></linearGradient><linearGradient id="h" x1="2637.867" x2="2641.465" y1="989.308" y2="741.07" xlink:href="#c"></linearGradient><linearGradient id="i" x1="2046.891" x2="2050.488" y1="980.743" y2="732.505" gradientUnits="userSpaceOnUse"><stop offset="0" stop-color="#fff"></stop><stop offset=".101" stop-color="#fffdf9"></stop><stop offset=".232" stop-color="#fff6e9"></stop><stop offset=".38" stop-color="#ffeacf"></stop><stop offset=".539" stop-color="#ffdaa9"></stop><stop offset=".707" stop-color="#ffc67a"></stop><stop offset=".881" stop-color="#ffad41"></stop><stop offset="1" stop-color="#ff9a15"></stop></linearGradient><linearGradient id="y" x1="2637.867" x2="2641.465" y1="989.308" y2="741.07" xlink:href="#i"></linearGradient><filter id="a" width="454.122" height="32766" x="1821.037" y="-9752" color-interpolation-filters="sRGB" filterUnits="userSpaceOnUse"><feFlood flood-color="#fff" result="bg"></feFlood><feBlend in="SourceGraphic" in2="bg"></feBlend></filter><filter id="b" width="454.122" height="32766" x="2412.138" y="-9752" color-interpolation-filters="sRGB" filterUnits="userSpaceOnUse"><feFlood flood-color="#fff" result="bg"></feFlood><feBlend in="SourceGraphic" in2="bg"></feBlend></filter><filter id="e" width="454.122" height="231.178" x="1821.037" y="666.768" color-interpolation-filters="sRGB" filterUnits="userSpaceOnUse"><feFlood flood-color="#fff" result="bg"></feFlood><feBlend in="SourceGraphic" in2="bg"></feBlend></filter><filter id="g" width="454.122" height="231.178" x="2412.138" y="666.768" color-interpolation-filters="sRGB" filterUnits="userSpaceOnUse"><feFlood flood-color="#fff" result="bg"></feFlood><feBlend in="SourceGraphic" in2="bg"></feBlend></filter><mask id="w" width="454.122" height="231.178" x="1821.037" y="666.768" maskUnits="userSpaceOnUse"><g filter="url(#e)" mask="url(#d)"><path d="M1880.1248,666.7677l-16.165,6.6473-42.9224,224.3979s447.1842-6.4459,453.6301,0S2222.105,673.415,2222.105,673.415l-23.1768-4.4315Z" style="mix-blend-mode:multiply" fill="url(#c)"></path></g></mask><mask id="x" width="454.122" height="231.178" x="2412.138" y="666.768" maskUnits="userSpaceOnUse"><g filter="url(#g)" mask="url(#f)"><path d="M2471.225,666.7677l-16.165,6.6473-42.9224,224.3979s447.1841-6.4459,453.63,0-52.5624-224.3979-52.5624-224.3979l-23.1769-4.4315Z" style="mix-blend-mode:multiply" fill="url(#h)"></path></g></mask></defs><ellipse cx="2250.453" cy="2495.668" fill="#d4e8f4" rx="1587.746" ry="216.676"></ellipse><g clip-path="url(#j)"><rect width="3287.169" height="21.429" x="616.724" y="2487.337" fill="#fff"></rect><polygon fill="#fff" points="1294.672 2220.599 726.579 2726.066 755.712 2726.066 1309.846 2225.454 1294.672 2220.599"></polygon><polygon fill="#fff" points="1776.58 2220.599 1208.487 2726.066 1237.62 2726.066 1791.753 2225.454 1776.58 2220.599"></polygon><polygon fill="#fff" points="2258.488 2220.599 1690.395 2726.066 1719.528 2726.066 2273.661 2225.454 2258.488 2220.599"></polygon><polygon fill="#fff" points="2740.395 2220.599 2172.303 2726.066 2201.436 2726.066 2755.569 2225.454 2740.395 2220.599"></polygon><polygon fill="#fff" points="3222.303 2220.599 2654.21 2726.066 2683.343 2726.066 3237.477 2225.454 3222.303 2220.599"></polygon><polygon fill="#fff" points="3704.211 2220.599 3136.118 2726.066 3165.251 2726.066 3719.384 2225.454 3704.211 2220.599"></polygon></g><polygon fill="#365f87" points="1504.373 2349.158 1493.141 2376.47 1473.111 2387.159 3217.851 2564.014 3713.567 2463.583 3612.784 2417.584 1504.373 2349.158" opacity=".52"></polygon><path fill="#f7ede2" d="M747.183,1353.7855c-43.1239-604.5272,467.7952-900.2841,1464.7652-903.9257s1471.0199,305.159,1587.5517,815.451-322.605,916.3356-1252.2873,913.5063S790.8824,1966.3816,747.183,1353.7855Z"></path><g clip-path="url(#k)"><rect width="3304.163" height="113.036" x="628.863" y="1453.423" fill="#f7ede2"></rect><g opacity=".48"><rect width="3304.163" height="113.036" x="628.863" y="1436.42" fill="#e2bf7f" transform="rotate(-.39 2280.919 1492.92)"></rect></g></g><polyline fill="none" stroke="#af7e79" stroke-linejoin="round" stroke-width="20" points="1095.013 893.965 1341.239 810.216 1560.76 893.965"></polyline><rect width="759.509" height="517.236" x="973.727" y="895.121" fill="#bc908b" rx="80.758"></rect><path fill="#ccada8" d="M1042.2423,884.5644h597.9936a80.758,80.758,0,0,1,80.758,80.758v355.7195a80.758,80.758,0,0,1-80.758,80.758H1042.2424a80.758,80.758,0,0,1-80.758-80.758V965.3223a80.7579,80.7579,0,0,1,80.7579-80.7579Z"></path><rect width="689.237" height="464.251" x="996.621" y="911.057" fill="#fff" opacity=".44" rx="72.885"></rect><g clip-path="url(#l)"><rect width="689.237" height="464.251" x="1012.323" y="911.057" fill="#fff" opacity=".68" rx="72.885"></rect></g><rect width="229.155" height="292.429" x="1242.363" y="1024.827" fill="#ccada8" transform="rotate(-7.326 1356.942 1171.043)"></rect><rect width="229.155" height="292.429" x="1235.742" y="1019.763" fill="#fff" transform="rotate(-7.326 1350.281 1165.949)"></rect><rect width="199.972" height="34.611" x="1236.364" y="1040.014" fill="#8bcbef" transform="rotate(-7.326 1336.35 1057.32)"></rect><rect width="199.972" height="34.611" x="1248.837" y="1137.032" fill="#8bcbef" transform="rotate(-7.326 1348.823 1154.338)"></rect><rect width="199.972" height="34.611" x="1267.595" y="1246.112" fill="#8bcbef" transform="rotate(-7.326 1367.582 1263.418)"></rect><circle cx="1327.886" cy="1017.922" r="14.508" fill="#f77f7f" transform="rotate(-7.706 1327.887 1017.922)"></circle><path fill="#ccada8" d="M1037.9543,936.8866l200.8266,44.011-44.8655,190.1444-196.9811-46.1474S1039.6634,1030.4633,1037.9543,936.8866Z"></path><path fill="#fff" d="M1032.2011,928.1481l200.8267,44.0109-44.8656,190.1445-196.981-46.1475S1033.9102,1021.7248,1032.2011,928.1481Z"></path><circle cx="1132.073" cy="950.035" r="14.215" fill="#f77f7f" transform="rotate(-45 1132.073 950.035)"></circle><polygon fill="#ccada8" points="1056.343 1217.21 1154.406 1206.314 1172.352 1277.458 1074.93 1287.072 1056.343 1217.21"></polygon><polygon fill="#ccada8" points="1522.41 1173.199 1620.474 1162.303 1638.42 1233.447 1540.998 1243.061 1522.41 1173.199"></polygon><polygon fill="#f7cc89" points="1509.485 975.577 1495.384 1069.154 1646.004 1097.996 1665.446 997.602 1509.485 975.577"></polygon><line x1="1045.443" x2="1207.875" y1="960.526" y2="996.363" fill="none" stroke="#f77f7f" stroke-linecap="round" stroke-linejoin="round" stroke-width="10" opacity=".41"></line><line x1="1036.094" x2="1195.67" y1="1006.231" y2="1042.457" fill="none" stroke="#f77f7f" stroke-linecap="round" stroke-linejoin="round" stroke-width="10" opacity=".41"></line><line x1="1026.745" x2="1183.465" y1="1051.935" y2="1088.551" fill="none" stroke="#f77f7f" stroke-linecap="round" stroke-linejoin="round" stroke-width="10" opacity=".41"></line><line x1="1017.397" x2="1171.26" y1="1097.64" y2="1134.645" fill="none" stroke="#f77f7f" stroke-linecap="round" stroke-linejoin="round" stroke-width="10" opacity=".41"></line><ellipse cx="3725.453" cy="2387.159" fill="#507199" opacity=".31" rx="112.668" ry="28.446"></ellipse><path fill="#81a532" d="M3700.0655,2196.7518s-23.4785-129.6906-70.4355-309.6923-64.0798-280.9963,21.6252-289.1951,120.3637,223.2318,115.8916,330.562-29.0686,268.3254-29.0686,268.3254Z"></path><g clip-path="url(#m)"><path fill="none" stroke="#779b31" stroke-linecap="round" stroke-linejoin="round" stroke-width="11" d="M3655.3245,1681.1736s52.5471,129.5809,63.7273,499.6464"></path><path fill="#779b31" d="M3679.104,1579.3238s28.9776,83.2927,34.4627,207.9522-47.621,150.9331-47.621,150.9331l36.018,176.8119,70.7532-384.7641-64.2863-126.8363Z"></path></g><path fill="#81a532" d="M3724.6434,2168.3354c-.5823-7.6398,93.3316-377.4258,191.4381-438.6375s135.8397,49.4725,63.7272,135.8397-221.3684,313.6053-221.3684,313.6053Z"></path><g clip-path="url(#n)"><path fill="none" stroke="#779b31" stroke-linecap="round" stroke-linejoin="round" stroke-width="11" d="M3952.1595,1770.7852s-191.1819,302.7046-217.1759,419.2585"></path><path fill="#779b31" d="M4027.626,1740.5986c-2.5156-.8385-142.5568,326.5798-254.9091,298.512l-59.1502,132.3015,38.1872,47.1411,89.107-29.3481,195.1503-319.4749,7.0577-70.6667Z"></path></g><path fill="#b5d781" d="M3694.3766,2179.1429s42.7644-374.6967,73.7895-508.9196,166.8649-110.7444,153.4486-27.7312-80.4072,231.4307-113.1546,326.1831-76.3502,210.4677-76.3502,210.4677Z"></path><g clip-path="url(#o)"><path fill="#94ba52" d="M3919.7368,1683.859s-79.9386,219.91-144.7839,261.7265-66.5223,30.0773-66.5223,30.0773l-24.5965,201.3434,103.9761-9.0435,13.8284-179.6899Z" opacity=".54"></path><path fill="none" stroke="#94ba52" stroke-linecap="round" stroke-linejoin="round" stroke-width="11" d="M3854.3325,1643.0511s-112.9203,400.2521-148.697,560.1293"></path></g><path fill="#b5d781" d="M3676.2504,2177.0062s-116.6732-207.0374-179.5768-275.9769-17.0779-181.7949,79.8156-146.2948,137.0775,416.6776,137.0775,416.6776Z"></path><g clip-path="url(#p)"><path fill="#94ba52" d="M3612.7843,1762.4013s69.3727,182.5159,6.7635,269.7217-67.6392,72.6714-67.6392,72.6714,95.5897,73.6682,98.9438,80.437,117.0767-1.1787,116.6755,0-128.9737-373.6582-128.9737-373.6582Z" opacity=".54"></path><path fill="none" stroke="#94ba52" stroke-linecap="round" stroke-linejoin="round" stroke-width="11" d="M3551.9086,1821.9347c-1.6782,4.4721,104.3766,196.6506,142.468,363.2967"></path></g><path fill="#65a6cc" d="M3612.7843,2196.7518l31.0251,183.6352s30.1866,17.6089,80.4976,18.4474,85.5287-18.4474,85.5287-18.4474l31.0252-183.6352Z"></path><g clip-path="url(#q)"><path fill="#428db2" d="M3789.4872,2179.1429c1.677,1.1181,36.0201,64.5924-21.9593,118.6635s-160.8374,26.6795-160.8374,26.6795l6.0938,95.5909h191.2372l110.6842-115.7153-8.3851-131.9267Z"></path></g><path fill="#65a6cc" d="M3835.5877,2209.7672H3615.2158a24.53586,24.53586,0,0,1-24.5358-24.5358h0a24.5358,24.5358,0,0,1,24.5358-24.5358h220.3719a24.5358,24.5358,0,0,1,24.5358,24.5358h0A24.53586,24.53586,0,0,1,3835.5877,2209.7672Z"></path><g clip-path="url(#r)"><rect width="340.438" height="31.305" x="3569.237" y="2188.087" fill="#428db2"></rect></g><circle cx="3484.003" cy="1107.37" r="311.306" fill="#c9ad99"></circle><circle cx="3484.003" cy="1107.37" r="258.54" fill="#bc9980"></circle><g clip-path="url(#s)"><circle cx="3500.588" cy="1110.595" r="258.54" fill="#f7eae8"></circle><g clip-path="url(#t)"><path fill="#fff" d="M3501.0018 1342.203h0a7.60128 7.60128 0 01-7.6013-7.6013v-38.6973a7.60126 7.60126 0 017.6013-7.6012h0a7.60123 7.60123 0 017.6012 7.6012v38.6973A7.60126 7.60126 0 013501.0018 1342.203zM3501.0018 931.8746h0a7.60128 7.60128 0 01-7.6013-7.6013V885.576a7.60126 7.60126 0 017.6013-7.6012h0a7.60123 7.60123 0 017.6012 7.6012v38.6973A7.60126 7.60126 0 013501.0018 931.8746zM3268.8877 1110.0889h0a7.60126 7.60126 0 017.6012-7.6013h38.6973a7.60128 7.60128 0 017.6013 7.6013h0a7.60126 7.60126 0 01-7.6013 7.6012h-38.6973A7.60123 7.60123 0 013268.8877 1110.0889zM3679.216 1110.0889h0a7.60128 7.60128 0 017.6013-7.6013h38.6973a7.60128 7.60128 0 017.6013 7.6013h0a7.60126 7.60126 0 01-7.6013 7.6012h-38.6973A7.60126 7.60126 0 013679.216 1110.0889z"></path></g></g><polygon fill="#b79898" points="3503.21 906.974 3486.626 933.232 3499.755 1108.061 3518.421 932.642 3503.21 906.974" opacity=".55"></polygon><polygon fill="#b79898" points="3663.037 1110.586 3636.349 1094.702 3499.648 1112.452 3637.78 1126.47 3663.037 1110.586" opacity=".55"></polygon><circle cx="3499.649" cy="1111.286" r="16.585" fill="#fff" transform="rotate(-45 3499.649 1111.286)"></circle><polygon fill="#fff" points="2973.459 1332.235 2983.17 1314.331 2389.75 1280.342 2064.875 1303.811 2190.308 1339.174 2723.098 1398.942 2973.459 1332.235"></polygon><polygon fill="#7dcfe2" points="2612.939 1338.608 2625.318 1330.111 2983.17 1314.331 2983.17 1756.481 3670.829 1808.377 3670.829 2449.302 3206.523 2536.701 3129.037 2463.583 2532.823 1888.493 2504.918 1566.46 2612.939 1338.608"></polygon><g clip-path="url(#u)"><path fill="#52bfd1" d="M2992.2741,1288.7255s-124.422,201.01-188.7573,281.1257-223.3527,155.3758-223.3527,155.3758l-13.3526,123.8151,348.3816-20.6359,262.6265-152.4739s-175.8345-371.6146-177.6553-371.4635"></path><polyline fill="#fff" points="3692.679 1801.701 3689.688 1802.615 3670.829 1808.377 3206.523 1853.897 3087.874 1905.487 2625.318 1820.611 2983.17 1756.481 3156.147 1730.689"></polyline><path fill="#52bfd1" d="M3114.8753,2023.2329s148.0216,18.7957,184.5088,21.0144-7.9798,214.8339,61.3112,260.6042,215.9388,15.1734,221.1578,138.0781,0,135.0434,0,135.0434l160.5948-77.6911,91.0405-227.2751-80.1157-406.7506-92.2544-116.2594-422.4279,27.099Z"></path></g><polygon fill="#d7f6ff" points="1493.141 2376.47 1493.141 1547.081 2064.875 1566.46 2064.875 1303.811 2625.318 1330.111 2625.318 1820.611 3206.523 1853.897 3206.523 2536.701 1493.141 2376.47"></polygon><g clip-path="url(#v)"><rect width="23.064" height="682.736" x="2625.988" y="1817.546" fill="#365f87" opacity=".52"></rect><rect width="23.064" height="1001.038" x="1963.851" y="1499.244" fill="#365f87" opacity=".52"></rect></g><rect width="10.34" height="165.042" x="2035.229" y="407.656" fill="#8799a3"></rect><path fill="#5897c6" d="M2026.0976,567.0577h28.6037a13.2946,13.2946,0,0,1,13.2946,13.2946v32.6324a13.2947,13.2947,0,0,1-13.2947,13.2947h-28.6036a13.2947,13.2947,0,0,1-13.2947-13.2947V580.3524a13.2947,13.2947,0,0,1,13.2947-13.2947Z"></path><g mask="url(#w)"><path fill="url(#i)" d="M1880.1248,666.7677l-16.165,6.6473-42.9224,224.3979s447.1842-6.4459,453.6301,0S2222.105,673.415,2222.105,673.415l-23.1768-4.4315Z"></path></g><g mask="url(#x)"><path fill="url(#y)" d="M2471.225,666.7677l-16.165,6.6473-42.9224,224.3979s447.1841-6.4459,453.63,0-52.5624-224.3979-52.5624-224.3979l-23.1769-4.4315Z"></path></g><path fill="#fff" d="M1991.048,668.9835s11.6781,32.2295,48.1402,32.2295,43.7138-24.1721,43.7138-32.2295Z"></path><rect width="358.145" height="13.295" x="1858.723" y="660.12" fill="#3680ad"></rect><path fill="#5897c6" d="M2039.0835,610.8902l-176.585,43.3042c-6.2662,1.5367-5.1517,10.7604,1.3001,10.7604h349c6.4337,0,7.5697-9.1858,1.3298-10.753l-172.415-43.3042A5.45819,5.45819,0,0,0,2039.0835,610.8902Z"></path><rect width="10.34" height="165.042" x="2626.329" y="407.656" fill="#8799a3"></rect><rect width="55.193" height="59.222" x="2603.903" y="567.058" fill="#5897c6" rx="13.295"></rect><path fill="#fff" d="M2582.1481,668.9835s11.6782,32.2295,48.1403,32.2295,43.7138-24.1721,43.7138-32.2295Z"></path><rect width="358.145" height="13.295" x="2449.823" y="660.12" fill="#3680ad"></rect><path fill="#5897c6" d="M2630.1837,610.8902l-176.585,43.3042c-6.2662,1.5367-5.1517,10.7604,1.3001,10.7604h349c6.4337,0,7.5696-9.1858,1.3297-10.753l-172.4149-43.3042A5.4582,5.4582,0,0,0,2630.1837,610.8902Z"></path><path fill="none" stroke="#bdcad1" stroke-linecap="round" stroke-linejoin="round" stroke-width="5" d="M2057.9946,407.656s532.451,310.8017,894.014,11.298"></path><path fill="#d8952a" d="M2767.7328 839.0336H2681.463c-17.9003 45.6279-7.3707 186.3726-7.3707 186.3726s55.8065-10.8806 90.5537-66.3361c22.3612-35.6876 25.5355-75.1545 24.9571-98.7568A21.85344 21.85344 0 002767.7328 839.0336zm-30.1125 110.2967c-39.7489 32.6416-61.3343 36.8532-61.3343 36.8532s-6.3177-92.9227 6.5808-134.5144h68.4223a21.8869 21.8869 0 0121.6764 24.8543C2769.9985 898.3883 2761.514 929.709 2737.6203 949.3303zM2384.4954 966.3272c36.8384 54.089 93.0194 62.8317 93.0194 62.8317s5.1503-141.044-14.4785-185.9555l-86.2069 3.2926a21.85364 21.85364 0 00-21.0423 22.0989C2356.11 892.2021 2360.7883 931.5191 2384.4954 966.3272zm9.248-107.8325l68.3724-2.6115c14.4765 41.0692 11.71 134.1654 11.71 134.1654s-21.7304-3.3848-62.6962-34.4855c-24.6252-18.6951-34.2989-49.6692-38.0982-71.4048A21.887 21.887 0 012393.7434 858.4947z"></path><path fill="#f7b94b" d="M2533.2418,1114.556s21.2346,21.761,15.9698,52.9985-25.2708,49.4888-25.2708,49.4888h96.1695s-23.3404-28.4297-25.0953-51.2437,5.7912-43.522,15.0923-49.8397Z"></path><g clip-path="url(#z)"><path fill="#dd942a" d="M2592.8516,1112.5194s-11.2315,32.466-7.7217,54.7535-15.7942,52.2966-30.5355,53.3495l83.3586.8775-39.6612-50.8927,18.2512-57.7368Z" opacity=".57"></path></g><path fill="#d8952a" d="M2614.2616,1117.0129h-82.5054a11.056,11.056,0,0,1-11.0559-11.056h0a11.05593,11.05593,0,0,1,11.0559-11.056h82.5054a11.056,11.056,0,0,1,11.056,11.056h0A11.056,11.056,0,0,1,2614.2616,1117.0129Z"></path><g clip-path="url(#A)"><path fill="#bc740c" d="M2517.4778,1103.3061s14.9441,9.3888,54.5478,9.3888,56.1876-8.5991,56.1876-8.5991-1.9304-7.1074-2.1936-7.1074-107.6643-.5265-107.6643-.5265Z"></path></g><path fill="#f7b94b" d="M2452.2705,826.0473c1.7549,5.0892,8.0726,6.3177,11.2315,63.177s-4.9138,140.0426,13.6883,174.439,56.6346,43.6104,91.9241,43.7057c36.7236.0993,85.6738-5.7994,100.7661-43.3547s10.1785-117.5796,11.5824-158.6447,4.8261-62.5629,15.6188-79.3223Z"></path><g clip-path="url(#B)"><path fill="#dd942a" d="M2674.739,816.8155s-14.4985,24.5689-16.9554,85.6401-10.8805,207.4314-90.2028,209.1863l113.7187,2.9141,36.5023-89.1498,17.1983-191.0415Z" opacity=".57"></path><path fill="#f4dbae" d="M2459.4777,815.4116s20.3571,5.6157,23.8669,63.528,0,128.8111,5.9668,162.5056,35.4493,62.7199,58.6143,69.1438l-81.7793-3.2187-21.761-85.2293-10.8805-196.0937Z" opacity=".64"></path></g><path fill="#d8952a" d="M2701.2935,831.1365H2450.691a8.95,8.95,0,0,1-8.95-8.9501h0a8.95,8.95,0,0,1,8.95-8.9501h250.6025a8.9501,8.9501,0,0,1,8.9501,8.9501h0A8.9501,8.9501,0,0,1,2701.2935,831.1365Z"></path><g clip-path="url(#C)"><rect width="288.168" height="14.039" x="2435.786" y="823.484" fill="#bc740c"></rect></g><path fill="#d8952a" d="M2629.8683,1237.7513H2516.1495a11.23146,11.23146,0,0,1-11.2314-11.2315h0a11.23144,11.23144,0,0,1,11.2314-11.2314h113.7188a11.23146,11.23146,0,0,1,11.2315,11.2314h0A11.23148,11.23148,0,0,1,2629.8683,1237.7513Z"></path><g clip-path="url(#D)"><rect width="147.062" height="11.232" x="2502.473" y="1228.695" fill="#bc740c"></rect></g><rect width="165.664" height="65.985" x="2490.177" y="1237.751" fill="#d8952a" rx="11.232"></rect><g clip-path="url(#E)"><path fill="#bc740c" d="M2625.3176,1233.6088s11.758,2.4569,8.4236,24.0424-22.2875,31.5886-68.0909,32.115-79.6733-10.8805-79.6733-10.8805l.702,24.8506-.351,9.7213s182.8626-.8774,182.8626-1.4039,1.4039-37.5553,1.4039-43.6975-1.2284-41.0651-1.2284-41.0651Z"></path></g><ellipse cx="2575.992" cy="954.401" fill="#fff" opacity=".73" rx="41.077" ry="44.938"></ellipse><path fill="none" stroke="#db362e" stroke-linecap="round" stroke-linejoin="round" stroke-width="4" d="M3109.6152,1218.8395s-40.4625,45.1326-82.1388,92.5663-176.2211,120.6812-171.2609,186.4274"></path><path fill="#f65e51" d="M3269.4356,1241.5578s-5.9464-23.5868-20.0309-34.5409-106.5305-56.3657-164.8809,37.8781-92.1715,123.093-137.0103,152.4553-122.3372,80.5651-103.8257,196.2717,179.4906,131.3463,257.506,63.0678,123.956-262.0802,135.7693-301.3306S3269.4356,1241.5578,3269.4356,1241.5578Z"></path><g clip-path="url(#F)"><path fill="#e8453d" d="M2819.9041,1546.4098s48.3086,73.4506,134.133,24.0483,154.1619-141.8311,171.1561-201.4069,44.9133-121.7007,70.4047-142.5314,3.0792-48.7497,3.0792-48.7497l111.6318,32.7746-58.2659,215.4625-131.0983,299.8267-165.0868,13.3526-174.1908-86.185Z"></path><path fill="none" stroke="#db362e" stroke-linecap="round" stroke-linejoin="round" stroke-width="4" d="M3214.3446,1201.2704c-2.9664.1702-60.6253-24.7142-110.3942,45.9939s-68.8873,107.4278-143.237,159.6244S2849.5,1534.8869,2859.9619,1593.2182"></path><path fill="none" stroke="#db362e" stroke-linecap="round" stroke-linejoin="round" stroke-width="4" d="M3220.9017,1223.6731s-64.7547-4.0244-112.7027,90.6577-179.6533,126.0996-210.0001,312.1973"></path><path fill="none" stroke="#db362e" stroke-linecap="round" stroke-linejoin="round" stroke-width="4" d="M3210.7713,1252.5514s-55.2312,26.5771-75.2601,93.9471-148.0926,146.8787-165.0868,300.4336"></path></g><path fill="#ffb6b0" d="M3077.7236,1417.3957l-2.1234-.3497s-8.0565,2.0441-18.0878,35.4051-57.3839,236.6875-75.5453,288.2365-26.3989,48.7646-54.8025,63.6366-24.5653,63.5492-.7955,61.8906,30.7106-32.2818,49.9698-34.9507,33.7693-10.9343,33.9165-31.6453,36.9317-108.6577,46.2905-142.3125c9.2359-33.2124,31.4637-118.6553,31.4637-118.6553s11.8716-11.3745,13.0967-27.9648S3090.103,1431.3436,3077.7236,1417.3957Z"></path><g clip-path="url(#G)"><path fill="#f49590" d="M3101.1912,1464.8511s-19.6537,51.5867-26.0484,83.7558-59.6474,205.1461-70.9546,233.6721-33.1569,55.2313-33.1569,55.2313l36.3048,4.9797,51.701-101.4827s65.5492-199.0752,67.37-218.4972S3101.1912,1464.8511,3101.1912,1464.8511Z"></path></g><path fill="#188189" d="M3351.3367,1544.8745c-3.594-1.7856-5.4478-6.9832-4.6974-13.1705l24.1239-198.8994c1.2025-9.475,7.1481-18.034,13.6401-19.6353l97.0507-23.9388a14.75332,14.75332,0,0,1,13.9356,3.3801l2.2717,2.0629-1.4658,2.2856-5.8412,10.4851-25.8558,203.7403-107.0871,28.7-2.9844,6.5253Z"></path><path fill="#5abfcb" d="M3360.5416,1548.3762l102.0044-27.3377c4.7554-1.2745,9.0698-7.5563,9.9493-14.4861l26.1528-206.081c.6233-4.9114-1.7453-8.3673-5.1156-7.464l-105.7973,28.3543c-4.7554,1.2744-9.0698,7.5562-9.9493,14.486l-25.4513,200.5539C3351.3346,1544.281,3355.1345,1549.8253,3360.5416,1548.3762Z"></path><g clip-path="url(#H)"><path fill="#fff" d="M3468.7982,1519.3628s-2.5406-10.6579-6.9206-9.7951-70.4547,19.5043-85.6491,20.4662-8.5837-33.7785-5.3548-59.837,12.0239-136.6528,27.2786-145.0955,23.593-16.898,22.9329-16.7211-54.6781,13.721-54.6781,13.721-13.5509,47.4864-15.0009,66.2256-11.9242,92.4603-11.9242,92.4603-3.3009,59.9796-4.4822,68.0719,4.468,10.9326,4.468,10.9326l56.5944-9.2581,62.9826-20.9231Z" opacity=".54"></path></g><ellipse cx="3427.423" cy="1420.588" fill="#fff" rx="28.938" ry="16.928" transform="rotate(-74.435 3427.423 1420.588)"></ellipse><path fill="#ea8f8b" d="M3273.4908,1420.393l3.1275.1108s10.7641,1.5409,16.1318,8.7969,15.2121,36.2894,24.2968,67.3169,23.8123,92.2842,32.6,90.8496,97.2641-96.3626,97.3277-113.6622-14.3139-50.2204,9.623-66.4196,37.2987,12.3834,40.5019,31.7487-8.7611,45.678-20.2456,62.4341-87.0206,154.5461-120.2039,155.3893-55.7985-45.9336-67.9709-74.1625-19.2115-48.8946-19.2115-48.8946S3248.2872,1441.3822,3273.4908,1420.393Z"></path><path fill="#073e4f" d="M3483.2359,2132.7801l2.1181,3.6293a258.59283,258.59283,0,0,0,19.2885,30.5634c12.4762,17.2228,53.3004,73.2994,33.2973,96.7908-16.2548,19.0895-56.5089,6.5351-81.5992-18.7262-11.3788-11.4564-57.856-64.6284-58.153-81.6549s22.6136-39.8258,29.4603-38.4284Z"></path><g clip-path="url(#I)"><path fill="#022e38" d="M3396.5538,2146.7515s32.9769,55.4336,60.896,82.1388,45.5202,45.8237,91.6474,29.4364l-10.6214,22.7602s-37.9335,4.552-42.1821,3.0346-59.7833-25.4913-65.2457-34.5953-35.5058-54.3209-39.1474-62.2111-9.1041-26.7052-9.1041-26.7052Z"></path><path fill="none" stroke="#f9bab7" stroke-linecap="round" stroke-linejoin="round" stroke-width="3" d="M3459.8775 2171.0796s14.1113-22.4567 42.789-19.7255M3514.5018 2167.438s-16.6908-4.0969-38.9957 20.3323M3521.6333 2185.1909s-5.7659-7.435-30.3468 16.3873M3529.9787 2202.3368c-.3035.4552-14.1113 5.0073-22.7601 15.7804"></path></g><path fill="none" stroke="#fff" stroke-linecap="round" stroke-linejoin="round" stroke-width="3" d="M3483.8515,2142.4018c-.7515-.104,21.8497-33.8367,31.2572-22.9118S3517.84,2147.1056,3483.8515,2142.4018Z"></path><path fill="#ad6910" d="M3288.2556,1975.7217s32.1693-9.5062,115.7241-59.2923,126.6472-141.4336,126.6472-141.4336l-95.5218-29.7399-78.2421,57.3416Z"></path><path fill="#ea8f8b" d="M3484.5572,1751.2145l23.4904,1.2552s24.7969,8.2538,44.2763,17.7893,26.9041,49.3109,11.7788,96.1769-79.4764,231.3444-81.0462,267.0362c0,0-23.1917,32.3188-54.4923,10.1719l45.6249-203.2099-14.1972-117.9526-99.0261-40.971S3452.9225,1742.7132,3484.5572,1751.2145Z"></path><path fill="none" stroke="#fff" stroke-linecap="round" stroke-linejoin="round" stroke-width="3" d="M3484.0032,2142.2501s-16.7284-17.6153-29.8916-12.5939-9.104,27.4548,2.5795,26.6248S3484.0032,2142.2501,3484.0032,2142.2501Z"></path><path fill="#0a4861" d="M3432.598,2155.3309l2.1181,3.6293a258.59283,258.59283,0,0,0,19.2885,30.5634c12.4762,17.2227,53.3004,73.2994,33.2973,96.7908-16.2548,19.0895-56.5089,6.5351-81.5992-18.7262-11.3788-11.4564-57.856-64.6284-58.153-81.6549s22.6136-39.8258,29.4603-38.4284Z"></path><g clip-path="url(#J)"><path fill="#033b4c" d="M3345.9159,2169.3023s32.9769,55.4336,60.896,82.1388,45.5202,45.8237,91.6474,29.4364l-10.6214,22.7601s-37.9335,4.5521-42.1821,3.0347-59.7833-25.4913-65.2457-34.5954-35.5058-54.3208-39.1474-62.211-9.1041-26.7052-9.1041-26.7052Z"></path><path fill="none" stroke="#f9bab7" stroke-linecap="round" stroke-linejoin="round" stroke-width="3" d="M3409.2396 2193.6304s14.1113-22.4567 42.789-19.7255M3463.8639 2189.9887s-16.6908-4.0968-38.9957 20.3324M3470.9954 2207.7416s-5.7659-7.4349-30.3468 16.3873M3479.3408 2224.8876c-.3035.4552-14.1113 5.0072-22.7601 15.7804"></path></g><path fill="none" stroke="#fff" stroke-linecap="round" stroke-linejoin="round" stroke-width="3" d="M3433.2136,2164.9526c-.7515-.104,21.8497-33.8367,31.2572-22.9119S3467.2021,2169.6564,3433.2136,2164.9526Z"></path><path fill="#ffb6b0" d="M3415.6741,1771.6894s39.8404,14.9738,73.013,27.3041,18.5089,72.6936,11.3812,96.2512-68.7477,242.5133-64.3406,263.9178c0,0-34.6629,17.1724-57.7062-11.4553,0,0,6.502-48.9609,9.2968-124.3962s27.3813-142.1786,27.3813-142.1786l-53.3521-16.7958S3350.6745,1793.9295,3415.6741,1771.6894Z"></path><path fill="none" stroke="#fff" stroke-linecap="round" stroke-linejoin="round" stroke-width="3" d="M3430.6341,2164.8009s-16.7284-17.6153-29.8916-12.594-9.1041,27.4549,2.5795,26.6249S3430.6341,2164.8009,3430.6341,2164.8009Z"></path><path fill="#f7b94b" d="M3102.3553,1626.5281l-8.9601,7.1264s-3.3544,14.0036-17.0504,45.3732-65.9846,93.038-28.0137,160.8414,121.9687,163.877,149.2944,168.0375,85.6126-11.0417,132.7384-56.2664,26.7211-124.7675,70.482-158.2504,107.2017-40.9201,107.2017-40.9201l-257.8233-58.1524s-26.9465-12.052-21.9215-47.9771l-6.5206-5.1629Z"></path><g clip-path="url(#K)"><path fill="#e59f2e" d="M3191.3493,1641.6511s-37.63,54.6452,11.7341,78.5181,157.399,24.4072,154.9712,97.377-50.0349,149.1222-92.1851,176.9998,105.5377-24.7235,105.5377-24.7235l52.1966-128.266s69.5954-64.8787,89.0174-70.0694,37.2254.6495,26.3005-21.4903-150.5203-59.3652-150.5203-59.3652-115.7226-49.7688-123.815-51.792S3191.3493,1641.6511,3191.3493,1641.6511Z"></path><g opacity=".64"><path fill="#ea6363" d="M2962.2498,1706.433a7.813,7.813,0,1,1-9.9077-4.891A7.8131,7.8131,0,0,1,2962.2498,1706.433Z"></path><circle cx="3005.973" cy="1691.611" r="7.813" fill="#ea6363" transform="rotate(-29.576 3005.973 1691.611)"></circle><circle cx="3057.096" cy="1674.281" r="7.813" fill="#ea6363"></circle><circle cx="3108.219" cy="1656.951" r="7.813" fill="#ea6363" transform="rotate(-63.726 3108.22 1656.95)"></circle><path fill="#ea6363" d="M3166.7418,1637.1122a7.813,7.813,0,1,1-9.9077-4.8911A7.813,7.813,0,0,1,3166.7418,1637.1122Z"></path><circle cx="3210.465" cy="1622.29" r="7.813" fill="#ea6363" transform="rotate(-29.576 3210.465 1622.29)"></circle><path fill="#ea6363" d="M3268.9878,1602.4517a7.813,7.813,0,1,1-9.9077-4.8911A7.813,7.813,0,0,1,3268.9878,1602.4517Z"></path><circle cx="3312.711" cy="1587.63" r="7.813" fill="#ea6363" transform="rotate(-63.726 3312.711 1587.63)"></circle><circle cx="3363.834" cy="1570.3" r="7.813" fill="#ea6363" transform="rotate(-63.726 3363.834 1570.3)"></circle><circle cx="3414.957" cy="1552.969" r="7.813" fill="#ea6363" transform="rotate(-29.576 3414.957 1552.97)"></circle><circle cx="3466.08" cy="1535.639" r="7.813" fill="#ea6363" transform="rotate(-39.013 3466.08 1535.64)"></circle><path fill="#ea6363" d="M3000.0906,1727.354a7.813,7.813,0,1,1-9.9077-4.891A7.8131,7.8131,0,0,1,3000.0906,1727.354Z"></path><circle cx="3043.814" cy="1712.532" r="7.813" fill="#ea6363" transform="rotate(-29.576 3043.814 1712.532)"></circle><circle cx="3094.937" cy="1695.202" r="7.813" fill="#ea6363"></circle><circle cx="3146.06" cy="1677.872" r="7.813" fill="#ea6363" transform="rotate(-63.726 3146.06 1677.872)"></circle><path fill="#ea6363" d="M3204.5826 1658.0332a7.813 7.813 0 11-9.9077-4.8911A7.813 7.813 0 013204.5826 1658.0332zM3255.7056 1640.7029a7.813 7.813 0 11-9.9077-4.891A7.813 7.813 0 013255.7056 1640.7029zM3306.8286 1623.3727a7.813 7.813 0 11-9.9077-4.8911A7.813 7.813 0 013306.8286 1623.3727zM3357.9516 1606.0425a7.81293 7.81293 0 11-9.9077-4.8911A7.813 7.813 0 013357.9516 1606.0425z"></path><circle cx="3401.675" cy="1591.221" r="7.813" fill="#ea6363" transform="rotate(-21.46 3401.676 1591.22)"></circle><path fill="#ea6363" d="M3460.1976 1571.382a7.813 7.813 0 11-9.9077-4.891A7.813 7.813 0 013460.1976 1571.382zM3037.9314 1748.275a7.813 7.813 0 11-9.9077-4.891A7.81313 7.81313 0 013037.9314 1748.275zM3089.0544 1730.9448a7.813 7.813 0 11-9.9077-4.891A7.813 7.813 0 013089.0544 1730.9448z"></path><circle cx="3132.778" cy="1716.123" r="7.813" fill="#ea6363" transform="rotate(-8.759 3132.777 1716.123)"></circle><circle cx="3183.901" cy="1698.793" r="7.813" fill="#ea6363" transform="rotate(-21.46 3183.902 1698.793)"></circle><circle cx="3235.024" cy="1681.463" r="7.813" fill="#ea6363" transform="rotate(-21.46 3235.025 1681.463)"></circle><path fill="#ea6363" d="M3293.5464 1661.6239a7.813 7.813 0 11-9.9077-4.891A7.81282 7.81282 0 013293.5464 1661.6239zM3344.6694 1644.2937a7.813 7.813 0 11-9.9077-4.8911A7.81282 7.81282 0 013344.6694 1644.2937zM3395.7925 1626.9635a7.813 7.813 0 11-9.9077-4.8911A7.813 7.813 0 013395.7925 1626.9635z"></path><circle cx="3439.516" cy="1612.142" r="7.813" fill="#ea6363" transform="rotate(-63.726 3439.516 1612.142)"></circle><circle cx="3490.639" cy="1594.811" r="7.813" fill="#ea6363" transform="rotate(-29.576 3490.639 1594.811)"></circle><path fill="#ea6363" d="M3075.7723,1769.1961a7.813,7.813,0,1,1-9.9077-4.8911A7.813,7.813,0,0,1,3075.7723,1769.1961Z"></path><circle cx="3119.496" cy="1754.374" r="7.813" fill="#ea6363" transform="rotate(-29.576 3119.495 1754.374)"></circle><path fill="#ea6363" d="M3178.0183,1734.5356a7.813,7.813,0,1,1-9.9077-4.8911A7.813,7.813,0,0,1,3178.0183,1734.5356Z"></path><circle cx="3221.742" cy="1719.714" r="7.813" fill="#ea6363" transform="rotate(-63.726 3221.742 1719.714)"></circle><circle cx="3272.865" cy="1702.383" r="7.813" fill="#ea6363" transform="rotate(-63.726 3272.865 1702.384)"></circle><circle cx="3323.988" cy="1685.053" r="7.813" fill="#ea6363" transform="rotate(-29.576 3323.987 1685.053)"></circle><path fill="#ea6363" d="M3382.5103,1665.2147a7.813,7.813,0,1,1-9.9077-4.8911A7.813,7.813,0,0,1,3382.5103,1665.2147Z"></path><circle cx="3426.234" cy="1650.393" r="7.813" fill="#ea6363" transform="rotate(-63.726 3426.234 1650.393)"></circle><circle cx="3477.357" cy="1633.063" r="7.813" fill="#ea6363" transform="rotate(-63.726 3477.357 1633.063)"></circle><path fill="#ea6363" d="M3113.6131,1790.1171a7.813,7.813,0,1,1-9.9077-4.8911A7.813,7.813,0,0,1,3113.6131,1790.1171Z"></path><circle cx="3157.337" cy="1775.295" r="7.813" fill="#ea6363" transform="rotate(-29.576 3157.336 1775.295)"></circle><path fill="#ea6363" d="M3215.8591,1755.4566a7.813,7.813,0,1,1-9.9077-4.8911A7.813,7.813,0,0,1,3215.8591,1755.4566Z"></path><circle cx="3259.583" cy="1740.635" r="7.813" fill="#ea6363" transform="rotate(-63.726 3259.583 1740.635)"></circle><circle cx="3310.706" cy="1723.304" r="7.813" fill="#ea6363" transform="rotate(-63.726 3310.706 1723.305)"></circle><path fill="#ea6363" d="M3369.2281 1703.4659a7.813 7.813 0 11-9.9077-4.891A7.813 7.813 0 013369.2281 1703.4659zM3420.3511 1686.1357a7.813 7.813 0 11-9.9077-4.8911A7.813 7.813 0 013420.3511 1686.1357zM3471.4741 1668.8055a7.81293 7.81293 0 11-9.9077-4.8911A7.813 7.813 0 013471.4741 1668.8055z"></path><circle cx="3515.198" cy="1653.984" r="7.813" fill="#ea6363" transform="rotate(-21.46 3515.198 1653.984)"></circle><path fill="#ea6363" d="M3151.4539 1811.0381a7.81293 7.81293 0 11-9.9077-4.8911A7.81306 7.81306 0 013151.4539 1811.0381zM3202.5769 1793.7078a7.813 7.813 0 11-9.9077-4.891A7.813 7.813 0 013202.5769 1793.7078z"></path><circle cx="3246.301" cy="1778.886" r="7.813" fill="#ea6363" transform="rotate(-8.759 3246.3 1778.886)"></circle><circle cx="3297.424" cy="1761.556" r="7.813" fill="#ea6363" transform="rotate(-21.46 3297.424 1761.556)"></circle><circle cx="3348.547" cy="1744.226" r="7.813" fill="#ea6363" transform="rotate(-21.46 3348.547 1744.226)"></circle><path fill="#ea6363" d="M3407.0689 1724.3869a7.813 7.813 0 11-9.9077-4.891A7.8129 7.8129 0 013407.0689 1724.3869zM3458.1919 1707.0567a7.813 7.813 0 11-9.9077-4.8911A7.81282 7.81282 0 013458.1919 1707.0567zM3509.315 1689.7265a7.813 7.813 0 11-9.9078-4.8911A7.813 7.813 0 013509.315 1689.7265z"></path><circle cx="2941.568" cy="1747.193" r="7.813" fill="#ea6363" transform="rotate(-63.726 2941.568 1747.193)"></circle><path fill="#ea6363" d="M2986.8084 1765.6053a7.81293 7.81293 0 11-9.9077-4.8911A7.813 7.813 0 012986.8084 1765.6053zM2973.5262 1803.8565a7.81293 7.81293 0 11-9.9077-4.8911A7.81282 7.81282 0 012973.5262 1803.8565zM3024.6492 1786.5263a7.81293 7.81293 0 11-9.9077-4.8911A7.81286 7.81286 0 013024.6492 1786.5263z"></path><circle cx="3003.968" cy="1827.286" r="7.813" fill="#ea6363"></circle><circle cx="3055.091" cy="1809.956" r="7.813" fill="#ea6363" transform="rotate(-63.726 3055.09 1809.956)"></circle><circle cx="2990.686" cy="1865.537" r="7.813" fill="#ea6363" transform="rotate(-29.576 2990.685 1865.537)"></circle><path fill="#ea6363" d="M3049.2079 1845.6985a7.813 7.813 0 11-9.9077-4.8911A7.813 7.813 0 013049.2079 1845.6985zM3100.3309 1828.3683a7.813 7.813 0 11-9.9077-4.8911A7.813 7.813 0 013100.3309 1828.3683z"></path><circle cx="3028.19" cy="1886.572" r="7.813" fill="#ea6363" transform="rotate(-29.576 3028.19 1886.572)"></circle><circle cx="3079.313" cy="1869.242" r="7.813" fill="#ea6363" transform="rotate(-39.013 3079.313 1869.242)"></circle><path fill="#ea6363" d="M3137.8354 1849.4033a7.813 7.813 0 11-9.9077-4.8911A7.813 7.813 0 013137.8354 1849.4033zM3188.9584 1832.0731a7.81293 7.81293 0 11-9.9077-4.8911A7.813 7.813 0 013188.9584 1832.0731zM3240.0814 1814.7428a7.813 7.813 0 11-9.9077-4.891A7.813 7.813 0 013240.0814 1814.7428zM3291.2044 1797.4126a7.813 7.813 0 11-9.9077-4.891A7.813 7.813 0 013291.2044 1797.4126z"></path><circle cx="3334.928" cy="1782.591" r="7.813" fill="#ea6363" transform="rotate(-8.759 3334.927 1782.59)"></circle><circle cx="3386.051" cy="1765.261" r="7.813" fill="#ea6363" transform="rotate(-21.46 3386.052 1765.26)"></circle><path fill="#ea6363" d="M3444.5734 1745.4219a7.813 7.813 0 11-9.9077-4.891A7.81313 7.81313 0 013444.5734 1745.4219zM3495.6964 1728.0917a7.813 7.813 0 11-9.9077-4.891A7.8129 7.8129 0 013495.6964 1728.0917zM3546.8194 1710.7615a7.81293 7.81293 0 11-9.9077-4.8911A7.81282 7.81282 0 013546.8194 1710.7615zM3073.4302 1904.9847a7.813 7.813 0 11-9.9077-4.891A7.813 7.813 0 013073.4302 1904.9847zM3124.5532 1887.6545a7.813 7.813 0 11-9.9077-4.891A7.813 7.813 0 013124.5532 1887.6545zM3175.6762 1870.3243a7.81293 7.81293 0 11-9.9077-4.8911A7.8129 7.8129 0 013175.6762 1870.3243zM3226.7992 1852.9941a7.81293 7.81293 0 11-9.9077-4.8911A7.81286 7.81286 0 013226.7992 1852.9941zM3277.9223 1835.6638a7.813 7.813 0 11-9.9078-4.891A7.813 7.813 0 013277.9223 1835.6638zM3329.0453 1818.3336a7.813 7.813 0 11-9.9077-4.891A7.813 7.813 0 013329.0453 1818.3336z"></path><circle cx="3372.769" cy="1803.512" r="7.813" fill="#ea6363"></circle><circle cx="3423.892" cy="1786.181" r="7.813" fill="#ea6363" transform="rotate(-63.726 3423.892 1786.182)"></circle><circle cx="3475.015" cy="1768.851" r="7.813" fill="#ea6363" transform="rotate(-72.598 3475.015 1768.851)"></circle><circle cx="3526.138" cy="1751.521" r="7.813" fill="#ea6363" transform="rotate(-29.576 3526.137 1751.521)"></circle><circle cx="3103.872" cy="1928.414" r="7.813" fill="#ea6363" transform="rotate(-29.576 3103.871 1928.414)"></circle><path fill="#ea6363" d="M3162.3941,1908.5755a7.813,7.813,0,1,1-9.9077-4.891A7.813,7.813,0,0,1,3162.3941,1908.5755Z"></path><circle cx="3206.118" cy="1893.754" r="7.813" fill="#ea6363"></circle><circle cx="3257.241" cy="1876.423" r="7.813" fill="#ea6363" transform="rotate(-63.726 3257.24 1876.423)"></circle><path fill="#ea6363" d="M3315.7631,1856.5848a7.813,7.813,0,1,1-9.9077-4.891A7.813,7.813,0,0,1,3315.7631,1856.5848Z"></path><circle cx="3359.487" cy="1841.763" r="7.813" fill="#ea6363" transform="rotate(-29.576 3359.486 1841.763)"></circle><circle cx="3410.61" cy="1824.433" r="7.813" fill="#ea6363"></circle><circle cx="3461.733" cy="1807.102" r="7.813" fill="#ea6363" transform="rotate(-63.726 3461.733 1807.103)"></circle><path fill="#ea6363" d="M3520.2551 1787.2639a7.813 7.813 0 11-9.9077-4.891A7.8131 7.8131 0 013520.2551 1787.2639zM3571.3781 1769.9337a7.813 7.813 0 11-9.9077-4.891A7.813 7.813 0 013571.3781 1769.9337zM3149.1119 1946.8267a7.813 7.813 0 11-9.9077-4.891A7.813 7.813 0 013149.1119 1946.8267z"></path><circle cx="3192.836" cy="1932.005" r="7.813" fill="#ea6363" transform="rotate(-39.013 3192.836 1932.005)"></circle><path fill="#ea6363" d="M3251.3579 1912.1663a7.813 7.813 0 11-9.9077-4.8911A7.813 7.813 0 013251.3579 1912.1663zM3302.4809 1894.8361a7.813 7.813 0 11-9.9077-4.8911A7.813 7.813 0 013302.4809 1894.8361zM3353.6039 1877.5058a7.813 7.813 0 11-9.9077-4.891A7.813 7.813 0 013353.6039 1877.5058zM3404.7269 1860.1756a7.813 7.813 0 11-9.9077-4.891A7.813 7.813 0 013404.7269 1860.1756z"></path><circle cx="3448.451" cy="1845.354" r="7.813" fill="#ea6363" transform="rotate(-8.759 3448.45 1845.353)"></circle><circle cx="3499.574" cy="1828.024" r="7.813" fill="#ea6363" transform="rotate(-21.46 3499.574 1828.024)"></circle><path fill="#ea6363" d="M3558.0959 1808.1849a7.813 7.813 0 11-9.9077-4.891A7.81313 7.81313 0 013558.0959 1808.1849zM3186.9527 1967.7477a7.813 7.813 0 11-9.9077-4.891A7.813 7.813 0 013186.9527 1967.7477zM3238.0757 1950.4175a7.813 7.813 0 11-9.9077-4.891A7.813 7.813 0 013238.0757 1950.4175z"></path><circle cx="3281.799" cy="1935.596" r="7.813" fill="#ea6363" transform="rotate(-8.759 3281.798 1935.595)"></circle><path fill="#ea6363" d="M3340.3217 1915.7571a7.81293 7.81293 0 11-9.9077-4.8911A7.81286 7.81286 0 013340.3217 1915.7571zM3391.4448 1898.4268a7.813 7.813 0 11-9.9078-4.891A7.813 7.813 0 013391.4448 1898.4268zM3442.5678 1881.0966a7.813 7.813 0 11-9.9077-4.891A7.813 7.813 0 013442.5678 1881.0966z"></path><circle cx="3486.291" cy="1866.275" r="7.813" fill="#ea6363"></circle><circle cx="3537.414" cy="1848.945" r="7.813" fill="#ea6363" transform="rotate(-63.726 3537.414 1848.945)"></circle><circle cx="3588.537" cy="1831.614" r="7.813" fill="#ea6363" transform="rotate(-72.598 3588.538 1831.614)"></circle><circle cx="3217.394" cy="1991.177" r="7.813" fill="#ea6363" transform="rotate(-29.576 3217.394 1991.177)"></circle><path fill="#ea6363" d="M3275.9166,1971.3385a7.813,7.813,0,1,1-9.9077-4.891A7.813,7.813,0,0,1,3275.9166,1971.3385Z"></path><circle cx="3319.64" cy="1956.517" r="7.813" fill="#ea6363"></circle><circle cx="3370.763" cy="1939.186" r="7.813" fill="#ea6363" transform="rotate(-63.726 3370.763 1939.186)"></circle><path fill="#ea6363" d="M3429.2856,1919.3478a7.813,7.813,0,1,1-9.9077-4.891A7.813,7.813,0,0,1,3429.2856,1919.3478Z"></path><circle cx="3473.009" cy="1904.526" r="7.813" fill="#ea6363" transform="rotate(-29.576 3473.009 1904.526)"></circle><circle cx="3524.132" cy="1887.196" r="7.813" fill="#ea6363"></circle><circle cx="3575.255" cy="1869.866" r="7.813" fill="#ea6363" transform="rotate(-63.726 3575.255 1869.866)"></circle><circle cx="3014.908" cy="1924.823" r="7.813" fill="#ea6363" transform="rotate(-21.46 3014.908 1924.824)"></circle><circle cx="3052.749" cy="1945.744" r="7.813" fill="#ea6363" transform="rotate(-63.726 3052.749 1945.744)"></circle><circle cx="3039.466" cy="1983.995" r="7.813" fill="#ea6363"></circle><circle cx="3090.59" cy="1966.665" r="7.813" fill="#ea6363" transform="rotate(-63.726 3090.59 1966.665)"></circle><path fill="#ea6363" d="M3084.7067,2002.4082a7.81293,7.81293,0,1,1-9.9077-4.8911A7.813,7.813,0,0,1,3084.7067,2002.4082Z"></path><circle cx="3128.43" cy="1987.586" r="7.813" fill="#ea6363" transform="rotate(-21.46 3128.431 1987.587)"></circle><path fill="#ea6363" d="M3071.4245 2040.6594a7.813 7.813 0 11-9.9077-4.891A7.81282 7.81282 0 013071.4245 2040.6594zM3122.5476 2023.3292a7.813 7.813 0 11-9.9077-4.8911A7.813 7.813 0 013122.5476 2023.3292z"></path><circle cx="3166.271" cy="2008.507" r="7.813" fill="#ea6363" transform="rotate(-63.726 3166.271 2008.507)"></circle></g></g><path fill="#4cbde5" d="M3165.2401,1399.4642l-3.8702,2.4204s-76.3051,4.6736-85.7697,15.1614c-4.8425,5.3661,30.775,63.4321,12.4094,121.605,0,0,2.2301,62.6635,5.3856,95.0035,0,0,28.8663,20.1317,59.3131,22.2689s75.5945-9.5832,75.5945-9.5832,9.3392-22.7356,27.9806-52.9703,28.6525-47.1659,22.3052-85.5795c-6.1172-37.0209-7.9349-59.8302-3.4719-79.4559.1679-.7384.2444-1.2521,1.2572-5.727,4.4353-19.5976-67.0587-18.5592-67.0587-18.5592Z"></path><g clip-path="url(#L)"><path fill="#32abcc" d="M3270.2511,1408.406s-5.6647,65.5492-4.4509,81.1272-19.4219,65.5462-73.237,59.0737-43.2444,12.9495-14.7436,27.9206-7.9154,84.5665-7.9154,84.5665,78.9018,4.4509,79.3064,3.237,59.4798-103.9885,60.2891-123.0058,1.2138-68.7862,1.2138-81.3296-28.2872-52.8035-28.2872-52.8035Z"></path><path fill="#20a6c9" d="M3142.5921 1398.9424s7.8902 24.637 37.2254 26.2555 43.8778-22.5947 43.8778-22.5947l-67.346-11.1914zM3077.4475 1409.6199s20.3776 20.4335 23.7437 52.3989-.8682 75.2601-13.3175 92.659l-17.5071-26.8538-6.2717-115.7645z"></path></g><path fill="#ffb6b0" d="M3270.263,1279.066s8.1297,100.646-24.784,103.7223c-13.2492,1.2384-36.7366-8.2692-36.7366-8.2692l.5728,29.5292s-6.3999,7.0602-24.446,7.9591-23.4993-10.1228-23.4993-10.1228,12.048-52.8775,8.4403-63.935-9.1602-14.343-5.6242-30.1299,22.7117-7.3266,22.7117-7.3266,11.8133-16.0971,13.1816-25.3052S3257.9883,1289.3838,3270.263,1279.066Z"></path><g clip-path="url(#M)"><path fill="#ea8f8b" d="M3210.6196,1380.3352l-1.8772-5.8161s-18.6069-9.6608-24.0694-16.1854,14.3641,21.0344,14.0041,36.2645-2.0171,22.4478-2.0171,22.4478l14.1113-4.9865Z"></path></g><path fill="#e8453d" d="M3246.241,1215.4264c-10.9372.3167-52.5135,10.299-59.7874,65.5979,0,0,69.3017,18.4475,105.3501,1.531C3291.8037,1282.5553,3293.2197,1214.066,3246.241,1215.4264Z"></path><g clip-path="url(#N)"><path fill="#d32424" d="M3282.0864,1223.2903s-7.5707,33.6902-49.7688,53.107l-42.1981,19.4168,92.3068-.2993s18.1716,12.7544,18.1716-12.5891S3282.0864,1223.2903,3282.0864,1223.2903Z"></path></g><path fill="none" stroke="#591929" stroke-linecap="round" stroke-linejoin="round" stroke-width="2" d="M3230.6171,1297.4569s-13.0002-10.7253-26.2214,3.2828"></path><path fill="#591929" d="M3226.4692,1313.2799c-.0443,4.0747-2.5729,7.3508-5.6478,7.3173s-5.5316-3.3637-5.4873-7.4384,2.573-7.3507,5.6478-7.3173S3226.5135,1309.2053,3226.4692,1313.2799Z"></path><path fill="#591929" d="M3222.4326,1306.2241s4.9961-.0605,7.5733-2.2502c0,0-2.9811,5.3532-6.4989,4.5309Z"></path><ellipse cx="3258.921" cy="1311.406" fill="#591929" rx="7.378" ry="5.568" transform="rotate(-89.377 3258.921 1311.406)"></ellipse><path fill="#591929" d="M3260.4524,1304.4105s4.996-.0605,7.5733-2.2501c0,0-2.9811,5.3532-6.499,4.5308Z"></path><path fill="none" stroke="#591929" stroke-linecap="round" stroke-linejoin="round" stroke-width="2" d="M3244.3378,1298.2877s8.6267-11.9421,20.715-.778"></path><path fill="#e56c65" d="M3214.1618 1333.0025a7.832 7.832 0 10-9.3254 5.9766A7.832 7.832 0 003214.1618 1333.0025zM3254.0158 1328.9077c.7292 5.3575-.7643 9.9844-3.3359 10.3344s-5.2475-3.7093-5.9767-9.0668.7643-9.9844 3.3359-10.3344S3253.2866 1323.5502 3254.0158 1328.9077z"></path><path fill="#fff" d="M3218.1346,1352.4698c3.3229,5.8985,11.7531,15.434,28.706,5.4346a2.13243,2.13243,0,0,0-.7122-3.9283l-25.7665-4.664A2.13183,2.13183,0,0,0,3218.1346,1352.4698Z"></path><ellipse cx="2329.725" cy="2582.979" fill="#507199" opacity=".31" rx="422.202" ry="71.013"></ellipse><path fill="#43555f" d="M2128.8581,2417.5844s10.037,46.4813,14.7615,46.9729,101.1446-9.535,117.4688,7.9913,28.9319,45.8546,15.2289,51.6607-185.1885,61.9197-197.1266,58.631-21.5789-74.5623-9.5863-84.9127l-13.7386-52.8701Z"></path><g clip-path="url(#O)"><path fill="#ffb6b0" d="M2059.281,2490.1827l10.3234,7.7449s15.0585,8.7075,42.6539-2.976,31.3613-30.3943,31.3613-30.3943,12.5817-11.1087,12.3192-13.6599-17.3406-51.4702-17.3406-51.4702l-88.7775,39.9074Z"></path><path fill="#0a4861" d="M690.9575,1636.6894a1.5009,1.5009,0,0,0,0-3,1.5009,1.5009,0,0,0,0,3Z"></path><path fill="#293d44" d="M2061.9963,2570.1811s52.8397-9.5119,101.2693-23.849,128.3118-42.4578,128.3118-42.4578l-.2903,14.7358-10.8283,13.4437-211.3604,61.7186S2056.9249,2576.5213,2061.9963,2570.1811Z"></path></g><path fill="#a37658" d="M2266.9013,1369.1494l124.5042,1224.9138,27.4991,1.0877-17.1116-163.6058h269.5998l19.9384,163.6058,25.1689-.4908L2557.689,1369.0512l-15.7703.0982,20.77,170.4283H2308.5039l-17.8243-170.4283Zm112.0759,844.2459h265.8295l23.6179,193.7965H2399.2464Zm-22.816-218.1497h262.0596l23.7698,195.0429H2376.5611Zm-22.8152-218.1498h258.2894l23.9214,196.2887H2353.8753Zm-22.8159-218.1498h254.5192l24.0734,197.5352H2331.1896Z"></path><rect width="437.529" height="36.216" x="2123.479" y="1369.149" fill="#8c5638"></rect><path fill="#bc9980" d="M2409.6002,1369.1494l-17.8243,170.4283H2137.5912l20.7699-170.4283h-15.783L1983.767,2594.7583l25.1816.3926,19.9384-163.6058h269.5998l-17.1116,163.6058,27.4991-1.0877,124.5043-1224.9138ZM2301.0334,2407.1918H2031.8552l23.6179-193.7965h265.8295Zm22.6853-216.9033H2058.2893l23.7697-195.0429h262.0597Zm22.6858-216.904H2084.7231l23.9213-196.2887h258.2894Zm22.6858-216.9033H2111.1571l24.0734-197.5352h254.5192Z"></path><polygon fill="#c9ad99" points="2396.776 1369.149 2266.901 2595.151 2281.375 2595.151 2417.254 1369.149 2396.776 1369.149"></polygon><polygon fill="#c9ad99" points="2122.086 1369.149 1963.851 2595.151 1983.767 2594.758 2142.578 1369.149 2122.086 1369.149"></polygon><path fill="#bf6c21" d="M2121.4374,1603.5362c6.2554,1.8208,21.1253,9.4075,21.1253,9.4075s66.4596,2.1243,137.4712,2.4277,176.3151,2.9925,159.0174,113.0209-98.8755,312.1383-98.8755,312.1383-99.5928,4.552-99.5928,0,31.8642-146.5752,32.7746-196.6475-62.818-68.2804-142.9336-30.9538-34.5954,235.7949-20.9393,318.6418,50.0723,257.6446,50.0723,257.6446l-116.5319,53.7139s-84.6677-308.6273-107.4278-394.2054-84.7907-215.8232-89.2812-321.4016Z"></path><g clip-path="url(#P)"><path fill="#a55716" d="M2111.1571,2472.366s-5.3719-72.8324-26.434-155.3758-22.5336-102.7095-35.6286-191.7755-54.5703-251.0613-17.2393-298.6293,107.0643-90.9506,141.6605-109.2036,120.7812-24.9294,88.0066-113.8456,201.503,32.9594,201.503,32.9594l36.0506,110.091s-16.6286,144.9305-33.6229,204.1121-41.7212,176.9273-53.6352,187.8522-163.2195,20.4298-175.9428,12.8496-25.74-41.9826-45.5666-79.6127,18.2644,371.5877,18.2644,371.5877Z"></path><path fill="#8e470d" d="M1877.6349,1763.7674l70.1011-7.2862s14.3642,75.9932-7.4855,83.8614C1923.456,1846.3905,1896.7534,1851.6026,1877.6349,1763.7674Z"></path></g><path fill="#f28b86" d="M2266.3778,1189.3019s2.8324,0,12.948-26.3006,45.5202-63.7284,67.37-66.3584,46.7341,14.1618,26.9075,60.6936-75.0578,63.3238-75.0578,63.3238Z"></path><path fill="#175fa0" d="M2151.0598,1272.6545l114.5088-95.0867s34.393,8.4971,40.867,44.9133c0,0-113.6994,129.0752-133.1214,147.2833s-47.7457,66.3584-75.2602,49.3642l-23.8728-115.318Z"></path><path fill="#7a3c4e" d="M2017.949,997.971s23.8386-9.6588,31.2368-43.9782-23.4276-62.0627-43.9782-69.8719-46.2387,1.4385-53.2259,18.0845c0,0-63.0902-11.5084-102.9583,31.2368s-16.8515,112.6171,17.6735,141.7989,63.7067,27.1267,63.7067,27.1267,29.5928-10.6863,29.5928-11.9193S2017.949,997.971,2017.949,997.971Z"></path><g clip-path="url(#Q)"><path fill="#602639" d="M1843.9791,1060.4438s40.7829,31.9287,72.4433-23.6112,58.4972-61.1743,82.3737-75.3946,43.463-45.0759,38.9017-70.0286c24.6844,6.7078,48.8322,39.1731,48.8322,39.1731l-48.8322,89.615s-42.2643,62.7842-45.8165,67.3454-51.3111,28.709-51.3111,28.709-35.4167,1.0733-45.6125-.2683S1848.5404,1095.0556,1843.9791,1060.4438Z"></path></g><path fill="#ffb6b0" d="M2033.1561,960.4975s11.3894,70.1956,15.1084,98.0879-5.5785,56.7143-56.2495,50.2061v50.206s-26.0327,28.3572-59.5035,0l-3.2541-56.7142s19.9895-13.4813,17.2003-28.8221-18.5949-12.0866-17.2003-34.4004,14.8759-17.2003,14.8759-17.2003,13.4813-33.0058,39.9789-37.1897S2024.556,973.5139,2033.1561,960.4975Z"></path><g clip-path="url(#R)"><ellipse cx="2036.371" cy="1028.261" fill="#e26a61" opacity=".64" rx="6.727" ry="17.399" transform="rotate(-10.622 2036.37 1028.261)"></ellipse><path fill="#f28b86" d="M2043.7211,972.9719a45.72835,45.72835,0,0,1-35.2042,20.1377c-24.3647,1.6691-47.8835,24.1257-56.684,36.4162s-27.3122,23.974-27.3122,23.974l1.8208-27.6156s13.5044-22.6347,17.7529-25.6563,50.9827-29.8784,51.2862-30.3336,27.7673-18.0564,28.2225-18.0564,13.6561.4552,13.6561.4552Z"></path><polygon fill="#f28b86" points="1996.493 1113.839 1992.015 1108.792 1959.672 1092.597 1963.921 1144.186 1999.96 1140.459 1996.493 1113.839"></polygon></g><path fill="#ffb6b0" d="M2414.875,1388.3771s51.3873-10.9249,79.3064-6.474,50.9827,38.844,49.3642,62.3122-40.0579,28.7283-59.8845,6.8786-68.7861-13.7572-68.7861-13.7572A98.5196,98.5196,0,0,1,2414.875,1388.3771Z"></path><path fill="#55aee5" d="M1978.3863,1135.588l6.7775,4.3497s59.0752,1.7196,93.0636,5.6647,50.3758,31.5607,66.7631,62.211,83.1503,155.0724,101.3584,156.8932,174.1908,17.6011,174.1908,17.6011-4.2485,46.1272,0,59.4798c0,0-219.1041,11.5318-228.2082,4.8555s-88.6127-118.9596-88.6127-118.9596,6.0693,231.8499,38.8439,285.2603c0,0-35.2023,58.2659-114.1041,91.0405s-185.7226,23.0636-185.7226,23.0636-18.2081-71.6186-19.422-189.3643-2.97-256.1273,6.4052-324.1042,68.855-77.2832,103.6527-73.6416Z"></path><g clip-path="url(#S)"><path fill="#3482b2" d="M1928.6173,1756.4812s67.0667-77.3882,98.9309-182.9884,50.6792-320.6649,50.6792-320.6649,98.3238,150.3841,116.9365,169.8742,226.9896,13.7716,226.9896,13.7716l2.7243,16.3095-237.4018,19.3512-66.0386-106.8209,89.9115,267.8614s-158.06,134.7399-158.1341,135.1446S1928.6173,1756.4812,1928.6173,1756.4812Z" opacity=".71"></path></g><path fill="#175fa0" d="M1928.9415,1116.4695s18.7892,13.0491,64.4665,2.4277l-.0302,21.1722s-7.4207,15.8509-35.9285,13.7267-28.832-14.2602-28.832-14.2602Z"></path><path fill="#43555f" d="M2331.5601,2049.3764s-10.0581,46.4767-5.9584,48.8758,96.0518,33.0937,103.6792,55.7977,7.4086,53.7105-7.469,53.3382-194.2288-20.1003-203.7426-28.0263,11.1455-76.8178,26.3425-81.2905l9.3258-53.824Z"></path><g clip-path="url(#T)"><path fill="#ffb6b0" d="M2238.2092,2086.7539l6.2026,11.3174s10.1173,14.1498,40.0745,14.9077,41.1154-14.7268,41.1154-14.7268,16.0466-4.92,16.8613-7.3518,5.4673-54.0369,5.4673-54.0369l-97.3342-.3251Z"></path><path fill="#0a4861" d="M1345.2134,744.423a1.5009,1.5009,0,0,0,0-3,1.5009,1.5009,0,0,0,0,3Z"></path><path fill="#293d44" d="M2207.6391,2160.7308s52.0505,13.1626,102.0777,20.1093,134.3918,14.3318,134.3918,14.3318l-6.3508,13.3001-15.4144,7.7708-217.9807-31.0936S2200.4016,2164.4102,2207.6391,2160.7308Z"></path></g><path fill="#8e470d" d="M2288.531 2028.6953c22.993 1.8034 64.0318-.6069 62.211 4.552s.3035 24.2775-23.3671 22.7602-72.8324-1.2139-83.4537-3.3382-7.8902-10.9248-7.2833-20.6358S2273.0541 2027.4814 2288.531 2028.6953zM2099.0656 2399.3313c15.3266-7.7985 61.7052-35.8092 66.763-25.4913s11.3295 27.7168 5.0578 32.3699-41.8786 19.8266-56.2428 27.1099-65.3468 38.237-71.4162 28.3237-12.948-27.5145 1.2139-34.7977S2090.9279 2403.472 2099.0656 2399.3313z"></path><path fill="#591929" d="M2000.3724 1025.0844c1.2779 5.0561 5.1074 8.4487 8.5536 7.5777s5.204-5.6757 3.9261-10.7318-5.1074-8.4486-8.5536-7.5777S1999.0946 1020.0284 2000.3724 1025.0844zM2016.2863 1001.9411s-25.0828-8.467-34.9899 12.2458M2043.7211 1063.8334s-9.265 24.2602-38.5119 7.1386"></path><path fill="#e26a61" d="M1997.7285,1045.3638a5.44988,5.44988,0,1,0,4.2361-6.4387A5.44977,5.44977,0,0,0,1997.7285,1045.3638Z" opacity=".64"></path><ellipse cx="1195.135" cy="2571.295" fill="#507199" opacity=".31" rx="328.353" ry="71.013"></ellipse><path fill="#0a4861" d="M1297.0688,1204.919s43.8742-2.7945,62.3181,40.2413-17.0467,192.2636-43.8742,260.1707-98.088,187.7924-170.1869,181.0856-129.1073-30.181-135.8141-119.047,72.0989-92.6857,98.9263-136.4665,41.9858-118.3793,60.2687-170.9318c19.2823-55.4249,86.4442-87.9346,129.2936-56.6358"></path><g clip-path="url(#U)"><path fill="#063949" d="M1035.5102,1650.1691c1.6185-1.2138-10.9249-44.5087,23.0636-92.659s76.8786-69.5954,111.2717-129.8844,35-108.1359,79.0029-140.607,111.0695-13.3526,109.5521-59.1764c30.3468,31.8642,23.0636,114.6814,23.0636,114.6814l-43.6994,120.8101s-68.5839,114.1041-70.7082,115.9249-84.7357,139.0973-87.9261,136.5102-99.3138-14.8194-99.3138-14.8194Z"></path></g><path fill="#f65e51" d="M1016.1023,2402.2634s-7.1603,11.5666-25.6118,20.6546-49.0204,29.192-45.4403,53.9776,63.0656,80.9663,80.4155,99.6932,61.1379,24.2348,69.6751,0-51.7744-94.1853-50.6728-107.4043,11.842-29.7427,11.842-29.7427Z"></path><g clip-path="url(#V)"><path fill="#ffb6b0" d="M989.6643,2417.8232s-8.3996,22.4448,7.0226,39.9324,50.6728,13.9075,50.6728,13.9075l28.9165-32.0836s-69.5374-46.4042-69.1243-46.4042S989.6643,2417.8232,989.6643,2417.8232Z"></path><path fill="#cc322b" d="M942.4798,2452.4772c.7068.1993,8.4455,27.9067,37.6374,64.0753s55.4381,64.2072,69.6681,70.1849,31.8611,12.6174,31.8611,12.6174l-25.1528,4.4064-80.4155-47.7353s-39.1062-71.2357-39.4734-71.97-8.8126-8.2619-6.6095-10.6487S928.1593,2448.438,942.4798,2452.4772Z"></path></g><path fill="#f65e51" d="M1275.4682,2463.5828s1.9417,13.4643-6.3627,32.2815-18.8202,53.8607-.1559,70.5576,100.3422,21.5468,125.6685,24.7554,62.4246-20.6959,53.4013-44.7539-100.1791-38.9309-107.8257-49.77-10.0283-30.4022-10.0283-30.4022Z"></path><g clip-path="url(#W)"><path fill="#ffb6b0" d="M1265.1998,2492.4902s7.979,22.5976,31.0318,26.0947,47.7704-21.8892,47.7704-21.8892l1.5546-43.1637s-83.1023,9.0998-82.7857,8.8345S1265.1998,2492.4902,1265.1998,2492.4902Z"></path><path fill="#cc322b" d="M1251.2951,2549.3578c.6697-.3012,24.398,15.964,70.0037,24.9341s83.7313,13.6013,98.4773,9.0426,32.5239-10.7947,32.5239-10.7947l-16.4477,19.5334-92.2946,15.0669s-75.7286-29.4786-76.4818-29.8056-12.0611-.6716-11.9056-3.916S1237.7249,2555.4605,1251.2951,2549.3578Z"></path></g><path fill="#044170" d="M1190.0767,1697.1056l-6.0693,3.6416s-17.7024,55.737-40.4625,116.7341-6.3728,207.5724-6.3728,246.7198-47.3411,111.0694-68.2804,165.6937-64.6387,169.3354-64.6387,169.3354,6.9797,43.0925,52.5,51.8931l205.7383-342.919s6.6895,100.7512,10.3311,148.0923-3.2906,220.5274-3.2906,220.5274,47.9005,14.964,66.1086-3.851c0,0,45.5202-296.7921,44.6098-402.3991s-19.4219-369.8267-19.4219-369.8267l-7.8902-11.633Z"></path><g clip-path="url(#X)"><path fill="#043756" d="M1262.201,1959.6897s31.209,133.0299,35.1782,230.5988,0,309.9934,0,309.9934-54.2967,4.8522-62.7938,0-33.1821,12.2008-32.7746-82.6975-10.9248-293.6-6.6763-354.2937S1262.201,1959.6897,1262.201,1959.6897Z"></path><path fill="#064c8c" d="M1385.7127,1832.4744s-100.0134-8.9237-109.2486,66.9434-4.2751,155.3763-13.9728,208.7865-162.5061,378.7282-162.5061,378.7282l-79.6199-4.5362s-106.2424-38.2639-106.2424-64.8119,67.9769-303.311,84.9711-344.5827,130.5474-410.576,142.9616-415.2881,130.9972,0,130.9972,0,103.4095,36.862,107.1974,36.862,74.0463,52.011,74.0463,52.011Z"></path><g clip-path="url(#Y)"><path fill="none" stroke="#fff" stroke-linecap="round" stroke-linejoin="round" stroke-width="3" d="M1223.0613,1695.4871s-52.0709,86.6614-66.7707,136.9873,13.3526,209.5735,8.4971,248.4175-128.6706,276.1562-160.5347,359.3065" opacity=".53"></path></g></g><path fill="#ffb6b0" d="M1092.2588,1592.0044s-26.9145,104.3241-16.7114,121.7746,200.905,132.103,219.1248,138.2977,82.1846,4.0228,100.4043-2.1719,26.2683-29.5164-1.7901-38.6263-93.8093-1.0804-93.8093-1.0804-156.3554-119.6446-159.6349-127.2969,11.7952-70.3621,11.7952-70.3621Z"></path><g clip-path="url(#Z)"><path fill="#ef8984" d="M1140.8137,1619.62c0,.9104-37.9335,57.3555-11.5318,77.9913s160.4865,118.8471,168.0973,123.0002-30.0192,27.5201-31.2331,27.2167,18.8151,20.6358,18.8151,20.6358l73.1358,3.6416,71.6186-27.919,8.8006-62.211-258.8585-77.081-19.1186-62.818,2.7313-33.078Z"></path></g><polygon fill="#ef8984" points="1434.268 1563.175 1473.111 1646.932 1420.915 1669.389 1380.25 1581.383 1434.268 1563.175"></polygon><path fill="#f7b94b" d="M1248.0898,1415.5375l-4.6559,3.4445s-75.0046,5.8113-106.5653,43.4414-57.052,135.3469-57.052,135.3469,36.5679,32.1676,84.1366,26.7052c0,0,21.875,43.0925,20.0542,76.2717,0,0,76.0694,37.4278,176.8209,0,0,0,1.6185-49.7688,8.9017-67.5723s13.7572-39.6532,13.7572-39.6532,28.3237.5002,61.0983-27.0621c0,0-42.4855-90.9871-54.6243-105.5536s-60.6889-43.5722-98.7283-40.867Z"></path><g clip-path="url(#aa)"><path fill="#d88c27" d="M1351.4207 1426.9176s23.6706 28.8295 39.7544 64.3353 20.4391 100.7515 20.4391 100.7515l32.9713-10.0145 21.2428-29.7399-68.2804-136.7125zM1383.8919 1596.6575l-.4047-3.1358a94.47455 94.47455 0 004.8049-30.3468c0-17.6012-22.6083-79.8122-22.6083-79.8122s6.4739 47.0095-5.6648 80.2028-122.2933 28.6483-117.5928 38.0487 40.6802 14.5665 54.953 27.1098-62.8053 83.017-66.8458 85.4103 8.0983 17.3643 8.0983 17.3643 35.3563 10.4395 58.7475 6.474 54.9519-1.0522 58.5936-3.9654 7.6878 4.1125 21.4451-14.2728S1383.8919 1596.6575 1383.8919 1596.6575zM1138.386 1636.4956c-.4937.7869 22.1531-4.4334 22.1531-4.4334l3.6417-8.8006s14.263-57.659 13.3526-106.8209C1177.5334 1516.4407 1149.3108 1619.0792 1138.386 1636.4956z"></path></g><path fill="#ffb6b0" d="M1335.6334,1284.5631s-3.3535,71.54-8.9425,92.7784-36.7015,14.0658-36.7015,14.0658l-2.7946,29.6221s-1.1027,34.5256-16.1932,32.2899-27.9603-34.0598-27.9603-34.0598l1.4904-36.7015s1.4904-21.2384-7.4521-30.3672-12.6686-14.9042-9.6877-24.7782,15.2767-9.5014,17.5124-3.9123c0,0,11.9233-17.1398,14.9041-25.3371S1323.3374,1294.6234,1335.6334,1284.5631Z"></path><g clip-path="url(#ab)"><path fill="#ef8984" d="M1292.0168,1394.6741l-2.0274-3.2668s-13.1207-3.6371-28.9011-16.7874c0,0,26.1995,59.1792,25.9972,78.8035l3.8439-30.3497Z"></path></g><rect width="275.295" height="74.025" x="1297.379" y="1599.483" fill="#4884c1" rx="11.793"></rect><g clip-path="url(#ac)"><path fill="#fff" d="M1569.8656,1611.8206H1321.0865a9.43454,9.43454,0,0,0-9.4345,9.4345v30.239a9.43454,9.43454,0,0,0,9.4345,9.4345h246.0978a9.43455,9.43455,0,0,0,9.3977-8.6012l2.6813-30.239A9.43456,9.43456,0,0,0,1569.8656,1611.8206Z"></path><g clip-path="url(#ad)"><path fill="#efdfdc" d="M1562.7561 1628.2706H1324.2314a3.38677 3.38677 0 01-3.3868-3.3868h0a3.38675 3.38675 0 013.3868-3.3867h238.5247a3.38673 3.38673 0 013.3867 3.3867h0A3.38675 3.38675 0 011562.7561 1628.2706zM1562.7561 1653.4294H1324.2314a3.38677 3.38677 0 01-3.3868-3.3868h0a3.38684 3.38684 0 013.3868-3.3868h238.5247a3.38681 3.38681 0 013.3867 3.3868h0A3.38675 3.38675 0 011562.7561 1653.4294zM1427.7695 1640.4871H1324.2314a3.38677 3.38677 0 01-3.3868-3.3868h0a3.38675 3.38675 0 013.3868-3.3867h103.5381a3.38681 3.38681 0 013.3868 3.3867h0A3.38684 3.38684 0 011427.7695 1640.4871zM1553.3215 1640.4871H1449.7834a3.38675 3.38675 0 01-3.3867-3.3868h0a3.38673 3.38673 0 013.3867-3.3867h103.5381a3.38675 3.38675 0 013.3868 3.3867h0A3.38677 3.38677 0 011553.3215 1640.4871z"></path></g></g><rect width="275.295" height="74.025" x="1280.687" y="1672.562" fill="#ba8d88" rx="11.793"></rect><g clip-path="url(#ae)"><path fill="#fff" d="M1553.1737,1684.8992H1304.3946a9.43454,9.43454,0,0,0-9.4345,9.4345v30.239a9.43454,9.43454,0,0,0,9.4345,9.4345h246.0978a9.43455,9.43455,0,0,0,9.3977-8.6012l2.6813-30.239A9.43456,9.43456,0,0,0,1553.1737,1684.8992Z"></path><g clip-path="url(#af)"><path fill="#efdfdc" d="M1546.0642 1701.3492H1307.5395a3.38677 3.38677 0 01-3.3868-3.3868h0a3.38684 3.38684 0 013.3868-3.3868h238.5247a3.38684 3.38684 0 013.3868 3.3868h0A3.38677 3.38677 0 011546.0642 1701.3492zM1546.0642 1726.508H1307.5395a3.38677 3.38677 0 01-3.3868-3.3868h0a3.38677 3.38677 0 013.3868-3.3868h238.5247a3.38677 3.38677 0 013.3868 3.3868h0A3.38677 3.38677 0 011546.0642 1726.508zM1411.0776 1713.5657H1307.5395a3.38677 3.38677 0 01-3.3868-3.3868h0a3.38675 3.38675 0 013.3868-3.3867h103.5381a3.38675 3.38675 0 013.3868 3.3867h0A3.38677 3.38677 0 011411.0776 1713.5657zM1536.6297 1713.5657H1433.0915a3.38675 3.38675 0 01-3.3867-3.3868h0a3.38673 3.38673 0 013.3867-3.3867h103.5382a3.38673 3.38673 0 013.3867 3.3867h0A3.38675 3.38675 0 011536.6297 1713.5657z"></path></g></g><rect width="275.295" height="74.025" x="1297.379" y="1746.587" fill="#b74f4f" rx="11.793"></rect><g clip-path="url(#ag)"><path fill="#fff" d="M1569.8656,1758.9241H1321.0865a9.43454,9.43454,0,0,0-9.4345,9.4345v30.239a9.43454,9.43454,0,0,0,9.4345,9.4345h246.0978a9.43455,9.43455,0,0,0,9.3977-8.6012l2.6813-30.239A9.43456,9.43456,0,0,0,1569.8656,1758.9241Z"></path><g clip-path="url(#ah)"><path fill="#efdfdc" d="M1562.7561 1775.3741H1324.2314a3.38677 3.38677 0 01-3.3868-3.3868h0a3.38675 3.38675 0 013.3868-3.3867h238.5247a3.38673 3.38673 0 013.3867 3.3867h0A3.38675 3.38675 0 011562.7561 1775.3741zM1562.7561 1800.5329H1324.2314a3.38677 3.38677 0 01-3.3868-3.3868h0a3.38677 3.38677 0 013.3868-3.3868h238.5247a3.38675 3.38675 0 013.3867 3.3868h0A3.38675 3.38675 0 011562.7561 1800.5329zM1427.7695 1787.5906H1324.2314a3.38677 3.38677 0 01-3.3868-3.3868h0a3.38675 3.38675 0 013.3868-3.3867h103.5381a3.38681 3.38681 0 013.3868 3.3867h0A3.38684 3.38684 0 011427.7695 1787.5906zM1553.3215 1787.5906H1449.7834a3.38675 3.38675 0 01-3.3867-3.3868h0a3.38673 3.38673 0 013.3867-3.3867h103.5381a3.38675 3.38675 0 013.3868 3.3867h0A3.38677 3.38677 0 011553.3215 1787.5906z"></path></g></g><path fill="#ef8984" d="M1422.1289,1672.5617s98.9306,8.9201,103.1792,68.4456c0,0,30.3116-44.0339,35.5732-67.4993Z"></path><path fill="none" stroke="#591929" stroke-linecap="round" stroke-linejoin="round" stroke-width="2" d="M1289.3253,1308.6526s-13.0003-10.7254-26.2214,3.2828"></path><ellipse cx="1279.61" cy="1324.415" fill="#591929" rx="7.378" ry="5.568" transform="rotate(-89.377 1279.61 1324.415)"></ellipse><path fill="#591929" d="M1281.1408 1317.4197s4.9961-.0605 7.5733-2.2501c0 0-2.9811 5.3532-6.4989 4.5309zM1323.1971 1322.662c-.0443 4.0747-2.5729 7.3507-5.6477 7.3173s-5.5317-3.3637-5.4873-7.4384 2.5729-7.3507 5.6477-7.3173S1323.2415 1318.5873 1323.1971 1322.662z"></path><path fill="#591929" d="M1319.1605,1315.6062s4.9961-.0605,7.5733-2.2502c0,0-2.9811,5.3532-6.4989,4.5309Z"></path><path fill="none" stroke="#591929" stroke-linecap="round" stroke-linejoin="round" stroke-width="2" d="M1303.046,1309.4833s8.6266-11.9421,20.715-.778"></path><path fill="#e56c65" d="M1272.87 1344.1982a7.83209 7.83209 0 10-9.3254 5.9765A7.83209 7.83209 0 001272.87 1344.1982zM1312.724 1340.1034c.7292 5.3575-.7644 9.9844-3.336 10.3344s-5.2474-3.7094-5.9766-9.0669.7643-9.9844 3.3359-10.3344S1311.9947 1334.7458 1312.724 1340.1034z"></path><path fill="#fff" d="M1276.8428,1363.6654c3.3229,5.8986,11.7531,15.4341,28.706,5.4347a2.13252,2.13252,0,0,0-.7123-3.9284l-25.7665-4.6639A2.13176,2.13176,0,0,0,1276.8428,1363.6654Z"></path></svg>